<mxfile host="65bd71144e">
    <diagram id="gkCqiZBwsquhjPwi4Ud3" name="Page-1">
        <mxGraphModel dx="606" dy="478" grid="1" gridSize="10" guides="1" tooltips="1" connect="1" arrows="1" fold="1" page="1" pageScale="1" pageWidth="850" pageHeight="1100" math="0" shadow="0">
            <root>
                <mxCell id="0"/>
                <mxCell id="1" parent="0"/>
                <mxCell id="11" value="" style="edgeStyle=none;html=1;" edge="1" parent="1" source="2" target="3">
                    <mxGeometry relative="1" as="geometry"/>
                </mxCell>
                <mxCell id="2" value="Cloudwatch Event" style="outlineConnect=0;dashed=0;verticalLabelPosition=bottom;verticalAlign=top;align=center;html=1;shape=mxgraph.aws3.cloudwatch;fillColor=#759C3E;gradientColor=none;" vertex="1" parent="1">
                    <mxGeometry x="10" y="129.5" width="80" height="70.5" as="geometry"/>
                </mxCell>
                <mxCell id="12" value="" style="edgeStyle=none;html=1;" edge="1" parent="1" source="3" target="4">
                    <mxGeometry relative="1" as="geometry"/>
                </mxCell>
                <mxCell id="3" value="SQS" style="sketch=0;points=[[0,0,0],[0.25,0,0],[0.5,0,0],[0.75,0,0],[1,0,0],[0,1,0],[0.25,1,0],[0.5,1,0],[0.75,1,0],[1,1,0],[0,0.25,0],[0,0.5,0],[0,0.75,0],[1,0.25,0],[1,0.5,0],[1,0.75,0]];outlineConnect=0;fontColor=default;gradientColor=#FF4F8B;gradientDirection=north;fillColor=#BC1356;strokeColor=#ffffff;dashed=0;verticalLabelPosition=bottom;verticalAlign=top;align=center;html=1;fontSize=12;fontStyle=0;aspect=fixed;shape=mxgraph.aws4.resourceIcon;resIcon=mxgraph.aws4.sqs;" vertex="1" parent="1">
                    <mxGeometry x="153" y="134.75" width="60" height="60" as="geometry"/>
                </mxCell>
                <mxCell id="13" value="" style="edgeStyle=none;html=1;" edge="1" parent="1" source="4" target="5">
                    <mxGeometry relative="1" as="geometry"/>
                </mxCell>
                <mxCell id="4" value="Lambda" style="outlineConnect=0;dashed=0;verticalLabelPosition=bottom;verticalAlign=top;align=center;html=1;shape=mxgraph.aws3.lambda_function;fillColor=#F58534;gradientColor=none;" vertex="1" parent="1">
                    <mxGeometry x="286" y="137.75" width="60" height="54" as="geometry"/>
                </mxCell>
                <mxCell id="14" value="" style="edgeStyle=none;html=1;exitX=0.5;exitY=1;exitDx=0;exitDy=0;exitPerimeter=0;" edge="1" parent="1" source="4" target="10">
                    <mxGeometry relative="1" as="geometry"/>
                </mxCell>
                <mxCell id="15" value="" style="edgeStyle=none;html=1;" edge="1" parent="1" source="5" target="6">
                    <mxGeometry relative="1" as="geometry"/>
                </mxCell>
                <mxCell id="5" value="Dynamodb" style="sketch=0;points=[[0,0,0],[0.25,0,0],[0.5,0,0],[0.75,0,0],[1,0,0],[0,1,0],[0.25,1,0],[0.5,1,0],[0.75,1,0],[1,1,0],[0,0.25,0],[0,0.5,0],[0,0.75,0],[1,0.25,0],[1,0.5,0],[1,0.75,0]];outlineConnect=0;fontColor=default;gradientColor=#4D72F3;gradientDirection=north;fillColor=#3334B9;strokeColor=#ffffff;dashed=0;verticalLabelPosition=bottom;verticalAlign=top;align=center;html=1;fontSize=12;fontStyle=0;aspect=fixed;shape=mxgraph.aws4.resourceIcon;resIcon=mxgraph.aws4.dynamodb;" vertex="1" parent="1">
                    <mxGeometry x="419" y="134.75" width="60" height="60" as="geometry"/>
                </mxCell>
                <mxCell id="16" value="" style="edgeStyle=none;html=1;" edge="1" parent="1" source="6" target="8">
                    <mxGeometry relative="1" as="geometry"/>
                </mxCell>
                <mxCell id="6" value="lambda" style="outlineConnect=0;dashed=0;verticalLabelPosition=bottom;verticalAlign=top;align=center;html=1;shape=mxgraph.aws3.lambda_function;fillColor=#F58534;gradientColor=none;" vertex="1" parent="1">
                    <mxGeometry x="552" y="132.75" width="60" height="64" as="geometry"/>
                </mxCell>
                <mxCell id="8" value="" style="verticalLabelPosition=bottom;html=1;verticalAlign=top;align=center;strokeColor=none;fillColor=#00BEF2;shape=mxgraph.azure.message;pointerEvents=1;" vertex="1" parent="1">
                    <mxGeometry x="690" y="146" width="50" height="37.5" as="geometry"/>
                </mxCell>
                <mxCell id="10" value="" style="shape=image;verticalLabelPosition=bottom;labelBackgroundColor=#ffffff;verticalAlign=top;aspect=fixed;imageAspect=0;image=data:image/png,iVBORw0KGgoAAAANSUhEUgAAAVgAAAGYCAYAAAAHhPr0AAAAAXNSR0IArs4c6QAAAARnQU1BAACxjwv8YQUAAAAJcEhZcwAADsMAAA7DAcdvqGQAAAAhdEVYdENyZWF0aW9uIFRpbWUAMjAyMjowNDowMiAxODoyMTo0MpGoa5kAAP94SURBVHhe7L0HwG5XVSa8b8vtNz0hnVREBUFBQRlxQKRIkyqIiIBUqQkQuiC9Kh1UlCoyWAd1HEdHx97HNr+SRkd6EiAEUu6/nrb3Pu93LxbCd5OY53znrLXXep619t7nvO8t7/2+u+Ep99u7t03YW8MNGzbIMqKr4nTLVxRCh7o/64UN1Gls1eQSkx89mzAhw7iJSGUuQWLh9X76GuPedAaF+08X5nml0oD3az9lOGYCBERSIawIYyuUlDH642vshVD9HZvnEZCZ+kB8khxjLccoYFBgOD3t97lOsTr22d96FS5Muo7EZuGERX+vdUbm1OcxLSDzooRhXL5S/040xroQ/lf72wbpz/IIMDf0Kqua1PV5BBVnXghFxYRZv6a/x12Cy6RXu6/Qf9IDocxgvvNSR7k+L/AUWoDx3haMVab1DocxY9azn/XiDT3Lr4BlJ/2SqAqdgMpwFe0Am9lKjv3f0DYi2UGhpLQsyJJS86JYTDgASo5xVYi+T5ZRewI5I901rGN31jPY47jWwOk+pkF/ufvuL53GKSCzikX/FC3d6Kd8p5kCw6wTHDsXLPunwBLzi2s4UQ09+zAvUrYw9w++MgOaT/pO+pnMcAaLsGBnfk7Y22f2CSmnhUrQTaG+/hAMlh2x+Mv7unYM3hxnjFJeCtO+AtH3oJ2Kz6Hev0+8YhVCn/BgV/sDylecTvHLJjvPkxCpsJzniBbfA3Tic5JxWbyWMFzbf7LlKO03JWtcoBMYMxACellOw29iZqq3jmV/53GhjoYQrxhM4uKz968r664FYpAzyy8d8Eb/injyuorHbAVEk0oMs7oeSN6Y6vX+HNdRLt9g+wSQM5ObbaswE+SaYjtiQGLhwko99HZpqedgAmLgOSf10KtHybteJQHlrEWCl1JzI1SPQLxi4tY4BQzGbdldzfqY1vr64lwA9ddFRsnBRVRzgSUrIcApqaVHPzZA3GPkY9kCUtCsYYVeB0xwnWMtxTmGO6NiTDO1TEbPeWRNdajD6A+aTukZd44jWOuVAQNQLmFawOnMB7rVPQVF63R/WyBLFrdQllwFRSCm/tGrMIbi0533XyRW6HsiTvSr/WHVn4NBsp6IJVi9U6NHo/A1A/d3PBU01xU9LbKDBbDefBLJ0dBCz/7Wewcqh/7jRJT3yjlxpOfQsdGjxkrIqgD9WS8HvjhSa8wTR1lIl88KZeSDU0HGCLbB2Cd8EDPZSU/UODVBiZ5HWb7BzhsDwYjATrmAlYTwCBQmDWOdXc8phR2+zKIHadHFLvVdUaFECPSHxfxQg0YMzV8+1XTJFuiOcXSreo0Qx1U3b0bvUgnYffcPRr8Oh9IpeqwNIY5i0Z8WwAPUaRzDps58/4ZmRkVBwVluOGPFwogXei+h93cQpq+f10INu6YHDY5RwBzYkM1d3Zc+vzKg4AlgpC6wK9tXsKISLNkbBGqUcE+v9l+xAPtXo0RgoYcd+1IKW5ccyAbuC45TShuvYBe91/TnUbk65jiucyvGEMC5WHxU7p+UzALsjz5FohLWgj6vusRO7V0XEZwTCQmG3Z9XheXYFtQdfdQ3lrn0LyAOjP5ThH0w8kl9nYjDBVh7hkbaf4zGsRHBsqyNAMoDshBYVEU7tRxL6GMQDqJaE7PK4wwJUWs8sCM9NgiQxVUH51Zc1O49yRBg2R8cBkrl01nGlMqYwwnqAdDWyRp1aG+WelMcY0V4vCKgvEjZG6Zo3V+hYTvMZZ3ysTewjrE/fbqMscUE5evKHEmKRwRGd8tZ0QPi4ozveWA+OJSiv9/+BaYm/bwfQvn7CEUPxJ8t+9pXD1zKo1anIwuduBMhlpA+NegzJE63lUwtWVYtSE8pbJ3a/qET00m6JgHzRiKNc0VPi4O15j0t2Eqq2SIy9KGIgSxZc1+AfJyC5bJFhYUurw09Y+bgLALP8tUfGdne3lnlht4FdBrdmzhZP/yx/4qPs3I1tyGDhg6I8GyGXoE6YVUg1JAJ9oeMlDi46tg4boqCmmSsRPJGUTLcJHmUUQwTkQVYn+7QA32O6V/gZEGO5VXerFcv+9PJvpWUUTTqWW+y/Ansz+KTvmwqpAQp4NrnWX7WzauDqoMcjVExBJDKWcD+DyjY+08pRBb9bdVfVGpg2V9zGiDZrvJzaNEr+QnL/hhpjtHDRqHMVBJOaTJXMc1mbrI0diagZ+8/Xdm3HOYsi2U3+4v+ICxIAAqVmVIjh7D7V5L7A4tYHaDTWhebdkL6W+sanTSTrZ/R++Nwg3lPYnUqr4rm1tn7d0Zd0zeWUHaGppoeUWdPnCuHec9vRjgecUwgpqQssA89CkevvaOrvnVo/1W39+/9RKfe+VAqWiezSDDSLWsPLPrTUYz9bXFshJB1HRREQgoXG/aiD4YLI648o+SojhJUk8B0x+QKpaeOCW2SamoeONGz+6Ax61MExjlPjFVFBICJshnPqNi8WWgirfvXseifUrzIRxBSyRGUVpj2lwUYGmeh5wFqK6EvBHoecfZHDslYM1jaScXl9/Vh3F0QkHco8YL20LbrsROYCyXmjHWCwrlxBCZMXSe9yPAB+IhpRITmYOZBffkYY6WIimOmS5pWABeGA2oQ45hzwdBjgKHEEcYFX8ov9z+vERI7p3fBUCk5hegZzCShtRXMKSTE2vWV+4dxvxcmxaIuDoxYFp4ctgQYYx/lMCIHICl9dNX8nIJb474XYSHGUGXKwRiZaOHP+vRAgEMkEgJRQdq4XQGqmpVfA35lT8DLvXG+gOusVw/5oswM5JAotyzThPJIsRco5MCOPdH+o3/9DlZ5XJFkWOQqQDqsdCwUF5DP6uVbX74WVWMSYgsIr6Dz2WToUU99YV0A8dQq0IWW8RpZy3puynkxZ67C3ZKbON2hF8X9EarLmv6FUshf0QPiywdvqMrGndD1JYwUHtuv6DOXOYoe0XeOifO8hi2ouJD+hew7LCMr+ni9nf3oO6f3H360LMw4R/R7fwfZPzXTqAzz5HPYfXCtpO3PhmOr1wXAc0GqbaOekf1BJpWgpdwBWM1CFRhmDJZXI770QCLa/wo6PiAG15u5sL/XXxfYkYsi1iMmhq+ZTlz2L+DCYDKFiqU/yiz6F2BZGrn4FU07BiEE0z70M6IPIg0w39yj3t8kxOdW8Wl5YVMPyqZ/LzD04o1U9Dh6fxzobxX/imAUkI8CnChCbKhaGEvsPOchNXK9kggK4kJrIE4ro/4lwNhz0Q1VfSTY0xT2ZDQSKiYfMINfuNSZFIiTpSY6uD7Yn8Gp/1SKviS80ucAFzIwIE+XisVnuizGK+B+1Dn2H1+5gZBlLtKrpyC3riKUj7nD4GIi/clOekH9kWePAnvWwVJ1QJJc71/DMRc7qGGrZNnUVGYWdRl6AeFozd4T+I6BoftH2qL/3IVcJGGpUy3ku3gC+yMFQFIH118a9vdcUCtzBejhArn1pLEYEtLDj35MGnGBoQxJc3/rMxckuX7yxlyyVGqZwhVghbLRwx16xAFHJIZBbdSMD+tk71+Ir7wgTV0cTN9F/5SY9DO+kn65/0Of8mPFHEhXA1q6yEhHiy8Me4GsVBj9cQEXFaTvtkx4+iuCSigQH1cQcVMHKPcmaFTNradvfQw3fC4ARI8UtNRLLV9zAWuhL2vlQPEsty99RLnhBFPLCuILq3MBMxsWLOoB6GmXPvSkKCr9FFvtP9TuP3zeNvLDUUy1BOgho4/+ZdVK3qqe2VmPkNNr5lJa7X/inpNHcJBKOnNh3sGFHjnOB5BlyvnF+u1M3ZiDXpGhD5c+OBrxutAXRn+DtKGnW5R5L2aM/oIkQ9/7sxj4NAU5VM8FAHNtiO6bO1Zdh4viCp6elbI87WNQDqmsBUf6+DQqwOHiKmOOdbBlxlzAq451rvFBKIg5oKknWhaNcAKTH324vU457G/LnnUg3/tXk+gzVwCxNf2pNpu9yco0IpiqIDRiVJs85jL04G4ElQlMjIlpkmaqmIp0tXnJcjESKQ6qAh3SDz/6PjFlFnOBcTmPjOhRouKqZR/BorqEOeX2ucvvGvvJzpsEm/nM+mjUfq4lvl1fagwbfZmsWeP0Z2LhQ5K9mfcPQNwV1LPySKt/+Z07+iz0ERfYwwL2t4/r3L/XLAt9SmgmU39wmSn0+Uxi61Ogrxl+Hb1/2eTYX9Gup9w+HOQzF8J62EV/QCIOSen+mAv7o5714QCIswI1DIGmfgiCRz0z1EcrWFRgT+c0F3Ezj+izBlyhcSfNhHzp6RDpXx77O9GJynolBPt3WjlOaf1KIM/+daqUSPTj0GL/YeEi6IQK6ETIegBzEcvrnfTszy/dV3JBsR6c+BZRLrcuEssyU6cKKDTry6fEYH+P2d9H5kJ9fLr8O1gRk0ABTpIRr81FJbS4oLhYqFMEDrUQpyb0xgX2BLcO9Ves90e6fGRSLjxBXFyiIxt6XCKkRU5ukLlwrp436/hQ/8lCQ4VRCZQVR/1Vs9QYkM2iINWlMBXIWnr/AutYr/xKf9E6UDU5dhRZNXsUxnZFn3SgdVSQNVUrewLpmv6glk2naFjDc2GWdoYLIZwUJHWgFwZZS+YEhfYEKIt0eXMr5VEBGdeyXpj0RMVFpWUdh9Or74n9JbDWoUtadPSHib6S+9APYK00PHt/1LF+Tf+Ku3LZoVf/WMzDgX3oKSAi0plao7/8JbB+3RvUSpbsGlBWhaJnMJBIJDTrHGDUWuz/rDfY3/rsT+ZEFfVw5K+pgiTjsY4ZCGWI+kMrj/tOX/3BnftvpFMBFnGlUUQkIDwgtvMwRshxYi4SIF9x6eWnrh4C6WepIoMHRK/9qEV1bdgT9hWC3rWwOYv+9aX+noVoRNzMI7zMR3UZFGafC5AbPZAHSFrF3TnDDoxZZuZZj+Rcd4FesM7yO8/x3nuWg0dnBEHBnvf+s754g+kEkWgv2PW9/6SUqwTdcCsGHjKa7+iSeuLj4hcC/EnvZNcHfT4wnT/FAe9z70/UqL44rFNh5dh/bgJYt9AXomeNSdN90aiDuz+9wsrp3oRngKAbqLFv4Mxa9l9C/fO8A0OfM7WVKYRKYOD+jFvf6ykV0A8Psjp6//BYTrOe6xDzEK2cX/ASR8h19ofoZAeT/Wu4pn+Bf0UAcK/rwn4+GaoTI2j1K8TIZMEeglAXY+rVGyOPOhYoXqMaSikfUfZjRAMyk0S0fOiZN/pcWIAhjle3jXWs55inr+BXmLUVKrg/XKAS8DuHQKwGCaBI3H4RtI/SAxj1/nUgOmqHC13KiE0Ox4VKqq4jrs0xC8qFlVp6gCNo+TVy8upaNMrhUpL+zCrhmHwISCzUmK7JXSNfLiOE7jGeN/Qvn/VA1ZgSh9mfaXHkKsG1wbdezcyDwenQmv7ohv5di5Ir/XtsQHRF2L/8ns98CotYocvqjCL9NGCA81FVndqTEWB591j0Z5u6IOeexNzfyJoXa7Oe/R0fvliM0alr8dVfwwEMKk4yePCnPSqEz9rkcWQZ1q/4/vprpNIYaCy9RihkZkhBxTNiqkP67A1YnIv7b9h0RTvhCc9kvutt6w3WLmqUACOQcKJJiKjdNw0X+7ziwlOx/YL1o8PkhMjYv3z2Rz/EmMl8FOE6LeLVJObhpwBQY3sguIa4iTvCGNKQ6gYmqY2ja53qmENgRTVIYFpA+gDL/so40g/etN5fWfWEN/UHByGgHNXGKb2SZlCEL43TR74u0CvPGSju6+ifUlPWCfbHWb3zMJohIA1bKc1ViM/+k549MEYovO5TYquB8iC4f8YdqN/dbsda3L86aP+RVI49wauvub+ggbTy039Jm0ZwUcguLkhH0fsHK+Mp0wdMm4P7N6oBmk/3JyQMyx6V7vvfMfVfzAUifqlOnVg611+DTgMw4HiaS9lVCjD2X2OATI6n/ra48qwLOqv9Sv+uh9sd2wL4dqFfajFGXkH2L86m3Re1U1/6wHbE3d/mvPuTVG+wvQgjMgiR6IEWWz5iddCtHG9iT7jAKqyXyH7HfKMUxxURhMNk/9lPLTBM1ANlpEDHyM1zQXza0sohLynmBRWyscByLrhq1PuH7HmtIuvntS7z+hHDqRtV/ZFPrE4ArOEXrHdZQ/ounApknqFnnbjA4tSe5I28YuVkmpkTmMj3/rwCImtdjo6k5omaDrL/ROP6oEUcPmKVUBfrDbruQx9Jklf6BxWa9UhjrZkLrJ6vIqI/fNGm/qOAWomRCmFzD0VwLJh96RmpCywqUQvfc+lzQowsAd6IB4ymgvr3eSCkfMC0fVj2R5pxzUVrloZ+72luhVIDDmKiRBcL1wT7yQa9VZ1cdx2LNZMgKG/fFk7v37lDM2IF6FPAnCkrKuYxRWd/2/EXtDNef7e2+1v+yBEBJdOefwfLOiwE6xteNjdPoKSuZR3v+RSgcQzWLqBbXsSK9x4VwyRwMgYrlnlwDA6wIbBKsCbJjtPfN5RnI+pEldWD4ppTGUWMKa/L0Awf9WWIpAudW2Zwp/4WIoVpilc28IBXk3od6uyLJhu/oPrCoj+aTbVg2L4sQx0aMOYEr7Me/tx0TU84+BpxvWCGXvcGduYVBy5M2dTilfoRIwFEwjHUS7jsPJe8YHrNsnnhdh445MLU0bm4qoLmnaD4JhCzFwqC++xfB+zoL6RPwrQ1V2yBdD0oG2KhexWbwto+62nrQIj9h4qaERfoVVDxsnEI2PgOO9+j5SNk11YOuy/y07zCsU1bcocjP6BPZtchRipc8GGdUx+6lCHP+4KjErtv9oftjDfcrW2tN9mg97eFu1G7IjDVx7hx8vuECnkgAnJGumtYBy7Sk54BUxQGgUOPjdKn1L77S6dxCsisYtE/RUvX+1vYaabAMOsEx84Fy/4psIRujjHpR1V57MO8SNlC6OHAV2ZA80nfST+TGc5gERbspA/ZZXNmn5ByWqgE3RTq6w/BYNkRi7+8r2vH4M1xxijlpTDtKxB9D9qp+Bzq/fvEK1Yh9AkPtvefeb5qHsUvm+w8T0KkwnKeI1p8D9AJ40hg8VrCcHVfVq3S0kPInAronNdfQAjoZTkNvalbXRx4Opb9nceFOhpCvGIwiYvP3r+urLsWiEHOLL90wBv9K+LJ6yoesxUQTSoxzOp6wHmnshm49v4c12HO6vqP+L63tlNf8kNt066LHRXUPvXrWl/8aVo4XYtWBRWXjO1GTC4t9RxMQAw8fJWVeujVo+Rdr5KAchSSo0upuVpwMYZbtmLp0wsYjNuyu5r1Ma319cW5AOqvi4ySg4uo5gJLVkKAU1JLj35sgLjHyMeyBaSgWcMKvQ6Y4DrHWopzDHdGxZhmapmMnvPImupQh9EfNJ3SM+4cR7DWKwMGoFzCtIDTmQ90q3sKitbp/rZAlixuoSy5CopATP2jV2EMxac7779IrND3RBzT1/SHVX8OwBDJeiKWYPVOjR6NwtcM3N/xVNBcZ30Z27riUoBeOiZyEsnR0ELP/tZ7ByqH/uNElPcKOXOjh9UFGHonZFWAPnPk0JgijtQa88RRFtLls0IZ+eBUkDGCbTD2CR/ETDZ6GTqpCUr0PGyxL9ybTZe34x//9HbC45/FD7b2B5bDpb74VwSaQQEF2cudWFY5NAovMYYKneOimGli+9L3aIUSIdAfVjtqI4Y2QT7VdMkW6I5xdKt6jRDHVTdvRu9SCdh99w9Gvw6H0il6rA0hjmLRnxbAA9RpHMOmjvoLQzOjoqDgLDecsWJhxAu9l9D7OwjT189roYZd04MGxygAXbmxgLmr+9LnVwYUPdAaw0a/ui9IsGRvEKhRwj292n/FAuxfjRKBhR527EspbF1yIBu4LzhOKW28gl30Zn9PGlfwYPu+FGLnVowhgDOL5uQ7m9eeklkAPdinSMjTWrC6L7hM7V0XEZw1CAkJht2fV4Xl2BZ6fxzobcvcor9jvAJThEGMfFJfJ/cFOQzDDzTS/mO0PICNuy6s37Xiw6y3c7xPQMz+gHUoCp+Gk8EGIwUmGkIE3yRErfHAjvTYIEAWVx2YKDeJZaQXQ4Blf3AYKJVPZxlTKmMOJ6gHQFsna9TB/hZEb4pjrAiPVwSUFyl7wxSt+ys0bIe5rFM+9gbWMfanT5cxtpigfF2ZI0nxiMDobjkrekBcnPE9D8wHh1L099u/wNSkn/dDKH8OwdYZPRB/tuxrXz1wKY9anY4sdOJOhFhC+tSgz5A43VYytWRZtSBLaV1wavuHrjOYZFAkYN5ISHCu6GlxsNa8pwOSarZqEX1aiIEsWSt6Eq0B4tJyPnXWkdcG1x8OziLwLF/9kZHt7Z1VbuhdQKfRvYmT9cMf+6/4OCtXaxsyaOiACM8GUbMYqBNWBUJ1TmB/y/ozXQY9eFR+6/HntRu88e5rPsxaA+tpyuLsP+wFQRRD9ViATbtgoM9R1QhOFuRYXuXNevWyP53sW0kZRaOe9SbLn8D+LD7py6ZCSiCmucL3WX7WzauDqrParmIIIJWzgBsyoGDvP6UQWfS3TQ8YamDZX3MamMjOz6FFr+QnLPtjpDn2/mWjUGYqCac02iuAVeQyN1kaOxPQs/efruxbDnOWxbKb/UV/EEiq0yE6DkU/cgi7fyW5P7CI1QF6LBB92gnpP7QkhjSTU2gCe6E/DjeY9yRWp/KqaG6dvX9n1DV9ew6IHdBU00N5WMaSK4d5z29GOB5xTCCmpCywDz0KR6/9p6u+dXD/K85U9L2f6NQ7H0pF62QWCUa6Ze2BRX86irG/LY49N8eHWXdvW48bH2btF6wJPQaoy//RgNNxQ00WhRnlVwhIezKF4RmelBLaJNWEZZqL6T5ozPoUgXG06Vpk4QJMlM14RsXmzUITad2/DvZnCj4lzJFWBkFIJUdQWsHro1tBkqaz0PMAtZXQFwI93/sjh2RsAQyWdlJx+X19GHcXBOQdSrzAGrFdj53AXCihz6uonBfnxpGyTE56keED8BErk1BoDJZ1cerL5/rrQLT3JwEX8EgrgAvDATWIccy5YOgx4gwljjAu+EI+esX5LJQVBwxxehcMlZJTiJ7BTBJaW8GcQkKsXV+5fxj3e2FSLOriwIhl4clhS4Ax9lEOI3IAkFKbAfeoL4c57nsRFmIMVaYcjJGJFv6sB09AfdkeAlFB2rhdAaqalV8DfmVPwMu9cb6A66xXD/mizAzkkCi3LNOE8kixFyjkwHpP+IX939sOv/tb2ikvXvth1v6BvbPr4vpGgxRH2fK1KDUbtsD4Ep3PykOPemoG6wKIp1aBLrSM18ha1nNTzos5cxXuttgjTnfoRXF/hOoSORAfNbo/6QHNVz57dWbZuBO6voSRwmP7Fb1qL6PoEX3nmDjPa9iCigvliweZOLCMrOjpkQ8Og/Sj75zef/imU88TAfu9v1nsn5ppVIZ58jnsPrhW0vZnw7HV6wLguSDVtlHPyP4gk0rQUu4ArGahCgwzBsurEV96IBHtfwUdHxCD681c2N/rrwvsyEUR6xETw+f6C53L/gVcGEymULH0h2zRvwDL0sjFr2jaMch+FbCf/kH0QaQB9ib3qPc3CfG5VXxaXtjUg7Lp3wsMvXgjFT2OuX/beHk74QnP+Fc/zFoL63GieH31/zJGIXeGIRGDWINiWBnoqcPYi9ENRTMw1BRtMESM5X2qvx6AzGUwcC0bkQILy47RwfXB/gxO/adS9CXhdfbN4Ag8XSoWn+myGK+A+1EnejJNWm4gZJmL9Jk6ILeumSyUEikO0J/spA+4j5VnjwJ71sFSdUCSXO9fwzEXO6hhq2TZ1FRmFnUZegHhaM3eE/iOgcG5RmeLwNyFXCRhqVMt5Lt4AvsjBUBSB9dfGvb3XFArcwXo4QK59aSxGBLSw49+TBpxgaEMSXN/6zMXJLl+8sZcslRqmcJVyFx6bNLHd0RiGNRGzfiwTvb+hfjKC9LUxcH0XfRPidX+xlfSL/d/6FOee1aWmehrQEsXGelo8YVhL5CVCqM/LuCigvSw/Tuz7vYVPszaLzwPTMDz04dcTExLseGGw5/hTSSNRUSg1rUQB2uhLxtpR/Esty99RFk4wdSyQDYLWJ0LmAt9YX6YCPS0Sx96UhSVfoqt9h9q9x8+tOoXjmKqJSADGX30L6tW8lb1zM56hJxeM5fSav8T95zoqw5SSUNPGQcKrr1/UpslmrmL9dtJN6JC0Csy9OHSB0cjXhf6wuhvkDb0dIsy7wUQ1egvSDL0vT+LgU9TkEP1XAAw14bovrlj1XW4KK7g6Vkpy9M+BuWQylpwltdOdDNe48uYA1MObJkxF/CqY51rfBAKYg5o6omWZSOz4XM89OH2OuWwvy171oF8719Nos9cAcTW9KfabPYmK9OIYKqC0IhRbTLs1hPOazd4w7/hw6z9Qv05ATSoXv5hL1gkEiJxEuX3yRucjEPZDOjB44Ypw7jmrQouJ30QPUpYI6gWBC5hTrmTfvTnQD01oj5U2MxnX/3Vfq4lvl1fagwbfZmsWeP0Z2LhQ5K9YX84BtSuoJ6VR1r9y+/c0Wehj7igNSvJ/vZxnfv3aH1BnxJay9R/5vb5KMJYwi7Q1wy/jt6/bHL77W8fDvKZC2E97KI/IBGHpHR/zEWaoQ8HQB9WoIYh0NQPQfAqoJT7I9ZhUYE9nZvnknlEnzXgCo07aSbkS0+HwPrtsb8TnaikV0Kwf6eVM+kzH+TZv06VEol+HFr3r7Hm7oQKlFMnQtYDmItYXu+kZ39+6b6SC0r61yC+RZTLrYvEsszUqQIKzfryKTHY32P29wGfH2a9/t/4Ydb+wNrTXOriH/aiJknMmzJjLBxpc+ug7xik2iRYl3Gd8ARxcYlObNWk2wsw7Kww35DMm3V8KJR5oMdSjwTKaq7qr5qlwoBsFgVJdiqQtfT+BdaxXvmV/qJ1oEty7Ciyao4oY8SKnukJWkcFWVO67Amk7D9pSC2bcDSs4bkwSzsDigLCSUFSB3phkLVkTlBoT4CySJc3t1IeFZBxLeuFSU9UXFRa1nE4vfqe2F8Cax26pEVHf5joK7kP/QDWSsMzTO6J9Wv6V9yVyw69+sdO69+HngIiIp2pNfrLXwLr171BrWTJrgFlVaj3n/USiYRmnQOMWov9n/UG+1uf/cmcqKIejvw1VZBkPNYxA6EMUX9o5WHfj7wHvjPrgf+OD7P2AzYryznBNrzBOpDEV4KF2jD5rFNjPSrSIxYoMnhA9NqP2sCurVOUgdVxgXrXygPUa9SX+tfVoSBu5hFe5qO6DAqzD3gcPZAHSFrFVbcPOzBGLnryrEdyrjtgkV34ned47+0wAR6dBNGnrpNe+5+xdpBIghj6uGv6D6U5StANF/3rQEbz7fJeT3xc/EKAP+md7Pqgzwem86c44H3u/Yka1ReHdSqsHPvPTQDrFvpC9KwxabovGnXzG86qXmHldAvCM0BAInrfp5m17L+E1r+P/tOZ2soUQiUwcH/Gre/1lArohwdZHb1/eCynWc91iHmIVs4veIkj5Dr7Q3SyNRf+mMGnt+Mf+6x6J7ySua8Oc39MDB9ywYHP0z4wzbQviDcXFAkUr1GXyUcUKbE0IDNJRMuHnnkCVREvlwUY5Hh121jHeo55+kp+naitEEaM0QUqAb9ziPR3ALXpVh+OcRHYv7CmP+uKP2qHy7TLkC0OxwVoKUgkDS3CSVHU0gPZD4TnnLy6Fg07wP6UpD+zdcHVypBcmwy6JneNfLmMELrH1a1OxlkbVI0pcZj9mRZHrhJcG3zr1cw8GJwOrelfYP+u9biO3r/HBkRXhP3L7/nMp7CIFbqszijSTwMGOJ/0xKk98aBOlnePRX+2cX/3JOxLISzWT69g/aJ/98VizHHw1R9jGgODiosIEu1MCZ+1yePIMuy/4vvtz5FKY6Cx9BqhkJkhBRXPiKkO6bM3YG3efXE75aUPaEfc7R2MXTWoyp5A9o//bTcnz7Muiu8blcdBt47VxaAofMTRCOGUQ0xNvfEW8eoL8/BTAKixvfLNoTv193XZHzcwSW08XetUxxyitGAk0Bcw+gDL/sqkBPvXgfjor6x6wpv6g4MQUI5q42QFuWFQhC+N04c+dPgqq7z0YQKjf0pNWSdUp86aVx5GMwSkYSuVWoDmLUvfevbAGKHwuk+JrQZr+mfcgfrd7Xasxf0L2n8kPa5T85n6wyHEkVZ++mtkuBYB13pG64J0FL1/sDKeMn3AtDm4f6MaoPl0f0LCsOxR6b7/HVP/xVwg4pf1TFOPaKcBJMCZ5lJ2lQKM/dcYIJPjqb8trjzrgs5qv9K/6+F2x7YAvl3ol1qMkd/btp1wfjvj9Xdtu7/5j525ioD67qndw18R9AhC+0Cl9bBpqI0P5huleAojHKZu9uSnFhgm6oEyUqCjV1rMBeNpSytXV6QrhHlBhWwssJwLrhr1/iF7XqvI+nmty1i/YjhzIzmXxOoE0Gf4Betd1pC+C6cCmWfoWScusDi1J3oD5jIqmGlmTmCC2/vzCoisdTk6kponampIXuYOo55FQBw+YpVQF+sNuepDH0mSV/oHFZr1SGOtVtPq+Soi+sMXjRbI/QMYd59UCJt8z0WxYPalZ6QusKhkdZ9LnxNiZAnwRjxgNBXUv88DIeUDpu3Dsj/SjGsuWrM09HtPcyuUGnAQEyW6WLgm2E826K3q5LrrWKyZBEF5+7Zwev/OHZoRK0CfAuZMWVExjym652Z/2E5/PX7M4PsduWqx6F+n/g6WE9FMc8O1SrmAbnkRK94fqophETj1IEnCHHlwDA6wIbBKsCbJjtPfN3q+LA5RZfWguOZURhFjyusyNMMvpQ2RdKFzywwu+uvgWmDL5MZGQnjAq0m9DnX2RZONX1B9YdHfNyAxGLYvq1ggnyHHeZ318Oema3rCwdeI6wUz9Lo3sDOvOHBhyqaWrtCPGAmOhYFxD5ed54JedFOzbF64nQcOuTB1OCyrCpp3guCX7XrkA+slshpUMdi/DtjRX0ifhGlrrthC6XpQNsRC9yo2hakVvYKwdSDEPnUETpOXKL0KKl42DgEb32Hne7R8hOzaymH3Rd7zKts5tmlL7nDkB/TJ7DrESIULPqxz6kOXMuSvsg+zvgLSMv31jQaJFvSCoaP1IN1nCjheUBgEDseCgNKn1KzPAxmdxikgs4pF/xQtXe9vYaeZAsOsExw7Fyz7p8ASuDldNukHWx77MC9StpA3H/vRMwOaTypN+pnMcAaLsGBHfeAVu2zO7BNSTguVoJtCff0hGCw7YvGX93XtGLw5zhilvBSmfQWi70E7FZ9DvX+feMUqhD7hwfb+My+WTvHLJpv7F45JheU8R7TgATrxOcm4LF5LGK7uy6pVWnoImVMBnfP6CwgBvSxk0JOnJGyOZf/kC9TREOIVg0lcfPb+da2k/CUQg5xZfumAN/pXxJPXVTxmKyCaVGKY1fWA805lM3Dt/TmuIxx+Z9ZV+WHW/jGmpf76ebB9iw3EMFt8ldVkuQSPvZhypJ8K1yktuBww2vVkwy1bsfTpBQzGbXv/8jOmtb6+OBdA/XWRUVJcj8WiJSshwKnMM/3YAHGPkY9lC0hBs4YVeh1WoJf5MAm9SEtUjGmmlsnoOQ9bHOjAOZgDmk7pF/0xgrVeGTAA5RKmBZzOfKAb+1+x8kGZ9yQWqLRiCZQlV0ERiKl/9CqMofh0pRdHJFbInMwxXf0Ri76s+nNQlyJwDp4TEEuweqdKj4B8QDNwf8dTgb3Kkkp9Gdu64lJgReqYyEkkR0PL6YJivXegcug/TkR5r5AzN3pYXYChd0JWBegzRw6NKeJIrTFPHGUhnZ8V8CCXZQHIhAqCI4ZzIGay5nZJOeKLEj2Pspv2fLad9tIfvIo/zPrKwHQ4h7L8K4L5xnBdNdPEFjn7PVqhRAgUhdWO2ogx66mmS7ZAd4yjW9VrhDiuunkzepdKwC71wpCMWIdD6RQ91oYQR7HoTwvgAeo0jmFTZ9/9Z1QUFJzlhjNWLIx4ofcSen8HYfr6eS3UsGt60OAYBaArNxYwd3Vf5vmBgieAkbrARr+6L0iwZG8QqFHCPb3a3xZewP7VaM5AD7voT8f9Z2QD9wXHVYNV7BXsojf7e9K4ggfb96UQO7diDAGc8+Lje7Y9JbMAerBPkZCntWB1X3CZ2rsuIjhrEFIaerIe9XDnFXp/HOhty9zUf/ADMIGKMIiRT+rr5L4gh2H4gUbaf4x0bD/hgnbG6+7edl3VH2btB71/TYczKDs+5CpgM7BBgCyuOiDQw6NCNayoTgCWmwkOA6Xy6SxjSmXM4QT1AGjrZI062N+C6E1xjBXh8YqA8iLpRiunOu6v0LAd5rJO+dgbWMfYnz5dxthigvJ1ZY4kxSMCo7vlrOgBcXHG9zwwHxxK0d9v/wJTk37eD6H8OQRbZ+oDqTVb9rWvHriUZ62pLj104k6EWEL61KDPkDhzndSSZdWCLKV1wantH7rOYJJBkYB5IyHBuaKnxcFa854OSKrZqkX0aSEGsmSt6Em0BohLy/nUWUdeG1x/ODiLwLN89UdGtrd3VrmhdwGfI0TEYdp7Wf7Yf8XHWbla25ANDZPdIGoWA3XCqkCozgnsb1l/psvsvvnvf00/zNoX5tcU1oi5Lf9PLkwWs4vlNds2FgVJ1iiWTuiRlFE06gVElj9Bm1XJWV+2V0hP9tBNAo1n+exfHq8Oqs5qu4ohgFTOAjZlQMHef0ohsuhvmx4w1MCyv+Y0MJGdn0OLXslPWPbHSHPs/ctGocyiJETUe+CzgBAL2Q6zAHr2/tOVfcthzsLY/fYHgSQIFaLjUPRzAXRTj/KsZ6wO0PsLuBB92gnpP7QkhjSTU4jQgL3QH4cbzHsSq1N5VTS3zt6/M+qavj0HxA5oqumhPCxjmUdZ5j2/GdF7xDGBmJKywD70KBw965uiOVV/7H/FmYq+9xOdeudDqWidzCLBSLesPbDoT0cx9D/iHj/bTn3xg76mH2btC339XJoO/SsCwEl84YJN0iJgmeZiug8asz5FYBxr7lpk4eLChNw1YNpVYUovrfvXwf5MwaeEOdLKIAip5AhKK3h9dCtI0nQWeh6gthL6QqDne3/kkIwtgMHSTiouv68P4+6CgLxDiRdYI7brsROYCyX0eRWV8+LcOFKWyejtTxPQOYdgGUKwrItHz/XXgWjvTwIu4JFWAFcW0P6VjyBIAHySEEMgcYRxwRfy0SvOZ6GsOGCI07tgqJScQvQMTnuRGoI5hYRYu776lOvo98KkWJBwYMSy8OQs9OqjHEbkACClNgPuUV8Oc9z3IizEFCrrvXGcGsYRcMx6BDhEIiEQFaSN2xWgutmonz0BL/fG+QKus1495IsiRioogbDWISiLFHuBQg5s/W5x05XthDOf2o5/zI99zT/M2hc4e3xxajr6f3rIKEIY1wGy9guWDlcTF6ALLeM1gtans6xDETcCfRjuFr16nO7Qi+L+CNUl8pFHdMS73hOVkc9enVk27oRZHyk8tl/Ru8Uiih6jvzkmMj7pO1RcKF88yMSBZWRFT498cBikH33n9P7DN516ngjY7/3NYv/UTKMyySNFj1rpraTltWKpunpdADwXpM426hnZH2RSCVrKHYDVLFSBYcZgeTXiSw8kov2voOMDYnC9mQv7e/11gR25KGI9YmL4XH+hc9m/gAuDyRQqlv6QLfoXYFkaufgVTTsG2a8C9tM/iD6INMDe5B71/iZhXnOr+LS8sKkHQz8V6BrxRip6HFv2XNROedkPtMPv8k6m1htf+Mdv5uz6+j1r/5cxNeAaFcaV0+Z6LDCFa2c0EimGD4SBa9mIFFhYdowOrg/2Z3DqP5XiQiThdfY7uUDDC2L2QYR1eAb3o87UxwWe5gRZ5iI9/EBuXXt/zB0GFxPpT3bSB9zHyrNHgT3rYKk6IEmu96/hmIsd1LBVsmxqKjOLugy9gHC0Zu8JfMfAIDc6WwTmLuQiCUudaiHfxRNYEykAkjq4/tKwv+eCWpkrQA8XyK0njcWQkB5+9GPSiAsMZUia+1ufuSDJe0XemEuWSi1TuAqZS49N+viOSAyD2qgZH9ZJ9rcgc1FekKYuDqbvor/1a/obX0m/3P+hT3nwIu/6GtDSRUY6WnxhOApQH4z+uIC7oW078fx2+uvu1nbf9E+YW2985re+r537oz+f7eOaOOv66h9yKQBfNx9c3jClvRj7QfEsty99RPPmM7RSIJsFaMM1xlzAXOgL/WEO0NMufehBcR3pHaNd6qkWVdrJh1b9HCzLelMJZNyKGrhqJW9Vz+ysR8jpaSWshblq/xP3nOirDlJJQ08ZBwquvX9SmyWauYv120k3okLQKzL04dIHRyNeF/rC6G+QNvR0izLvBRDV6C9IMvS9P4uBT1OQQ/VcADDXhui+uWPVdbgoruDpWSnL0z4G5ZDKWnCW1050M17jy5gDUw5smTEX8KpjnRsq131JCDEHNPVEy7KR2fA5Hvpwe51y2N+WPetAvvevJtFnrgBia/pTbTZ7k5VpRDBVQWjEoN19s99vZ9Sb63p+mDXjI294cvvAj7+iXXHZFq2f89cCMNeNmCo3qW+MfQ60fKwJNkICxZDgeu0TagKBS5hT7qTPzfBAPTWiPlTYzGdf/dV+riW+XV9qDBu9TX8ArOdq62v2IeF8SFMsgNoV1LPySKt/+Z07+iz0ERe0ZiXZ3z6uc/8erS/oU0JrmfrP3D4fRRhL2AX6muHX0fuXTW6//e3DQT5zIayHXfQHJOKQlO6PuUgz9OEA6MMK1DAEmvohCF4FlHJ/xDosKrCnc/NcMo/oswZcoXEnzYR86ekQWL89ap3oRCW9EoL9O62cSZ/5IM/+daqUSPTj0Lp/jZf9yzJRJ0LWA5iLWF7vpGd/fum+kgtK+tcgvkWUy62LxLLM1KkCCs368ikx2N9j9D/qnm/xh1mfU3AdceUXd7Tzn/qm9ol3PJJzmddM3/PcyCQXiaVqs7RJsNqCLIq8Dj+Q4MZ3HjXp9gIMOyvMN0TNkMeN1aFQ5oEeSz0SKKu5qr9qlgoDslkUJNkUiC30/gXWsV5rXek/6QB04Rzta2NX+sNyLHcBhwOto4LsJ132BFL2nzSklk04mr4mWMeWgKKAcFKQ1IFeGGQtmRMU2hOgLNLlza2URwVkXMt6YdITFReVlnUcTq++J2U5pwWw1qFLWu3QHyb9K7kP/QDWSsMzTO6J9Wv6V9yVyw69+sdO6wfBLsF4ArYOpdboL38JrF/3BrWSJRut4FSh3n/WSyQS5xUOMGr1/YfP6FSjwP7WZ38yJ6qohyM/VTqQZDzWMQOhDFGfFfBjBp/4tHbcY559QD7M+vLHj23ve8R72kV/cDuvFZOsedWBuWpPZDdiwnD0qGgliAVeG2MQA+Ajo/2ool1bpzm9Sh8PUO+4JjX1ry8p6+pQEFf9By/zmesSsw94vPfKkcgDJK3invlaeQWQ22f/OhNfwiK78DvP8d7bYQI8OgmiT12pd2TWFy/MniCGPu6a/kNpjhJ0w0X/OpDRfLu81xMfF7+I4E96J0d/o48X/H3zen+iRvXFYZ0KK8f+9jusW+gL0bPGpOm+aNTNbzjZ5+gVVk4p8wIQkFjV8yos+y+h9U/9p1XmTG1lCqESGLg/49b3ekoF9MODrA4oyA+P5TTruQ4xDyWku+AljpDrrAIUALrNey5sp7z0B9oRdz1wH2b900N/pV1y3tdxYrwf0zGgWfOvCHCfNZTvtTLGuBfO54E1yqkBFsw8gVaIl5sCQI2XjSEVLxsNCbW4kq8c++F0BbpAJeB3DpH+DqA2XWwAxrgI86+0AEbR4kB0rC1cpl2G7IlTgJZ1E0lDi3BSFLX0gPYDp/3Con/RsANIWcIc58QBrq4aEomKs7cadxNfLiME+5dW/cvPfOrAmBKH2Z9pceTiKj1969XMvJXQmv4F9u9Ej+vo/XtsQHRF2L/8ns98CotYocvqjCLr9YBczCc9cfb+DrC8eyz6s437uydhXwph7f0vWM/+sDUacxGLMcfBV3+MaQwMKi4iSLQzJXzWJo8jy9y/Yvvtz5FKY6Cx9BqhkJkhBRXPiCkDPfG17aSrx4dZV3z2yJqn1h9gzMMLSI7/DjY8BOFz+Vg/YswoJpE33iJefWEefgoANbZXvjl0cXMERxhDWnIsIElM3a51qmMOUVowEugLGH2AZX9lUoL969BGpb+y6glv6g8OQkA5qo2TFeSGQRG+NE4f+tDhq6xqSB8mMPqn1JR1QnXqrHnxhcascgTSsJVKLUA9Zelbzx7OqT/G8Rm21aD3Lwb793GA8XBjx1rcv6D9R9LjOjWfqT8cQhxp5ae/RoDnE8C1ntG6IB0F93/mZz4amGV4wLQ50I9qwNzfjY2EYdmj0n3/O7IfcOe5KIaR9Exr/RXtNCD6eS5lVynA2H+NATI5nvrb4sqzLuis9iv9ux5ud2wL4NuFftbu/tbfb2e89sB8mLV374b20Tc+ub3/x1/OD7O4fYt5a4w9wZzH/uPvYPsqFMAVERIZEbmz4HvAh8hEPVBGCnT0SmrcU6ibAXJ1RbpCmBdUyMYCy7ngqlHvH7LntYosnNe6jPUrhpMbVQfnklidAPoMv2C9yxrSd+FUIPMMPevEBRan9kRvwFxGBTPNzAlMcHt/XgGRtS5HR1LzRE0NycvcYdSzCIjDd1xdrDfkikEfSU5wpf+MOQRqHVbT6vlyf/iiTf1HAcbdJxXCJt9zoR0VbAWuH05dYFHJ6j6XPifHUote4rwCyvdo+pu3nIvT9mHZH2nGNZdFz6lW51YoNeAgJkp0sXCXfrJBT9fJdSM2MTQXIXn6tnB6/84dmhErQJ8C5kxZUSt/5D1+rp36ogP3YdYFT3tj+/jbHsmx9p9uzRXz12DeI61fz9VG8KlBwFpSa+w6AguloDJkkOw4/X2j51nXD7XtPFHSXEcRY8rrMjTDL6ENkXShc8sMLvrr0GpRp67QkweB4QGvJvU61NkXTTZ+Yd7NRX80m2rBsH1ZxQL5DDnO66yHPzdd0xMOvkZcL5ih172BnXnFgQtTNrV0hX7ESHAsDIyTRmieC3rRTc2yeeF2HjjkwtThsKwqaN4Jgl+2E/llWC+R1aCKwf51wI7+AiWMa0xbc8UWSteDsiEWulexKUyt6BWErQMhWByB0+QlSq+CipeNQ8DGd9j5QfGc5drKYXfmPTaX/cOx7f0xGI78gD6ZXYcYqXCnPt1uulzfmfXYA/OdWf3DrD+8Hee3+lxwzrUAPq9YSxZjgMW/g6WHgC1R7L74KTGi0mmcAjKrmPVjFpiUbISL/gVkmHWC48iNZf+VAoY2x5j0gy2PfZgXCb3gaSPVSZkBzSeVJv1MZjiDRViwkxtGdtmc2SeknBYqQTeF+vpDMFh2xOIv7+vaMXhznDFKeSlM+wpE34N2Kj6Hev8+8YpVCH3Cg+39Z14sneKXTTb3LxyTCst5jmjBA3Tic5JxWbxwMFzdl1WrtPQQMqcCOuf1FxACelnIoCdPSdgcy/7JF6ijITIP1cfFZ+9f10rKXwIx6Jnllw54o39FPHldxXPb0R+G17CiB5xPaqrH/h7jO7NOfekDDtx3Zv3DN7d//pFfbV88/4bT+j17ftUF860jz2doWoGsfx7sMkgi4rYsw4WD6yqIV4zNRVkgk4LFJKgvP2Na6+sLpViCXSBF3HokxfVYLFqyEgKcyjzTjw0Q9xj5WLaAFDRrWKHXYQV6mQ+T0Iu0RMWYZmqZjJ7zsMWBDpyDOaDplH7RHyNY65UBA1AuYVrA6cwHurH/FSsflHlPYoFKK5ZAWXIVFIGY+kevwhiKT1d6cURiiczJHNPVH7Hoy6o/B3Upggp0juIBcoMqPQLyAc3H/R1PBfYqSyr1ZWzrikuBFaljIieRHA0tpwuK9eqPHPqPE1HeK+TMjR5WA4aJ3h/c5ExmjhwaU8RJifTlURbS+VkBD3JZFoBMqCA4Yky5TNbjLilHfFGArSece2A/zPof92jnPOad7bLPHMG54b5o/6f1w3pPsExP3TldYPnPtDoQhEWwxFgwigDaBPl8EOiSLdAd4+hi1TWPEOK46uYFYIiFi7jL/sKQjFiHQ+m06F8uR7HoTwtgszqNY9jU2Xf/GRUFBWe54YwVCyNe6L2E3t9BmL5+Xgs17JoeNDhGAejKjQXMXd2XeX6g4AlgpC6w0a/uCxIs2RsEapRwT6/2t4UXaP3jnsBCD7voT8f9Z6iABytwXDVYxV7BLnqzvyeNK3iwfV8KsXMrxhDAOS8+/uq+yCyAHuxTJElhxVzdF1ym9s4hgrNGIaWhJ+tRD3deoffHgd62zE39Bz8AE6gIgxj5pL5O7gtyGIYfaIQeu26O78y6+4H7MOsNT2kfeP7L297LtnLqy/UjgJFiXuwCY/ni6n+VLcCyWDayLIridJYxpTLmcILf0Qu0dbKG9bJDb4pjrAiPVwSUF0kLVS71aBQatsNc1im/9OqrmOYDny5j3ssO5evKHEmKRwRGd8tZ0QPi4ozveWA+OJSiv9/+BaYm/bwfQvlzCLbO1AdSa7bsa189cCnPWlNdeujEnQixhPSpQZ8hceY6qSXLqgVZSuuCU9s/dJ3BJIMiAfNGQoJzRU+Lg7XmPR2QVLNVi+jTQgxkyVrRk2gNEJeW86mzDva3RZlw0I+n6NLZ9vbOKjf0tAjyHCEiDtPey/LH/is+zsrV2oZsaJjsBtHB4omECoSqscH+lh15z59rpx3ID7Oe+qb2L29/OMdYY19/HXlGmOOcp/UUuoucLYL8HWxOFrBQDxvKkr6EyPInpDEKd33ZXsESTU4TAY1n+VpA5cxBUHVW21UMAaRyFrARAwr2/lMKkUV/2/SAoQaWBM1pYCIjj/EUWvRKfsKyP0aaY+9fNgplFiUhot4DnwWEWMh2mAXQs/efruxbDnMWxu63PwgkQagQHYeinwugm3qUZz1jdYAeC0SfdkL6Dy2JIc3kFCI0GL3qcIN5T2J1Kq+K5tbZ+3dGXRf9FR12QFNND+VhGcs8yjLv+c2I3iOOCcSUlAX2oUfh6FnfFM3Je1NxpqLv/USn3vlQKlons7Ywtqw9MPffsPnydsJZB+7HDH75X45r73vke9qFf3jbmiP2H7MfxyqwpD5/nwSF0mfd/B0sTycp6AWw1WXh4sKE3DVg2q1gSi9tXWHqQJ7yCvRSvMhHEFLJEZRW0M2XW0GSprOw2AxqK6EvBHq+90cOydgCGCztJMP2+/oQ7S4YyDuUeIE1YrseNTEXSujzKirnxblxtI/+9qcJ6JxDsAwhWNbFo+f660C09ycBF/BIK4ArCyz3f/JJQgyBxEc481juPx5EzQXEcMLqWoaVW9M/WlvBnEJCrF1ffcp1uIu08EIuEg6MWBaenIVefWA16s1AItFx2FkPt8ZZS2chplBZ743j1DCOgGMhVwBDJhJCTkFaez0tuUajvu4JwPVDhzguBVxnvXrIF0WMVFAC4dE/FZBKr027L2ynvvQH2uF3PoAfZj3sV9ol595Qs8cXpj8d+vL+wB8LwpAnL5XnqnAhCf+jATdiFlcpJkmta1nneFG4W03AcbpDL0rZSR/5yCM64l0PTUFGPnt1Ztm4E2Z9pPDYfkXvFosoeoz+qaEs45O+Q8WF8sWDTBxYRlb09MgHh0H60XdO7z9806nniYD93t8s9k/NNCqTPFL0qJXeSlpeK+YKRPJrAJ4LMkuL9c9qIfuDTCpBS7kDsJqFKjDMGCyvRnzpgUS0/xV0fEAMrjdzYX+vvy6wIxdFbF1RkwlnrAc6l/0LuDCYTKFi6Q/Zon8BlqWRi1/RXgFB9quI/fQXzJ1CXWtgb3KPen+TMK/w3YWg5YVNPRj6qUDXiDdS2048t53x+ru2XTf5UwXWGePDrMM5J64k6/esYXn/K7ncF9kK6sTYHI6t13/bXQOGIgqbVwsSUrhbTqR31RgHdKJ4wpVLb5YqB3kp3d9+JxdoeEHMPoiwDs/gA1Fn6uMCT3OCLHORHn4gt669P+YOg4uJ9Cc76QPdEK0bYM86WKoOSJLr/Ws45mIHNWyVLJuaysyiLkMvIByt2XsC3zEwyI3OFoG5C7lIwlKnWsh38QSt3wNI6uD6S8P+ngtqZa4APVwgt540FkNCevjRj0mH4xCGAGnub33mgiTnSt6YS58+tDDkCpmLLNyhj++IxDBOYaj+8JVkfwsyF+UFaeriYObS5zTp1/QnsOYy+9Ev93/oUx68yLu+BrR0kZGOFl8YjgLUB+mLD7NOf+3d29bjPsDxemLxYdblW7UGrMXLwJiz5lSxf3hOmJqXReiedaEvOEXYGCIUWvxIzpvPULoY2SxAG64xJqc2S35/mAP0tEsfelBcR3zHaJd6qkWVdvLRu+sJv4CmEsi4FTVw1Ureqp7ZWY+Q09NKWAtzpT4NKs850VcdpJKGnjIOFJSeLq3mA8iSZu5i/XbSjagQ9IoMfbj0wdGI166P6f0N0oaeblE4lwlRjf6CJEPf+1s/2smhei4AmCsz+wVzx6rrcFFcwdOzIiXmkjhAKv2hyZVQAbkZD+MmVsCWM+YCHu559axc90UlxBzQ1BMty0Zmw+d46MPtdcrJHsKyZx3I9/7VJPrMFUBsTX+qzWZvsjKNCKYqCG1oR97zzQf8w6yPv+MRXrPiXAnWz/kryL1Ivuz87BAVTJ7OGNhu0HdyIRAxfZQAX8NeMY2B3AwPNBmNqA8VNhOd9TViXO3nWuLTBZ2SGtO33mZ+ANS/EvU1+5BwPsVhfzgG1KnAnpVHWv2nzQtrVR9xQWtWkv3t4zr379H6gj4les/4Mzc512QsYRdgTwTho1/6l01uv/3tw0Fe+yom5sExtK7ZcxJxCJdR+mMu0gx9OADqsgI1DIFGPYPgVUAp90esw6ICezo3zyXziD5rwBUad9JMyJeeDoH9s0etE52opFdCsH+nlTPpMx/k2b9OlRKJfhxa96/xsn9ZJupEyHoAcxHL65307M8vPRfkgpL+NYhvIuV0QXRMF2TqVAGFZn35lASbLmsnPPGp7bgffc4B+zDrnx/xi+2iP/puroXr57TnNXsvpnknp/U7BR9xpux3DD2/0SCbbHblIIATy7CzwqKpJ6Qbq0MhW/ZY6jFC2SxUZcAoFQZksyhIsikQWxBXYB3rMRfoF/0nHQAl52if/Yu76A+bHit6pidoHRVEP9fKnkDK/pOG1LIMl8M5l8Ma1jNLOwOKAsJJQVIHemHQ+3tOUGhPgLIpAZ2ozqMCaqAWjNdETHqi4qISrAOnLunV96Qs57QA1jp0Savdav9K7kM/gLXS8AyTe2L9mv4Vd+WyQ6/+sdP6QbBLMJ6ArUOpNfrLXwLrn+5VjxYUYqHef9bTrThy1g+MWn3/4TM61Sgs+sMmBouBUgLzK6tAkvFYxwyXbpv2fLad9rID951Zn//7b+GHWZee/3UccxU1L61VPizG2hPnbGdUqF8rKZ8UxOCgGIXjfzToCRgiBWRmsKHjfVIMKC6lm5oHwOUUPOHwNNbCFlgZZnz1/3muSmiYIPrUlXpHZn3xwuwJYujjruk/lOYoQTdc9K8DGc1XUSD1xMfFLyLyQqSSXu9vcNjPkVvLm/oTNaqv6BVWjv3td1i30BeiZ41J033RqJvfcLLPGcpqoJQTAQhIrOp5Fdgz/WQ6tP6pf5+/Zsqocy6xUgQD92d86IPJlR8eZHVAMfNVzv3nODAPJaS7qmccIddZxfaTzuV/63LgPsy6Zzv3sT/P78wCtN6aac2d92M6BrAwLQ3gyH7WLwY3oJ/hB9N3cqFVjTrfzBovG1cIDxbi4Fiil2RdES8POT5/OF0BLitVgn44hPvzLLg2LtTwIsy/0gJS1ZV1xWftnnW5cqNAdHAK0LJuImloEU6KopYe0H7gtF+kRf+iYQeQsoQ5zokDXF01JBIVh54XDLtGvlxGCPYvrfqXz9qgakyJw+zPtDhycZWevvVqZt5KKENgvjfxgYx7/8QwNkRXhP3L7/nMp7CIFbqsziiyXg/IZX/3xNn7m8by7rHozzbu756EfcsJ7T9S09qs1/rdHz45YjHmePSMK21gUHERQaKdKeGzNnkcWeb+1OynP0cqjYHG0muEQmaGFExzYaqw51t/78B+mPX6s9v7n/fStvfyLZo2pu8jewwkRk6h7z8H/Op6Rutr1osJPRIjp+/k8oVB+OTiUqixPai6EBYTYjFFGENaciyAYYwYo0sdDEbmELj1NUjAEw0/WNMfPq+K4UC893dWPeFN/cFBCChHtXGygtwwKMKXxulDHzp8lVUN6cMERv+UmrJOqE6dNS/eKGaVI5CGrVRqAeopS9969nBO/TGOz7CtBr1/MfSgZBxgPNzYsRb3L2j/kfS4zjX94RDiSCs//TUCPJ8ArvWM1kXlxeH+z/zMRwOzDA+YNgf6UQ2Y+7ux0cNl2aPSff87sh9w57kohhHTdWLpXH9FOw2Ifp5L2VUKMPZfY4BMj3t/W1x51gWd1X6l/6TvxB4ogG8X+iPu8eZ2ygt/+AD+n1k/1T7+Tn1nFoA1c4bYvsW8NWYe6cpr/5kaVxoQMhBH6bpQr7zuf73BqiK+TAaQUTUjubzwPCyMiSJXV6QrhEZQIRsLpLF8XDXq/UP2vFaRhfNal/6gFBDDmY3MXBgDoYA+wy9Y77KG9F04Fcg8Q886cYHFqT3RGzD7V9Bt5Msjt/fnFRBZ63J0JDVP1NSQvMwdRj2LgDh8x9VF+i2Hf6xt2HQ548p4Lkhygiv9Z8whUOuwmpb3N/3hOz76jwLw0icVHBXfc6EdFWwFrh9OXWDVS9zMpc/JsdSilzivgPI9mv7mLefitH2A/ZFmXHNZ9JxqdW6Feg2nRYkuFu7STzbo6Tq5bsQmhuYiJE/fFk7v37lDM2KA508ojiu/Mws/ZvAxB/bDrIv/6LYca8/pLn3OX4N5j7R+P1fAtOZZD1DPtDikIm/9xiQHcd/o+bJ8aBSlnSdKmusoYkx5XYZm+CW0IZIudG6ZwUV/HXpJoE5doScPAsMDXk3qdaizL5ps/EJecsCiP5pNtZxByrFAPkOO8zrr4U99Zr/XKjPPhf0zf9SpQ/sx84oDt8z2M/6ynfqy27br/9i92qbdn1WwMOqrjge2qG+37DwX9KLrGCzmhFHnAeTC1OGwrCpo3gmWB9uJ/DKsl8hqUMVg/zpgF/0LlDCuMW3NFcuVrgdlQyx0r2JTWFtlPW0dCMHiCJwmL1F6FVS8bBwCNr7Dzg+K5yzXVg67M++xuewfjm3vj8Fw5Af0yew6xEiF6z4bd3/mgH5nFj/Mwo8ZPO8GmnKmWsf8XHglXBKfV8SyGMNSrZHFYFJUFaSpC+Ksg7EYODfm8SZsVtE3FOizSLGhn2kAMsw6wXHkRu8vImOr0OYYk36w5bEP8yKhFzxtpDopM6D5pNKkn8kMZ7AIC3bYhyg2SvjMPkFHLS+FStCNrK8/BKPCy/7y5/uCyOoYvDl+yH/5pXbyc+/eNu35VNv5DX/cTn7RHdq2Y89ljpj0gntW3B5DvX+feMUqhD7hwfb+My+Wjh7QZHP/wjGpMPUvjGjBA3Tic5JxWbxwMFzdF1xMc17e/Jy4gM55/QWEgF4WMujJUxI2R+/P2skXqKMhMg/Vx8Vn719X1lgLxKBnll864I31V8ST11U8tx39YXgNK3rA+aSmeltPPLfd4PV3P+AfZl1+Ib4zC2utYJ3L+18BThkJjfN8hsb0ZGf9iBYYxtj54jFbF1ic+i9jkGdmIEVhMQnemPIzpq0YbH1xMSmKMS4ySorrsVi0ZMENnBqLVj82QNxj5GPZAlLQrGGFXocV6GU+TEIv0hIVY5qpZTJ6zsMWBzpwDuaAplN6T99j97deGSgBVmAaYct7OvOBbux/xcoHZd6TWOCoe7+iHf/4R7QNW76sQGHrMRfUm+yd2s5v/APqhbKsCd9WhTGssQqidnZVsRqRlz0Rx3TmGIu+LOeqYF2KoAKdo3iA3KBKj4B8IDuAMUK0zCgH31RazonjwQJYbz6J5GhoOV1QrFd/5NB/nIjOz4o40sNqwDABnhMjZzJz5NCYIk5KsA9OHGUhnZ8V8CCXZQHIFKgTHDHmnFUeJwwHfHyYhX8pcCA/zPrA81/GD7MwN61VFveF68fBsePeEywLMUA5XWIRBVfQmHHEwku6gDHrFvifHg4oCKRgL+wqqaOwbl4Ahli4iBt9GgJDMmIdDqXTon+5HMWiPy2Azeo0jmFTZ9/9Z1QUFJzlhjNWLIx4ofcSen8HYcb6aRjsmsQCjhWkDNyQzV3dl3l+oOAhYqQusBsP+nI74QmPaEfd70WIrsGmXRe26//Yfdqh3/NWR6b+k13T31ZdBK1/3BNY6GG5L46qJh74FaiAB4FUiXuEKvYKneIXUN8b8WD7vhRi51aMIYBzXnz81X2RWQA92KdIksKKubovuEztnUMEZ41CSkNP1qMe7rxC748DvW2Zm/oPfgBmgevXuJ/U1+n+BGsPHHkvf5i18/OOrB/mD7M4/ToxZa0dvmaq9TNRUMyLXWAs39xJvwDDy1hGkkm34Unfd9mClQc0N2SI9CsAYxUMZ0b44nSvzn3xK7eiX0L6aFbnlPl4QIs1gT66Flb0A2YhNIouLQx6YlxB9Vff/a6/QpmHoILKjeS+9ITosjYYApqL5zHpQ1cPtFAOfxVw0lMf2Hbc4C9B+1fxqV99VPv4W55V2vp117V7/7qwbx15Ea/tP+UYcaKgZafaxBmhkIYFbMBZ0x9J0qcYOF7/DLZgDF5aTMVRCBaxuf+EOTUoK3Oq4P77x1nqFTQQ3F//OsmMUzZ9g3keM1bnRDmHKRZkbG4k1s9MfJh13OOe0Y648887sr748seOb+ed/VP9mweA/e+/Y17avjjEQj/tg/WVUghOjcMKIFNKGX/IJagAsiAhUdMqOxcAMgEy6sKzfLWjXHrmkEFtGqNinIlcnoXoBQV7/ymVzaK0LhjDpgeM1NIjOeRUDTLyGE+hRa/kJyz692PqXzYKZRYlKyi9Bz4LCLGQ7TALYE5z/1zZtxzs47YT/6md9pLb/5vfXIEj7va6duLTHtg2bqvfiaistgeYFoBu7F/J7C9jdYAeC0Tfl0tk/UNLYkgzOYUIDUavOtyAMcyp/LE3igOqGK44S0ZdEVNSYyJ2QFNND+V7/0rGMu/5zYjeI44JxJSUBfahR+Hotf901bcO7k3FmYq+9xOdeudDqWidzNrC2LL2AD/MetkPHLA319XvzAL6+rm0cawCS+r755OgUPq+7rE5g0eO9VMB9ofPMtW5/I3cS8BBgiTcpgrCkpObh5AKyWeKPoSQSo5gtID0citI0nQWFptBbSX0hUDP9/7IIUkuU2SwtJMM29f6KBAJoBB5hxIvsEbspMfR9yJXUTmv7E2yTEZvf5qAzjkEyxCCZV08eq5/tT8Juuy+6f9up7zge9uWoz6EwL8Lu2/2P+uPe3duW474iKZZZ+ax3H89ZNmbcMLqWoaVi57BaS9SQzCnkBBr1xckGbuLtPBCLhIOjFgWnpyFXn1gNerNECfRcdhZD7fGWUtnIaZQWe+N49QwjoBjIVcAQyYSQk5BWns9LblGo77uCcD1Q4c4LgVcZ716yBdFjFRQAuHRPxW2nnhO+7o33K3t+qYD82HWp3/zXv3DrADT5ezxhelPh768P/DHgjDkyUvluUJcSKoTXyF0/bjX1CFWJvsPvfZ/L77RgAoXHQkERC9bQoaKkLojT9nwo3czGfns1Zll406Y9ezAL71glp0wL3lzFD1Gf8/RRMYnfceygHmQKcj1w1no7ZEPDkP0oweD4d5/+KZT3/vb7/3N0v4r1huVSR4pemUPud1b2klPu1/buOM//o+7t13//7VTX3qHtvOMv+l9dO+WyP4gI09z53wcgNU8VYFhxmB5NeJLDySi/a+g4wNioGefC/v7Oa0L7MhFEVtX1GTCGeuBzmX/Ai4VzL4TFUt/yBb9C7AsjVz8ZQWI6lIRGOsHzJ1CC20Be5N71PubhHmF7y4ELS9s6sHQTwW6Bvnd3/q/+X9mHXTsBx1bP+jDrKe2D75A35ml2FgvV5KxZw3L+1/J8BjPoirGE2NzOLYeiJ6X8pXRFeEuL7vaX/9Mq3fFl46iqWYhE1OBFFPeyslHEZMLNLwgZh9EWIdn8IGwnh34pQmDPuaiHPxAbl17/1JKpDhAf7LRewj0/uawZx0YaS6KAb1/Dcdc7KCGrZJlU1OZWdRl6AWEozXjBaw5sRLraF4MbLyyHfvQp7fjHnEW/a8Wmw/5RDv5+Xdre77j1zgPrj/9PZe60A/o4VInp1cgjetAQnr40Y/1h+MQhgBp7m995oJk7+84gBDl0MKQK2QusnCHPr4jEsM4hWFqRc/+FmQuuFpqTV0c7HpbJqxf05/AmsvsR581A339daY8eJF3fQ1o6SIjHS2+MBwFqAeOvNfPtFNf+OAD8mHWFZfsbBc89afav7zzYRxnTthzrgFr8TIw5qxJwv7hOWFqXhah+9eFvuA0AQDZoex7LMKbNrd2n2fsYRnNZjxf/V8RaMMtrkNtlo36wxwUv2fhQ0+JouI7RrvUUy2qtLOP7tETfgFNJZBxK2qk4oDeqp7ZWY+Q09NK1L+01KdB5dFfctVBKmnoKeNAQenp0mo+gCxp5i7WbyfdiApBr8jQg7tp++fbiU99QDvsTj/F+FWFDVu+1E4860faUff+CY17fwGz1L3yXDDHDAp9uX3WZecCwKSv6+QXzB2rrsNFcQUP/enztG89qfSHJldCBeRmPIybWAFbzpgLeLjn1bNy3ReVEHNAU0+0LBuZDZ/joQ+372PZ7CEse9bR/TqxP9FnrgBia/pTbTZ7k5VpRNA28v/MOrsd9+jnXiW/eP97gQ+z8H9mXfRH+D+zBM6ea9aYK8H6OX8F571AaH52iOh51sU6BQB2kQuUfrX/9t0b2qPeeGj7zvvt6HLMBXmw9QZbmdUb01uVw1zZTFyQhg2tJ8ynCzolNaZvvc2Yrns40X181Zn5sD8cA+pUYM/KI63+qQaYtaqPuMAenh/728d17t+j9QV9Ssw957l0InKuyVjCLsCeCMJHv/Qvm9y++h905Efqd5p3bru/+X8x87XA0T/wonb8Ex5Zv639kvprEpwnp++50KWPQTngYf7KaE2IdVhU4Bqdg5wu6RF4/SbhCo07aSbkS0+HwP7Zo9aJTlTSKyHYv9PKmfSZD/LsX6dKiUQfAtFIZKrGy/5lmTDXegB6scZ6o2d/fum5IJc9pJ99E9FBLmsppgsydSIODdOTvvyNuz/LD7MO/94D82HWF/7uZu2fH64PszBNTr2QdWra85qxFK8F4NKU0/qdyjqZIgmOMfSUuB70DjN+5Emb21k/f3j7ultuTZTXcf/q1yM2dQEldKCdJq7CGOMcUJEsVGWswsAVZGxTILYgrqA60mMu0C/6TzoAyjFX6dGr919YuQs4HKQ/+KmVPYGU/ScNqWUZLodzLoc1rGeWdgYUBYSTgqQO9MKg9/ecoNCeAGXra/vpf9NOedHt27aT/p/jXzsccutfaqc8/x5t88Gf6tPHPPtSa8T9QZRrwlpgvKeccxcaZBhYKw3PMLkn1nNPZlTclcsOfdr1ecgpF0G5BOMJ2DqUWqO//CV0r8ez0qMgq3zlev9ZT7fiyFk/MGrl/tNndKpRWPSHTQwWA6UkY35lFUgyHutYYdtJ+DDrrgf0w6xzHvfOdtln9WEWppe5cxU1Ta1VPizG2hPnbGewRiUYZU56ZeDUKeFCjyxO4IxvO6g9qd5cjz55syPIoaaO+Pw7WE6qDhZGbdMTCuAiNzfEVeOq4HjHyjDjff0817roRIzXfcgrsN/+da7pT1hkF37nOT76a5yEhgmiT12pd2TWFy/MniCGPu6a/kNpjhJ0w0X/OpCB/uBb/lo7+bl349+VrhfwT75Oe9kd29bj/8mRmg2WhSnWqalqvtMKBryWvv6wMPQ570X3RaNufsPJPmcoq8F+++/jBs4s9kw/mQ72r2Pt/DVTRp1ziZUiGLg/40MfTK788CCrA4qZr3LuP8eBlWGKr+oZR8h1AHyYhR8zeHX4MAtTVDwW86xBJeY3NcYACqSKhqNJD18MXJHQGX5H54kBfPu9trcffdOhbechy+/TYv9ZXz7/HSwKYKK8lgEHk+Dzh1NSutRXgn44BGJdgKRdbADGuAjzr7SARnVlXfFZO/ECy5UbBaKDU4CWdRNJQ4twUhS1fIA6nvYrsehfPOwAUp4yc5wTB7i6akgkKq4+JneNfLmMEOxfWvUvn7VB1RiSI+75qnbCWQ9tGw66lLn1BP7p16kvwV9J/I7nOKCper5ef89j7LUsYoUuqzOKrNcDcrE36Ymz9zeN5bNfrO0KbOP+7knYt5zQ/iM1rc169oet0ZiLWIw5Hj3jShsYVFxEkGhnSvisTR5Hlrk/Nfvpz5FKY6Cx9BqhkJkhBZ7Lkff66QP6Ydb5Z48Ps4DFXmL6PhIHEluz/7hgDL8vtRzQJr2Ya/XkyWsb6/30+87a3e7/nIPbpi3gL9H7F6gvl/8OVgX0onacRPZgElK7FaTPpDkEbn0NHOdq4JofZOKwqioabcVwZKKiKque8Kb+4CAElKPaOFlBbhgU4UvjWIA6fJVVDenDBEb/lJqyTqhOnTUvbTTiyhFIw2Jqc3jS07eePZxDtbbpy+34x/xou94PPI+xAwX8E7DrP/MH2+F3/llHxvzjc/1YD0fA6qLr5KKsqAvSUXD/Zz72o4+n+w54wLQ50I9qwNzfjY0eLqv9r6/sf4f7I7SYiyyuTNeJpef+dxoQ/TyXsqsUgP07XyDT497fFleedUFnt+/1BATimtgDNcT/mcUPs368bvKB+jDrF9vFf6wPsxZTL2DN3ANs35wtlxnk6xz7nxq+wmTdHIijdF2sR1j3P7nWtu3c0B7x2kPbbX94pwL7QOaAZ4/9S6t/B0sgiMLsY6LqxwK9MX1cNdIDTScF5K8gC+e1LlyQgRhOxHBkLoyBUECf4Resd1lD+i6cCmSeoWeduMDi1J5oo9i/gm4jXx65vT+vgMhal6MjqXmipobkZe7YG/UsAuLwEa9z467PtJOfc892yHe9m9wDDvyzsIc9tR3z8LP5FGkJuOLUDvaNy6IJMYO1+481i8tnjfvjPXEsteglziugfI+mv3nLuThtH+BdRZpxzWXRc6qle0UXKsFpxaMb+kX/8pMNerpOrhuxiaG5CMnTt4XT+8/BYNIjnvlv2nNhO/Xl9z9wH2b9/c39nVk3cGTMWnu+D5/z12DeI60/z2RhZc/6phWoZ1ocUpGf9Ecct6md+c7D2jd8Zz7M+gpA+dKyf/n8L2PmibKfK0/zUCKGl6EZPqrLEEkXOrfM4GIROvSSQJ26Qk8eBAWONeDVpF5n9kWTjV/ISw5Y9EezSe8MUo4F8hlynNdZD3/qM/u9VNl5LuyPvr2m9gSj8LYed2479cV3aDtueGA+bPhKOPxOP9dOfvb928adF3HftNDyYLNouPIKtSpTEMRaGc36y3L9ZRMLKGFcY9raP2yhdD0oG2KhexWbwrpl1tOaCRsfcJq8ROlVUPGycQjY+A47Pyies1xbOezOvMfmsn84tr0/BsORH9Ans+sQQwQfZt3g9Xdpu278Z4qvM/Bh1vse+452+UWHe7WaLqeZqdYxPxdeCZeE1xBjXPdAajHMYjApqgrS1AVx1sFYDJynfvOW9qRfOLwdc5q+seErgc9yShdQa2MaJTADGWad4NjiQC+QyovI2Cq0OUY58QdbHvswKQZ6wVNcnZQZ4Hx630k/kxnOYBEW7PCGEcVGCZ8qP/XnpVAJupH1eYRgVHiOZC7ZVwCR1TF4u2/8f9opL7xjO+h671fiaohdN/29dupL79y2HF1zrIn3tfLmANP9L4xowQOslc9JxmXxwsFwdV9wMc15eXrBeXdVQGcRGDMQAnpZyKAnT0nYHL0/aydfoI6GyDxUHxefvX9dWWMtEIOeWX7pgDfWXxFPXlfx3Hb0h+E1rOgB553a/W36P7MO1IdZH3nd0/hhVsN3ZnH9ApbJpda5vP9IyBPf970QGtOTHfevXwSGMXa+eKHA3uLu29tjfuawtuvQ5YdZ+0P6zHeA/0wLcS7IQfIQp1FSv0qkCFm0ZMENnBqL9kOLBohbj3w2hy0QBc0aVgC/DkQZT461ZDlGYkbFEEZc+oHoYfMrHw504BzMAU2n9GzpHFmw6c8MlAArMI2w5T2d+UDX+4NUPijznhx6u7e2E595X/7u8OqOrcefU3/EvFPb8fV/ofUAsYQ2gKFyuX4G5APZAe2J4qmgfbHelveE48ECWG8+AZALGcIyBIr16o8c+o8T0flZEUd6WA0YJsBzYuRMZo4cGoKxSqcE++DEURbS+VkBD3LZ8ipGIFAnOGLMOas8hsGHWae88EEH8MOsn26f+Pkf4UxnYG5aqyzuC9ePg2PHvScogBignC6xiIKrRhozzph5KWDc5fG72g8+/+C2+aCVxL8ClayCqFvjjQgECPRelYDlxAoUGUMyYh0O5WGNnqsol6PYIjtbwGZ1GsewqbPP/iNUqCjGOMsNJ/pgxAu9l9D7Owgz1k/DZNckFnCsIGV1pla4q/syzw8U3JaNG/a26z3wue3YR5zZNmy8QslrADbv+Uw75Xn3bIf+1/c4Anh93sCsdnFfOsUvoL434sFiX6KI7fekwBgCOLPpsPFN7imZBdCDfYokKayYnBc9a+sytXcOEZw1CikN05/XERY06P1xoLctc1P/wQ/ALKAHgxj5pL5O9wc2bLminfSkp/DDrA34NrR1Bj7MOocfZt3GEYHTrxNT1trhY/6Ia1/w5Uth7dwZQVpFZAvQL8CwYmJodNCODe1hrzqk3f5Hdin470Rv4771O1haLUyuUAHEOLE6tVCR8RCQDaPQsB3msk75pc8iZfErEny6jHlOfSLK15U5khSPCIzulhP9BM0VJygi02I+zgLwen+DSvdkyj5i834I5c8h2DotIVJrtuxrH3bj1kva8U95YDvi7q8h55qGDZsva8c/8THt6Ae8RAGsFcutxa1ZPw6uW/ciL6YALO2Qt7bra0yqGMiSteYGVswaIC4t51NnHb0/g4ODfjxFl862t3dWuaGnRZDnCBFxmNZ9h8/+Ru/Ns3K1tiEbGia7QXSweCKhAjSbD8aPGbxfO+xO7xJtncHvzHrYr7QvXqAfM4hZZtXjnuI6rb8O3iMsALmy3A8Nie4iZ8sgSTiHXrFilXGEzmHHbGxnvv2wduPbbHPwP4a+jDr5O1ieHKsdrnzYmUOmYkoZFUMAqZyF6AUFoZ8fXCCbRWldyADFnJQGNI/ie6zMREYe4ym02ovJCYv+/dhPf3tTyQpON4t5sxFiIdthFtDDMfrnuvnQf2mnPP/Obc/Nfwu0azSOuu8r24ln/0j9gnHptAlysNq8aPJ8MeY9GXujOKDdDlecJaOuiCmpMRE7gJbL/ZdlLPemLPOe34zoPeKYQIyD2MI+9CgcPeubojl5byrOVPS9n+jUOx8K+yprC2Nb/O0nncP/1uVAfZj1md+4N78zix9mZf28Clx/zVdLG8cqsKRZ3xkUSt/XHVvoHjnWu8D1b7ylPeldh7fjbvCvf5i1f6gmr66r38HW6XaJawJ1eh4F3Xy5FSRpOguLzaC2EvwSKXltJCk8xWWKDJZ2kmH7etgoEAmgEHmHEi9kE1MrehyYi5S+isp5cW4c7aO//WkCOucQLEMIlnXx6Ln+lf7bTv3bdspLbte2nfwP5F4bcPB3vLed/KK78xcOLJPbX8Ca9SxoLxjjnhSK1PemLtwfOQt932SPyCEqTqLjsLMeLnupWGchplBZvQCRiRb+rO/kCmDIREJwFKS119OSazTqo79iXD90iONSwHXWsz/zHpuRCkogrP57vu13D/iHWR94kb4zC1PLWgLFPHsubRz68v7ArzOAyyEulWcFXEiqE18hdP241xjf7Hu3tce95bC254hNDv5HkRUU0LROfjyG/r1fBXlTPQMZ+VxsZ5aNO2HWsx2/9IJZdqqo3TmKHqO/J2wi45O+Y1nAPMgU5AsGzkJvj3xwGKIfPRgM9/7DN5363t9+728W+6dmGpVJfve3/kY7+cfv2rYc9nGOr03YcfrfttNecae27ZS/1/4soPVjb3KP4HOMBPeozmn/5cXWVSKQGIE/9l8Y9x8DfCVTqFjvb7/3L8CyNHLxlxUgqktFYKwfMHcKLbSFUpAF2/t7PbDhuwtBywubejD0nijt0ff5qXbygfwxg2f/DD/Mqolxmp4ZMdbrlWRsFiz3opLhMZ4iFeOJsTkcWw9Ez0v5yuh6p0fvag968SFty7/zw6z9offnBDfo38ECY0p15YQ4I5lMOD6IsA7P4ANhPQ595QFC2JtpPedhyK1r74/NhsHFRPqTjd5DoPc3hz3rwEhzUQzo/Ws45mIHNWyVLJuaysyiLsstDEdrxgtYc+JcWGdvO+Kur28nPuVB9UfpL5J7bcSWIz7WTn3J3dvuW/yPNevnvQIcBxDiztWFLHIF7SnupWOTPr4jEsM4hWFqRc/+FmQuuFpqTV0c7HpbJqxf05/APS+zH33WDCzWP/Ei7/rk4bKndLT4wrDy+D+zTjzrye3YRz6vYqiyvvjSR0/gh1kX/vF/dYTTkpXh/LlursWxOrhqkrB/eE6YGnpb3b8u9AWnCQDIDmVfN2/d2x7yykPanR71H/swa7/IfNiH/6OBUYHcPCXB86xgaOl0jE2AZMUvUdcTfgFNJZBxK2qk4oDev6pnAfudh3j5paU+DayXXHWQShp6yjhQUHq6tJoPIEuaRYv120k3AjTMycMNmy5vxz7q8e16P/RsR67d2LjtknbS0x/cjrzHGznGPnDL6kKfp33vI7ebvnZN2y+fUAG5GQ/jJlbAljOegOkXvMp1X1RCzIFl/7JsZDZ8joc+XOng4IsXWvasYzGXIrsM4wFCa/pDHTItWXT5YdbL73/APsz6/N/dvL3v4b/avnj+DaZVrMy+Jtqn77VkLwDuBT0tL6+/Xi96nnWxTgGAXeQCpUfk4KM2tie+7fB20+/56j7MWoPeHk51qn76HWwF+ptH5eL3yYNMnwPHELWmoM1Qovv4qpObVnFuHBwDbVKBPSuPtPqnGiDWvvTBmhtjH9e5f4/W15r+FSQf/sxNzjUZS1gpaqKY5wKbXPpv2vXZdv1n3bsdett3krOe2HvZQe3DP/Hq9tn/dX9H1g/4XdQxD3lOO/5xT6xNuJz74u3jnsGhnyCB/bPHn8LmRCcqqfsnwM2t4o5Hz/1XIvdF92bo6XsuBHmw0vQEfCbMtR7g/aene26XPvvzy/3BZQ/pZ99EdJDLWorpgkydiEPD9N62/eRz2hmvv+sB/DDrPu3cx+E7sw7VVL0cTJNj+tl/xOY1YyleC1B23htaDRRnaqln0HpKXA/6E75hc3vyuw9vJ379V/Nh1v6AJmU4F/n8RgNMDhPRJPNQmERjixOILWTRgOpIz4e09Fwbx8iT1gEpNxd+nexvPZvEMmt3hsNB+kOXWnrYv1J/dyiHcy6HNaxnlnbGVCgp69ELg97fc4IC+YOOOb+d/KI7tp3f+EeUrScuv+iIdv7Tf6ld+Hv3aR9+9Svax9/6jJrbtJZ1wqG3+/l28vO/v22uX2i8w9w33p8KLLfd95QugnIJxh0Ix6HU4j1xjvd3Ad3r8az0KMgq6fsnTPpOBjfkYNTqzyR8Rqcahd4fGlrHGCmUQzkCzFcV0QQkrYflh1mvvns9Z//+//DyqwU/zHrt09oHXvjitveK8Z1ZXj6nmalzLyqutcqHxVh74pztDNaoBKPIwecAGTiKITjrv/n229oT3np4O/jIr/bDrP0AzbQoDOjzW2U1AS1sgZVhxuv+81wDuCXqPDca/TVOQsMEdRPU35FZX7wwkXCqMPRxV+c5Kc2Z+nfuhrbjG/6onfrCO7atx5zn2PrhSx+8QTv3rN9sX/znm/X798lffEz74At/rl156Q6O1xO7bvTH7dRXfG/betz5fYtkNZh2cAAEvWI09g2cWbwXCq+qmcuLWLC+xogw6pxLrBTBwP2n+Pw8TK58jksDWR2ou3h+WK4yFVrEgZWhCpaZXn8uSO5R93rTAf4w66fbx9/1I45gYkK8LE/7XYNK8H5MB0GBVNFwNOnhi1FXknSG32He7R++sz345Qe3g7ZJ9TUB1zWhBtN3cmGpGDiAmdLNWAaYf6UFNKor35iwYcr1eIHlyo0C0cEpQMu6iaShRTgpilo+QB1P+5VY9C8elo6Up8wc58QBrq5qktamuPqYDOOw4nAxENjfesZJbu2Q27yzXf/Z92qbdn+W4/XE5//6v7Zzn/LedvknT9SUMa0ymOPn/uz27byzf61d9qljkFlXHHTsBe20V9y57brJH3KsfdV+Zf854qS98Ywb9qUQtP9ITc+WJajG5wB+8fo9Ys7npGdcaQODiosIEu1MCZ+1yePIMvenZj/9OVJpDDSWXgVRyEyT8M0dJzz5ye3YRx2gD7M+dkJ73yN/qV30J7fV1ArZP2Cxl5i+j5mT2Jr9xwVj+K7NKGiTXsy1+s1bW3vQSw9ud3nsbuW+ptAaAPYvt38nF2aFozLlV8YT1XggE4ftxXhVTA+wFiqqsmBmLL8G4CAElKPaOD1RJs2gCF8axwLU4ausakgfJjD6p9SUdUJ16qx56WYgrhyBdNw5POnpW88eNT76/i9oxz36cfxga73x2d96QLvgx9/R9l6yW3PD9CrOKcMpXHr+N7Tzzvwf7ZJzvkmBdcSmXRe2k3/8/u3wO7xdc+IFWzjfJaDGzvWJGz1cVvsv/awGsn7cH/qELK5M14nWvX9oQPTzXMquUgD273xBz4P9SU+Tsy7o7Pa9HjHXM3HzwZ9up+HHDN7xF5xYX/DDrB/5lXbpBWdwTpmvp78A1sw9wPbN2XKZoR6/AGH9qJAavsLgwuIYiKN0XaxHGPrdR2xsj/+5w9rN7rSdtK89MBHNi/Mvd6MCDNHSYJJZyAqycF7r0h+U8hHDmY1kD5cxq/y88SlOAnwOAum7cCqQeYbOGwKnLrA4qa0zvTIPwOuGR27vzysgstbl6EhqnpVKiP1DK4c9oa1z09ZL2wlP+uF25D31v7KuK67c2D72U89vH37dy9qGKzd5zZpjwKV4nZd/9uh2wVN/tV30x9/L3HoCv/Ac95gnt2Megu+NV4zTwgzhIKiA/L4ap+0DvKtIM477j/szNHrw7SMvFypdnFY8uli4Sz/ZoKfrRC/lB2Ox/87Tt4XT+8/BYNJvu/457fTX3bXtvPGfO7K++PRv3Kedww+zDquR5jXNtPva8334dej5kx9o/X5dAyt71jetQD3T4pBaoeNvsKk9+RcOb9e/8UGMryu4Js3LP4crC/XkNVf5RjYCscHVm9jYKNi6epGRVLgPeDWp15l90WTjF/SmKXQurmg26ZPBkDEECDmk8eLIrIc/9Zl9Sxia58L+6Ntrak82Hfrxdv3n3qXtucWvM76euOKLu9r7n/fW9qn3PsSRQk1Pq6vD05fVo834l7e1D77wp9sn3/MYJNYdR97z9e2kZz2obdz+BU2ubzrmZ1RsCuuW1an7B56SXI99wGnyEqVXQcVlR3HY+AW4Jg7KeBNIbJ4HfD2RikuueGKAy6rWcOQH9Mmkbs8tfqed/pq7ta0H8MOsD77wxfWwbalp5fXDWZvjKTuA/cj7BE6vhBq8hhjjugdSi2EWi8FFFaSpCxKs09o33XZre8LbDmuHXu9r9GHWfqH+mQ6myf/0kB4NogBn3aHNMcqJTzYH0mWTw8Di4SmuTsoMcIN630k/kxnOYApH103qFBslfIo29eelUIm4RJ/HIsr6cyRz6f0LiPAhKbvt5L9vp774e9r20/6WufXEZZ88rl1w9nvb5//quzlPzmtagI32veLcH0W0nhp//K1Pbx965av4bY3rjT3f9tvttJfevW056mOapG8gp2to7gzbwbT9IjVTa9fR71MJcdDFRcv1+lOvGEzi4rM3Kp811gIx0EZ9HfDGc1IRTz41wHHb0R8G1yy0zxDY0I7Cd2a94CFt0476hWidkQ+zPvEL+T+zNHHOlOsXMHVOn+kxf66OJCQ0zus2NKYnO+6fTAfDCDpfvNs9eGd76E8e0rbu+Lf9DNerFNmHumaq+i9jPD+C80VUwf7QYrdA5WK1KdwccCsEGTfVGpBhVEcNGSUZtWQ5RoIMo2IIIy79QPSw+ZUPBzqgQvqDplN6tnSOLNje3zGCFRRKCnA684Gu9wepfFB23+y328nPu0vbcni9QawzLnnfTdt5T/qt9sX3f53WisPz16rGejj/OjjuJLC0pgt/997t/Ke/p11+Mf74t77Ydso/ttN/4k5txxl/szK3ef4Olc090R3QOPdF6wR3PCvkWA+rAcMEeE6MnMnMkUNDMFbplGAfnJ4HpPOzAh7ksuVVjECgTnDIgO25Wt3mL7cTnvSkdtyB+s4sfJj1CHyYdRvNK3vifKBp4yKL+8L14+DYce8JeIgByukSiyi4aqQx4+lf7uaDWnvgCw9udz9zPT7M2g/QllPiShla+zavOJYkm8lyQarRbZGdLWCzOo1j2NThRhpdk1ACGOOscULRByNe6L2E3t9BmMy/t6/xrFmAHBEpqzO1HK6QAqk7Vzvse9/UTjj7AW3jtvX/ncVFf3TXdsHTf7ld9tkj+oxgMU3YcV8Uwyhb0pENNC75f9/azjvzN9uXPnS6I+uHzYd+op3yknu2g2/9XgU8r9yPrGWGHuu8oMGFFTMvbIC2LvP6zfJZo5DSMP15HWFBg2V/XvfZP+LRH8wCejCIkU9yN7TNe64GH2Y97Ff1YZZmq/lO4PTrxJS5Ik5fXK1fMV8KSz0wlm/upF+AYcV2H7axPfbNh7Vvvet6fZi1b3CKdXLammC9wWbeK/NPAAvj4mqhWaSsXqB2GfNeqENB+boyR5LiEYGhkHLRT8ADG1LvSy76KwvwwV7RU+meTNlHbJ6PUL6nRMDWOVNSa7Y4Nm68oh378Ce2Yx78jKo7CdYJn8K/Z33Jm9reL+cB00ZgJpgqTi13zLszmGRQJGDayC9/7MR23lnvbZ/7m+9yZP2w8aBL20lnP7wddb+f5NjTl+V66qwDD3MslhQO7w9O0aWz5Qo5Vla5oadFkOcIEXGY9l6WnxcV0HvzrFztaZdNGia7QbSzdFZi20n/zO/M2nmjA/dh1rmPf2e77MJDFdCC5NaZVSuk+WPX+/rr4D3SImm5HxoS3UXOlkGScFY0AlqMWzvm9M38MOuUmx6AD7NWgHl7hpp6nRsZ5YoQSBpQEBsxP7hANovSupABijmwUkuP5JBTNcjIYzyFVnsxOWHRvx/76W9vKlnBcbPFNBshFrKFsZ2hh0P9N+26uJ30zO9vh97ubUquI/B3pB/+ide0f3lbvbHXoQcZ0/dDWsj8+3KJrL+SReAegRjSTK7wFZfsaR94ztvrhfZAB9cX13vgS+qPxo9pG7Z8mWNNddx/xupgLPeG6wJX+RnRe8QxgRgHsYV96FE4ej3fdNW3Du5/xZmKvvcTnXrnQ2FfZW1b23NL/5jBA/Vh1mue0T74ohfXs7ZZM8Klzr5+XgWuvxajpY1jFVjvrO8MCqXvmzI2Z4Ccve0bb721nfmOw9phx673h1n7Bqctt69Lv4PVWiswLaYWwE3gl0jJayNJ4SkuU2Tg5BBxW5x62CgQCaAQeYcSL+QmaB5DjwNzkdJXUTkvzo2jffS3P01A5xyCZUjxzCN6rr+OzUd/oJ3ygju2nTf+febXE5d/7vB2/jN+sX32f99Lc8JECd0lTplzR8zzZ6aA4LQX2V/BnEJCyO+9fFP76Otf3D72xufxn4CtNw69zS+1015y77ap/qic/QeybsY8db3IldHa+KU8fMRCrgCGTPSll6Mgrb2ellyjUd/PV4HPJnSI41LAddazP/Mem5EKCB55759qJz//wQfmw6wv7GrnP/ln2ife/RDNj9Mbc85aAsU8e9LGoa+8/sQN4HKIS+VZAZc0xVcIXb+33eaBO9rDXnNI27bzAHyYtR9w7gbmjHmumZ0eDC2Gy+WX3sy4OgSIitqdo9xS6IlsmLKKD33HskDX9we2LCMLvT3ywWGI/v77D9906nt/+72/WeyfmtbvuOGf8b/S3nrcORyvJ770kdPq4f+N9sV/+jaOM30A88RUsx+wWgfujHmMwfJqxJceGDWy/6196r8/pF3wnLe2Ky/Zzdx6YscN/7Kd/qo7te0nvc+RQs0Ja9Y9ks+x07BcB3LxK5o8wQVXBMb6QTAXOWOhLWBnwYLt/b15sOG7C0HLC5t6wAr1x6IvtxOfcgA/zProCe19j/qldvGf4ccM1vy9Fu5TuR4RY71eScZmwVJfyfAYT5GK8cTYHI6tB6LHZeOWDe0BP76n3fMpe9rG/sNWrz7o6+fUNvivCCbwgeCCfLP5pQ3DGiPWRoAvHSC3rtZTKZHiAP3JRu8h0Pubw551YKS5KAb0/jUcc7GDGrZKlk1NZWZRl6EXEI7WjBew5nTId76nXf/Z92ibd3+a+fXE5//2v7Tz6s31Sx89iWvhXhn0cKnTy6TVOpDQ/OHT4uz6cBzC0CfXT1f6z//Vbdu5Z/5au+zjJ1R0fXHQ0R9up73ybm3XzX6XY67fS8heZPoAl1CXrEnrH5Zs67MXvCbNNZeZ9eVHn2cFiI8yvX7ZyNfo4bKndLD4MYOnv+L+7bA7vNux9cXn//Zb+WMGL73gdM4Pl76WQl+WDOfPdXMtWIEOrpok6b21Q2+r++ckDS44TQBArtDOPRvaY3760HbLe6z/z874t4L7Uaf2DL+D7QsuZ/ZrRbr5DpbFxnHtBjLZKGik4oDev6pnAfudh3j5nmhvYL3kqoNU0tBTxoGC0tOl1XwAWdIsWqzfTroRoJX+6Pu+pB3/uEf1vw9cT3zmf/5g+8CPvatd+YWDOcYsda9gdXLGCmELDTmr+09M+ggd6tyx63W4KH54zDlP+PX2hX/6Fo7XExt3fK6d8twfaofd5edqrn7zL9t9spZLRUxTT7QsF2o2fJxFcqQgbt/HsvNesGcd3a8T+4My5Ey1YNf0hzrksttP/qd2Br4z60B9mPXr923nPuGd7fJ8mIUJ1/QyY2Axe65ZY+6EB7GL9aOONmDUi55nXaxTAGAXekefsqk96RcOb6ff7MB/mLU/9NnXOvJa6X9FoM0Qpfv4qpMPUMW5cXAM7Fc2i5tXeaS1kakGiLUvfZCHlD7628d17t+j9cX+rjH3nOfSici5JmMJK0VNFPNcYFlvy6XthCc8tB15n5cxvp7Ahw3/8pZnto+89qXtyis3cb4A5onp07eDlPzyMMD8MawB12QtEVFBex5/0LIn0fd9qfOKi49sF5z9i+3C3/s+xtYVG69sxz/66XU+o+3dcCXnD2Be3JU+bdw/WLgIOgGfCXOtJ78OscZ6o+d+8EvPBbnQpP/koxa4HFkvxwFmcO7lh1mnvfr7DvCHWS/i37VzLzhHm+Vy7Hv9pE5rLtDvRI/hcv1OWZ/NmfUMWg/JDW+1tZ31jsPbESdsVvDqCq8Pa8lzsuHMO1+6d15cNoEPqVeJUCjxTSvU5tSBIRU9Ef2oQ+wjNIM3Dk5voskyVujySZ9yijsx6ZWd4dw+UqNXOBvapj0fbyc99YFt++l/zcx6Aj9K8EMvf3373F/cgWPuT80p++QpTusHawUhzf4+iYV9hNNz9nv/OmGP+oGXt6Pv/3JQ1h2f+8vvah94/uv598KL6WdyXKvmPwVlkftK+1HQWqUfasXG3iiDMZAIERFQvto5WPao+76pHfPwF1S8K9YN+DDr/c95dbv4T/3funj+8wI80yV6buwN0Nevpe1za6fSE8nj7kj4nffb0e711N1t4yaort549A0+OtZfB/ZmY14sXGhPCllqgDQ3Z8Eb+sSXmGJwuW+OuVHv36GEIomjjzJdPuuLFyYSThWGPu7qPCelOaP/1hP/sZ3y4jsckDfXyz59TDv/qf+9Xfznt+cY8+b6+88DrRGWhWGdWpZyYwUTsu6+frMw9DnvRfdFK57eTPr++QZg+PF3nFm/A3pD2/vlrYytJ3bf7Pfa6T95t7blevW7P8/NU8YiJmBQGXDmeNZTmFz5HJcGsjpQd/H8sFxlKrSIAytDFSzj+7dx82X8MOvYRzy/tnKV/LXHlz96In/M4MV/gn/jjP7z3cdKhXhZHtcLZiXyRpKDoECqaDia9PDFqCtJOsPfWL+Rvu+z9rT7PGPPNeLNFcjcZ/CvCPpC+caEDQNZD1OyEOP1pBp6A8OGKluAli+4RNLNIpwSlTHHFOqotV+JRf/isRfcaOrknDjA1VVN0sOuuPqYDOOw4nAxENjf+t03/Z128vPv3A468sPOrh++eO6N2/lP+q126QXfyDH3o+bGKdcUOX3EMDa4Lkey/p7HWIQBcqzApc4odG/NBy393RNn72/aRX9w13be2b/cLv/sUQqsI7ae+L52xqvu3HZ9419yvlp/Tc1zEzhrGSTAWdmTDLk28jiyTG8m2Af6XL8Eomak0hhoLL0KopA+zDr15d9/QD/M+ueH/3K79P1nZJKFmr/97B+w2EtM38fMSUyvn0mDC8bwpz74mvViSr9994b2qDce0v7Lfa++H2btC1gf9gDI2vgGm2UimBeWXkyMMgdZxvIxwANnlKOY4mzEpBkU4UvjWIA6fJVNXRxhAqN/Sk1ZJ1Snzpo7bzSzyhFIx53Dk55+aQ+/08+2k572A23T9vX/6fAX/+md2gVP/7X25U/XG5XnqfXXANOj7yAhktYhXw/6vMsad8C1ntG6qLw43P+Zz+ch4+m+Ax4gfck/fRM//Lr0gq9XcB2x6eBP15827tsOve0v9fs/L8ELLEx7UXaVAuj5D18g0+O+F7a4Io8hOrt9r0e43vaT8Z1Zd2k7b/QXTqwv9GFWfsxgIXOs+WW+nv4CWDP3ANs3Z8tlhnr9wqT9X9ZgbVxYHANxBBTZ2448cWM76+cPb193i/X/k9BXi+wP372w/loS/08uApsiQxKJ4GQ/wCmMNz7FtVHlcxBI34VTAehlBd4QOHWBxUltnemVeQCeNzxye39eAZG1LkdHUvOsVEJ5IABsyoaN+I/5nsITH6SsNz71K49qH3jhm9uVl27jfHgf6vDyGQu4FK9TUVwZFR9c5KnpFWyFtfuvngyhP/enMuyjWGrRS5xXYEO77BPHtXPP+tX2uT+/nWPrB/zrjhOf8th29ANfilGdmN+Y82IvsD4YjYierlP7j/xgLPbfefq2cLAl3JY5aOy55e/ow6zrrf+fivANIh95zTPbB1+s78zCvHL/Mscx0+Hr/u/Dn/TzHmn9fq6AkVroian/Gd92UHtSvbkeff2r+YdZ/wrw+uHrtpbKH1c4NgrW+8FNglNAwANeSRqahS+abPxCXrRA5+KKWUz6ZDBkDAFCDmm8ODLr4fcKgHiAJQzNc2F/9C0C/vnPiU+7Xzvsjm9Wch2x94rN9fC/sn3sZ5/FOWGG2hOjXK2uDodl9WjzhvZgebCTfvZCQZBq0sWAzfMw9+8SxhmSrbliC6VjlNcrL9nR3v9jP1u/YDyU4/XG0T/wk+2kZzyibdx6qQJjAX3+cDRnurblYD04Fnn5Wr/IsS4r7nDkB+UfdZ83tZOfjx8zeAD+z6wv7GrnPeXN7RPvfvCYV1k9/nn9cNYEhqSFWsf8XHDNSJbD5xUxrnsgtRhmsRhcVEHJDe1W997WHv2mQ9uOg68+35n17wVfS1lSWazV32iABSMwFsxrGXiKU+7MADfVm8c6JNRlJjOcwRSOrpvU0Ys2p2hTf14KlYhL9HmsoMIzL3Pp/QsHHfWhdsrz79R231T/gH09cfnnDm3vf/a722d++359nrCYJ2weZKDn6eih1irGiyQck7DQESvEpw4DykrvegyXxQuH8WmfmEaOI1mlpYcVB+ON7aNvem778Kvwv4yu//eLH/Kd722nvuxebcuh/+IIJu75rSDrSFYrlz/WXxFvUGqA4+X3feiMcDfX76rPPuvAf5j1Z/gwC/NCVHOjrYlzxPULmDqnz/SYM1dHEhIa53UbGtOT7foEAujrt3j3ePKu9v3PPrht2rxKuGZhvE61Duwf/4oA60eIm1pWG6L4/KJhlOQa2XKMhIsSFUMYcekHoofNr3w40AEV0h+0nABbOkcWbO/vGMEKCiUFOJ35zP23n/6X7ZQX3aFtPeGfmFtPfPljp7TznvTr7Qv/8B1cY9ak6XsdCHM81sP518FxJ7EAc0QsoQ1gqFytHwH5QO4A+zuumSgHz1Ra6DV2kHrpmPD5md98QLvgme9sV3x+D/PriR03+Nt2+mvv0raf9v84l6zVhmCspq7Za9yP8rHO/qxiDE6dslojgUCdrOf45j2faqe9ov5UdPv/Rsp64/P/99vaP+HHDOLDrHmusL6BjnQgxTXY8rWJ9ePg2HHvCXiIAczBqThSukjvBMeIb9u9sT3ydYe02zxwJxLXCmRvAJjpu3mxWQoqlpebRhEBXZNQAhjjrHFC0QcjXui9hN7fQdj4vX0FZs0C5IhI3aR3uEIK8IYXDrnVr7STn3v3tvngT3K8nvjCP3w7f6YA3mQBrV8PMACLacJyXxhVDCMvaUAFPAiscrzXgBdqp/gF5L3BFTxYvLhM63ZuxRgDdWbTOXn5n/+bW7XznvDe9qWPXp/j9cSWIz7WTnvl97WDb/nbYw1xCA34BsJ1ToeJ832JeCwfzALWzyBGG9r2k9/XznjDXdvObzxAH2a99/vbuU98R7viYnxnFiaWFdjON7DA6dfJ2wYOvhbrV8yXwlIP9IiKyBagn3H4CZvaWe84rH39ra55H2btF96/GfpfZWsP9MJSMPuHFDeGOZIUj4gVGVIu+gl4YEOKjrbq6XEW+GCv6EGTxqXtIzbPRyjfUyJg65wpqRV7xL1e1o5/wsPahi1f4ng98dnfuV+74FnvbpddfIimjTVplQVZLsFr0HLH/DuDSQZFAuaNRByyhZ6mwnXUAH21/5OuABo5ZdVi6EUVA1myOEnEDRDTrPDFD53aznt8/W7972/pyPph47ZL2knPeUg78l5vGnPk9LyX5Y/9V3ycWNr4Ba1rACS7QVTjPbf47Xbaq+9+AD/Mekb74EteqO/M4pz8ugO0ILl1Zi3jnuI6rb8OPiPWc/3YD5cDuoucLYMk4ayoBad+8+b2pHcd3q536jX7w6w18EZ6a4mNGGDzYLNhsOHwRYfN9FiZicxq4IzQRK6w8xN0c3Qj2JvHfvrbm0qiAPUe+CwgxEK2MLYzNh50WTvucY9oR3//ix1ZX3z87U9tH37VK+uFsIV7gUni0IOM6fshLWT+fblE1j+0JM4bGEDvGnFwzYuG/Rkb92TcG8UBVQxXnCWjrogpqTERK1z+uUPa+U99V/vM/7yvI+sH/P3nsQ//8XbCmU+uh+Ayx2p+nmJ/I4HFviLl/dGaBETy/IUnaN1H3fcN7eTnP/SA/ZhBfZiFDxcxsUxO9zShPn9eBd73WgxS2Iccq8B6Z31nUCh935SxOcQtvm97e+zPHNZ2HXLN/TBrv9CWaP3GhjO/99K92ILEsh0ce8Oi0OZPagDD1QL2xw3LzVUtSfQgM1xnyuZ+aCxmksv+VMkFTO2ocX/BlAZaYNPuT7YTz/6htuMG6//Htiu/tL19+Cde2y764zst1jKvRA90zXxaWhbn7dOlD1Yxqg2a9iGp7As9clbvkTj4Ek3OaNkTGBR6Qnqgxp1VDqOWpP9R93ltO/qHX1iS1Fk/fP7/fnt7/3PeVG/4eziXsSfCeM4GPH1d+iAo/ebL68377AP29634MOv8p/5M+yJ+EhYm53mO/dcg05+xuEeFxfot4D7tY1+IzpHLgoQ0G+v99G5P2N2++8HXnr9vXcWjTv/I9BopYN20dXpfy69j2hzG/aJRPMzYwrJA1+dNjS9gOLwMHT3ywWGIPvRWyvb+ww+fNRkffu+fKuhfsa3H/zM/zDoQb66XffbodsHTf7Vd/Cff64jmBWT6AOaJ6Wd9sFqH4wzG8mrEFw8YNeb9nyEC99sc9ff+1wW2zzP96xprEUiMwIcecIQpRnApP+pPvPvR7QPP/Wn+vIX1xq6b/HE7/TV3aVuPu6CmpTdX2L5+rwc26/D0CVpeEN3L78w67RXff4A/zPqVenM9rabTN5o2a2E8YWOs1yvJ2CxY6isZHuMpIpGKmsOx9QB+KPbDXn3ItfrNNeDSeQE26K8IArl15YaSOQlMjDg2eg8B3RDdKEA3xg9wHZAkN9+oMZe8IYAtq2TZqSYxRJDZyLGa3N03/b128gvu1A46+oOMrSfw7a7nn/Vb7ZJzb8y5cC8wf/sBPVzqzPJI4zqQKI+JoR/rD8chDH2yJ13psT+qM/V3HEAIWWphyBX6ntr2/uDYd0RiGKcwTK3oL/6TO7Rzz/qldtmnr8fxegJvrme85q5td73ZAov1Z81l4WVNjCcPt8jbTvF3Zh3wD7P8nVm8D5ofLov7ZzcRzJ/rrgBkGum1KpL0LIlR9LaMJ0nDQJ0iHHrMxvbEtx/abvRd2zi+NsO7oP3gBtXvYMeGTQ8SgkXSi8+EsrwRvYpoSUst6CG0fjSgXnLVQaqncUDGgYLS06XVfABZ0izKA8+4nXQ77PZv4TcQbNpxMcfric/9xffUH9t+jT+4Zaxf0PQ1V06/TuYVwhYacqieCwCTPkKHOnfseh0uiqt64r5IiX1LHCCVvjU08gkVkJvxMG5iBWw581z4zNV56bnf2M55zK+3L55zI+bWE5t2X9ROefED2mF3fCfngv3J/OnLpc3MBdi9bc8t/lc7/VX3OGAfZn341c9qH3yJf8xgZjkWoH3XiOPF7Ln/GuPeY0y/LPKL9aMO6hV6veh51oUDQPbkmxzUnvyuw9pxZ2zh+NqOrN6bxbP/My1uHjZsxRfE4g0YQdYI8oKhX4l+szBGDn6vWdf6gj41dPP21d9E5FyTsYSVoiaKzAV/t3e9Bz2zHfuwJ7UNG69gbj3x6ff+SPvA899SfwSuPxphPVmTpsl5Yvr07SAlvzwMsA4Ma8D1W0tEVNCexx+07AnA/qi3UXloUIE+vHIUd5DAPtrjT4FyohOV1P0T4GYu7B89+lvPeRQx8778M9dr5575S+3CP7wT8+uJDZvwd6dPacc+/Pk1Gj9blhPL9OFyUYrhctR939iu/7wD+J1ZZ7+5ffK/PbhGmBA2HZm68AbAt8ly6v45PO0/OPKD3BOC5ZTT+hnCQHGmlnoEb37nbe2xbz607T58/b/B5IAhm4a9sL/plmc8/cfw4sKQm9R3FhvGqK3d2a5AN6Y22z5vQh28gYyRtkaOsTpJQ/S5JDvDFVZSc69N2y9pJzz5Qe2QW6//Tyvae+Wm9tE3vKQe/ifUyHtS68lD2G2dWCKXyjgCyADiKGmSdd2uYNaHMfZE/XcesqE98uU72pHHb2zn/OXl6lvnmv7d71kTgNh9wPrUWvSvg7nYMlqanSu2tAv/z13axoO+XH/cXv+f6r/zG/6qbT/tH9tFf/zd9Y6/RUvxOmi5qPpdyZbL6tl6Et9g+5asI770kZPauY//+faFf/zmGmVyMGU5afh1lm/Tpw8L5B7k3gCwGOMrtyR2BtlZeCdhgNjedufH7Gr3OntP23QN+TGDVxV+/dWfmzZLe1G/l9EbABKrGylMQbjYyxC9f9EPKKFI4uijTJdHT46uRCWcKgx93N7fmJTk4B+Wn/z87227v/m3HVw/4L9zef9z3tU++1sPXDvPGnP96/3zXI2jTtzQnvjGXe3kG21u3/2Abe2Hn7ejbdlqfUFG1/33z4ThrmWxp8Kraub4Il4zf82U0fI/9uaz24de9sr6Y+/6/9Hy4G//7Xb6T96zbTky3147oea2+eBPt1Nfft922Pe8x8H1BT7M4o8Z/MCp/fWj+6EzO9tvQmFBowWvBpXIm2oOfEkgVTSjmvTgKVZX9z9oe2sP/YlD2h0evouZ/3TQthTGbo3v5MKbGgeJiKoNLIMTqbL97c8U/g7Ed1u/O6tbVZvuCHm4eUjNNwx+59RJ3yS9CBVXH5NhHFYcLgbCjtP/tp3yotu1bSf9oyPrh8v+5aR23pN/vX3hb79T6/eeABlzyhXm9BHD2BBdkay/5zGe6gnagC6rMwrut33QzviWTe3xb9jVDj92/PvDG996S3vMa3a2PUeISbZ7LPqzjfszbtiXQtDvRpGa1mYJquU54F6A43648rT+M//zXrWXv9Auzwc36wj8Lvb0192l7fi6v/UasKCmD7PecOf63fVfMrre+PR77zd9mJVfqGqGmmShdti+ckJ85srFfeC9mDiJzfdP8QLG8YnyQJv0hxy9qT3hrYe1m3z3tf/DrP2C24JdwlOuvdnYtwibyA3Dqc0WxwzpMiobr3zo8FVWNaQXQ1fK5brUlHVCdeqsm6wXHuLKEUjHncMe7L7Fr7XrP/cubfMhn+B4PXHJ//dt7dwn/Wa79MOncZw3kExY69e47wUcQiStQ74e9HmXNe5Ydeui8kpw/82/5V22tIe9dEfbvqs37Djx6za3J75pVzv2tI0qb032XyNg7r+s08Nl2bPSXP+kBsZ+TC9uW1yZrhOtof/CP9y8nfOY97ZLP4h/17m+2HLYx9tpr7h3O/jWv87xwbf8X+0M/JjBoz/C8bqif5j1An+YBXj/gLi1edlW7f8S2HPeE9zKOVsuM9SPXwCd6mBtXJDiQJyTvnFLe/IvHNZOuOF/jg+z9gttUJ16/4O74cw7fRER3RASViC+7AJK8IZgiBtifSTM10G59RPNcQ1Gf0YZW/qF1XRBD8SGduQ9XtmOuv8LHF1fXPi/79M+8tpX9D/SznsiX/vAkBeApWovtKh5X5DXQuF2osbWh5L6CQPac9X83odtbbf9gX/9+72/dMne9tbnXNL+8Y8udyTojTRcTlTTgzP1n5G50APXelAR5/ortJAv6uxtm3Z+vp30jIe33d/yfxxbX1z0h7dve77jf9bcFxNbF+j/zHpNu/hP9d+66HWCDC55vuBqX/eLSvFekGffemC8/gYW9wSowWiDy4b2LXfY2h7w/IPblq2cxX9qPOo0/EuSeddqh8+806W6Q9w1797MARjWDQHoY6cnJK8bpzKBborrE7NvIN/vHiswHDAdnz002rD5snbsI57YDvmud3G83vjEzz+pfeIXzuL68pCuPqx5kLk8BJZL40oWD3zfByN1PQyl1yF96NF/80F72w8+a0e78Xf+239XceWVe9uvvubS9vvv/vK/rf+ExPo8pkX2eZU/Ve1gfNI7gpRRFTZe3o579DPb4Xd5m2PXfuDDrPPP/pn2pQ+ettyXeYtg68L95f45hRwzuizuCziIkYH0Ur8K1UOC1Qry7/jIHe17H71boetQb7AfWewjdkvfaNB31VFcYOkXGM5gCkfXTeoUGyV8iqYK0RKYjF2izyNwtsIzL3PZuPPT7aRn3fOAvLnuvWxr++DL3sQ3V0DrHOuBxTxhuS9O9Dwd3wxFtJ81DsckFB6xQnzqMKBMLx5I9hy+oT32tbv+XW+uwMaNG9r3PXZ7u89Z29pG/GxOFOMEV/p7MN8uhLR+JbV2Hf05KWF+YeZVy9U6YOmAI9vPSuDnyX741S9sH339c/hH5ms7Pv9/b9He94hfaZf2N9eg9qPvjy33veD9BLCH3Eemhx73QyQkNM7rNjSmJzvunww+GH3wyw6+7s11DfT6467C1qn/Mob7l+0sVIx7ypQ31yC/1LD5nRoO3CjXVAxanwAawqUeLFjrRUp/VlCoLrSA0+gFHHTMOe3UF92x7fz6P+F4PXH5hUe28572y+3iP7xbjTBHzV+bmj3RXDN/rYpLIsDhwz0HVYA5IpbQBjBULvUuGj7qHXvapvaEN+5sJ9zgP/7vD7/97lvbw1+2o23bweIKstkYwu6rP6B1jxPR/qyYCwM9hxwwTJCjxMiZ/IlfenC74Jk/26645Nr7SfWn/js+zHpbu/yiQ70P3IA6sy9wsS/aE0c6kNIeyuK+cP9xeEzrewIeqgPuAiG+aBHlL4zl4gPRx7/l8PbNd/hP/GHWV0Se83Lr1G8FsrsOYjw2PJ4w4oXizlkUxYl7AcDGZ0OgArNmAXJEpG7SO1yhDW3njf6gnfLCO9Wb7AUKriMu/cAN23n4317P+RZHxmq0fr2hAFwC1lCW+8KoYhh5SQMq4EFgleO9BrxQHbzhLTe1x75mZzvkqK/+d3g3uPmW9vg37W6HH+c36vR3r8xjBl/AdWBuXHdd+MJErvTR0NZlXqlZPmsUUhpO67/4z2/bznvcr7Qvf/w4xq41wIdZr3p2+9DL8GMG86cPrz/7Qiz3JMAQJ/ceHHwt9l+xgaUe6BEVkS1Af8INN7cn/8Lh/FDrOqwFbwf2edrmjX1HeWfsT8ALBlf6rOBf9aqKXk6S8YW1ogdNGpe2z5sNssdC+SokwNY5U6A79LZvayc94z5t064LHV0/fO6vvrtdcPZ725c/eSzHmA/XYp8PMCHLJXgNWq4WEw0ZTDIoEjBvJOKQLfQ0FU7/De1W99jSHvrCHW3rjkn7VeJ616/fDb9pZzv5RnqT7X37fDQH9I8t0zmYG0/RpbPlLDlWVrlp7hgjyHOEiIp98f03aOc8+r3tC/8P/9j+mo8rPr9b35n1ngd5F7gB0+nXHQDrZ0QZQSFxsOtj/32PrIfF689DorvI2TJI0t52k9tt4z/Dwj/Hug77BvY/+xi7UXelTiRXswW9aeAc0M3RjUge1+hho1BmURIFqPfAZwEhFrKF6XZvO/qBz2nHPvKJ/NbG9cZnfuOH2/uf/9Z2xRd31dS8/pocf6GARawOTd8PaSHz78slsv6hJTGkmQy9a8TBNS+ajZs2tHs+YVu75+O38+9Qr2rg53Y++lW72rfcfvyuRVOd779s9qTvDblr5xS9/OKFwhgGZROc9N0rB/rLLzyi/jTx7nbh7+Kvaq65wIdZ73vUL7eL//TWNcL+IYrV5gT8TDnU949XYew/4uNYBbZ01ncGhe4/7f/3PHRne8grDm4HbV9b6zoMaN/hjD3d9O2nPf3HOEpw2sNxw3Rz9WLBSxu0ioNEX8Xp1wCnhmImSX2IVE0wlYCtcd5ENmz9QjvhzIe0Q2/z88qvJ+qPbR/9qRe0T7zrSW3DXv3Re94XwNMl8kj3ZRJanPYPwxov9mKGOYVB8z5E7n3ZumNve/DzdrRvud1BSnyNgDfxb7r1Qex/7l/j22vVH4ivPUEE8xx7Q2j5yjPshRFOMoYxLnVO+jAC7Ysi+PDroj/Qj4Dc9U1/SntNwuf/5hbt3DPf3i77OP5UNO4xV+2Fc70IITnCC4hTUXyRBpZhgV5/Cq0BOb6ruFTBzfVr6g8+/2D+n1n92b0O+8VvvOpi7V2B21x76HeMOrN/5fc3Dm8qXzBweBkbTY98cBiirzcEIDdMI5btNWmo54mx/d6/js2H/Us7+Xl3bbtv/j8YW09cecnu9v7nvbN+9/rgmpbmNKO/yOFrpZw7pp/1wSrnOIOxvBrxxQNGjXn/hUOP3tAe97pd7Ya3WL+/D7vDg7e1Bz53R9tyUBZQqDnxfmOO9sf9F43rQC5+RZMXmJGxfhDMRc5YapHa2z7+1ie2Dzz/NW3vl685/8fTp/Fh1plva1dcdEgtCqvy2rnYGnOhtX5tGvemh42+3xWkMmOzYKmvZHiMp4hEKmoOxvghLY/7ucPaze+8nbTr8G+Dtk/PP/bd/213ARtt6IbkZltQMTzIOHgvnJtvVPeLwSxq2CpZdqpJDBFkNnK2nvK37ZQXf3fbfvLfcbyeuOwTJ7Tzzv719vm//q81az2wXH3Nm3uB+dsXtC+81JnlkVaHEtLDj36sPxyHMPTJnnSlP+mG+pcCx5yy/n8f9s3ffVD70dfsajvrPQHg+r2E7EWmD3AJdcmatP5huxiY9L0A11xm1pcffZ4V4ML/fbd2zhP+W7vss0c6cjWFP8z64MteyB9wowUhkbVksfDzzAhxE8Gecw8qoFuhA8+KIL23duhtGU+SZkM79owt7UnvOqyd/E1f2z8ZXRuh7dT7H/a9f8g1bogS2HS+YKY7olsH1NWpnsYBGQcKSk+XNi9As5SziD3NRa093/qb7ZQfv0vbcujHFVxHXPLPN2vnPel/tC996AYcj1ln/YKmr0lz+nUy73X05VpF9VwAmPQROtS5Y9c3tJt815b26FftbLsPO3D/FvT637i5nfnTe9r1TtYvFJgdbPfJWi4VMe1HomW5ULPh4yySIwVx58dm3gs+c3XQd/8v/vNN2zmP+u/t0gu+jryrG/hh1lN+tn3yPT/M9WLJAhyc2Re48BkRahwfVmvWmDvhQe6D9khAKq+/Xm/S06nzRt+1tZ359kPbYcdc92HWvxdjK73/td/9VZqHlH4l+s3CGDn4FevR+sL98j3zzVOe/sxNzjUZI9EnKeih/JF3fV07/kk/1DZu/SLH64kL/+Du7YJn/lK77KLDNU3O2evJmjRN7gumT98O2fQhhtFmY8Ba1hIRFbTn8QctewLc5v4HtR967vZ20NXg2xIPO2Zje/yb9vCvKDBv3X/Nm7vSF1DrR6rG2sue8PrNtZ587xgS/Zkpo/2Hwwx5OBDv/cu/7JPHtXMe+0vt4j+7LWNXF3zpIye29z3yl9vFf44Ps2oRWTN8rBkmcfo2pn3Nfp6r/ds+aEf7kVcd3LbuOHC/eF+j4f3V/stf7GRPZPNh8QDjBjIvXmBq7hG5cFjDemZpZ0yFkiq7cdMV7dhHPr4d/cAfK/mq5muPT777zPahl7+Rf4/HtRT6npTlnjAog0kzRY8UOlou9k1BbXYlow8W+4I9p+FJJm0dm/a2+529rd3lEdvGHK4G2LZzQ3vYy3a2W91TP/MwM+PbQA207KwfEGOxAuSwppW9CPr+w6dyoWZOexKr2JWX7GoXPP3N7ZO/+BDGDjT0nVm/1i79wGljF7gsXLwm7kNZ7omsDYG0mWXF5frtw2LvtSfO2c5gjUowWrlNWza0H/jxPe37ztrzNfmXKP9ZkGdV+y6fb7C8ATg7tMmKJA6BMqHi5gF8QflKVGLcpqGPu3rDocS/az3pmfduh972HY6uH/ZedlD78Ctf3z7+zidjpGBhzTxrrPVPa8KyMKxTYeW0/vCM6GZ9IXrWmDTwt+9q7ZGv2Nm+9U5Xz78Pw78wuPdZO9o9nrBdv1x7bVpZgcOMMNCDNy2za4DJFYfj0tcX9gOVFvcF8Rqz5EKM8Yb2kdc9u33olS/kvzY4UMCHWeed+fZ2+UUH9/nW1a8fBjjGOVbAJBEvy+N6waxEf1P1gS8JpIpmVJMePMR2HrKxPeanD223uPt1H2Z9tfBW176O3eYbLH/l97tlfjeAm+AIlbh5SM03DH7n1EnfJD1EiqszyPLZAifjrW095v3t5Bfeoe38xj9UYB1xxcVH8K8ELvz9e3CczeH6OVEhY09Z00dMQ0L0oR/VChhP9QRV67I6e/86jjyu/hj+xp3t9JtuZuzqjO+8z7b63ewu/q4Wy9L6s2T5WiT2AS548EnoyJB68jiyTG8muA/0i5P9EjUjlQYw/vR/v387/ylva1d8fo+C6wV+mPVj7YMvfUG78rLNnDfWkdlmj/qky1ms31jsZbla56QvJJYeXYMLxvEBcOrr6FM2tSe96/B22rdc92HWVQHsr94j9P6H+zH9DlZWN0Y3C55ujcS+Z/LnrBOqU2c14Y1mVjmichmlFn6WwCn15rr1mPMUWEfgQ6zznvyb7Qv/dDOOszEAN4rr4dDr17jvBRxCJGnl60Ef6yWZeWPVrYvKK3HqjTe3x79hZzvqhGvOhw1ff8st7XFv3MO/n839n5fsBRamvSi7SgFW9x8g0+PcpwhwRR5DdM7jZ1b73F/fqp3z6F/lP+pfD+DDrHOf/LPtk7/4IAW4ZM1SiC300Ngvrl9uB/TcA9Sas+UyQz1+AZLeqQ7WdoOv/44t7cx3HNaOOP66D7OuKvT9x8H7x/9VFoECbooME7jmTRb3yvdFvjxyk6BPiIy6PTqS1KMADH4KFn4a1qZdn2FuPfH5v/mudv5T39u+9C8n1Fw0wb4xmHud2aTsAzlcgMCleJ0K48Ko+Agiz2SvYCus3f8N7Vu+Z3N75Ct3tJ0HL/6K/BoB/rCZn97dTvx6vHCz7li4Sz/ZoKfr1P4jPxiL/Xeevi0c3z4FSVD20g+d0t736F9rn/+7b+P4a4Uvffj67X2P/JX2+b+4tfpjzp7oPH/MS8+P/HEt5LkoUDPr40/6eY+0/qGfUtTf+v7b2yNee2jbvuua93xd3cF7goP7X7+D5Q2rUzdKDyzuR25SbmYc0uLjMuvh9wqAeIB0cPC1tx19/+e34370Mfx5ruuNz/zmD7UP/Pg7+UfGPJhavyz2BKPEiHK1OmyeQ7SqQF0PlgcbYmH2QlHNckgX4/Y/fFB7wDN2tM1bWO0aiT2Hb2yPed3udpPbTt8E0dc89g9OVpkY9wH7wX2a83pgYbNXsS4r7nDkB/Q3tCsuPqSde+Y72md+696KX8X43F/fkm+ul37glN5ea1B/zrnPC89amf76EQsgjQ6HZZbrhwwxOHxeEVOjjtRiuPIbN7d232ftbvd+6h7+3fl1uGqh9w3dJ2w+7ol+CZtuolAU3jidxVOM1wm+0R0iTnC2wuFtOOjSduJZD25H3OMnHFk/4EOPj735ue2jb3wJ/+fXsd6aV00wDy7HPLXmPMhAz9PRQ60q2lwQwjEJhUesEJ86DMrBd0f94LO3tTv88LXjx8DhJ9w/6Hk72+0etJ3rF2qxtSfzXgTafzCU1d7Lx30J+BsCWF7Fyz6KNir0/fd9Ecq5fEv74Itf1j72prMdu2rwqV+7fzvvSW/jmzjXiZ51zvNngHNBItbPxzRNaOkzPfRcXU94rEJev9OThX7Hng3tR990aLvVvXc4eh2uaizuc20+ntUNT7zDJYzu60bNwA1nHJcMehCIXpbpKYLL5kP+pZ34lB9s20/7v4isK668dGf70Evf2C7+q++uqUy/0mSuWItnu9goLyAajgnpOcxeBLO+Y+4FCt6c4bS28+DGn4SFf8B/bcRf/OaX2s8//5J2xWXcQe+ELDDvBcdxgHK1teO+zHpGsqmBeQSJydXAKYbrPPi//FY76WmPaxu3fRX/5hofZr3mWfz7Vs6JPdIhFih/ES6nyDMDiH7xnJIqPfYqe/YV98Sjo66/uT3ydYe0I0+8dj5fVxc88pQP1Y6PewIs/tUb71+deR5h43dNBWbNAuSISN2k33rSP7RTXnj7A/Lmetmnjm3nn/3e+uPb7bgBwFhFbNaPB1qA5R6UXcTp4OFfgQp4EFjleK8Br0JHn7SxPeFNu661b67Aze+4tT0a31578NrdFzTCm0neUPrhB0hvKHSLHn4AZoH7r3E/I+L+26+YvXbRH9y+ve+x/62ekaMd+feBH2Y95Wfbp/BhVvUYbdIh1ok5R/JAhpgyZ4ivrLWSiQ0s9UCPqEi7wS23trPeedh1b67rgdp8vrnmHpXl/yqLMR/sJAxwKSgwZV8Pe0U8FspXIQG2TlB2f8tvtVOed+e25YiPKreO+OI5N2nnnfVb7dIPfH1fC9ZKW2Ouxf542clyCV6Dljt0ncEkgyIB80YiDtlCT9NOv9mm9rjX72yHH3Pt/7Dh1JtsaU948552VP2C0jcAW1M+d6v8sf+K84BFrva0y6IBHJRB1CTaOpHASb1zsQXELj3nRu19j3hv++L7buTovw35MOtzf35rdeV9n56Nxen+HNbFz4gyAkKZ41g7veKM+cPO+wF0FznbW91ne3vU6w9pO/Zc92HWusA3sj/HdVPqd7AY6JobBmuKM+QOzA8r82YjxEK2hcPv/MZ2wtk/WH8E+4IC64iL//gu7YJn/Gq7/MKjFgvIw4qHlL9QwCJWh6bvh7SANNCXS2T9Q0tiSDMZeteIg+st77qlPfwl+/6vtK+tOPL4Te0JP7OnnXHzzd4/bFut31vQ30hgua/OMzn2FJFZHwoqOGsLM/SdVki51L/s00fV72Tf3S76P3fg+F/D5/5GH2Z96YOnjrosimcDA0RzCvQc6vPnVcgziZSeKh2rEGfoO4PCGtXXvZ++p33/M/e0Tfi/1a7D+gC3pLab98bbXr+DRbSuul+6PyBxpKySuvn0OXYFMhArkxBrXNGOedhZ7ZgHPaN8JNcXn3zP49oHXvLT7covbaupqX8e1vEgY92YOxiZo1hcolJyCnkxMjjtRWoI5hQSUl4SnHd55NZ2n7O2/6d8+Hfs3tge8ZO727ffXR/mZW+w/7k/sLo3zhdwzW4xxP2XL4oYqaAEwuPOUlMg08WoBRW8S3e0C579xvaJdz5Kyf2AH2bhO7MuPqS3UaHq77ouSitTl2nOnWYopqho49BXXn/g1sWAxxEulccv2I96wyHt1ve77sOsdUfdHtxBPgO+KRueeHt/yIV7Rw/Qw857poBvqiuU338VjaYXrXftHRe1E858aNv1Tb+nwDoC/5fRR177snbh732/5uN58QHloHzPPz6g9ZKocaWRymYx5wqpRar1vRGuZVy+A7Gt9Z7ygGdubzf6L+v3M1yvzvjdt3+x/eqrL9F+cT/L0Rb250tvKtp9xuvM/jKGAbG6/9LpRpQNbQX9/rsfUebwO76nnXDWU5f/jPDKje0jr3lW+0Q+zEIsmvTrCAMWbnjw5QLL/oxoXEeeM4C8cimHWw750VQA3zTwiNce0q53ynV/33og8MiTP2QPN0X3Tf8OFvBNE3BzC3UHYXVzeWsZU0p2ErHmQUd/kP8h4YF4c73ic4e1C571nvHmCmDKdeSBxbz7i8l+iPRwqTPLI60OJaSHL1vnpBfHIadxgnvw4Rvaj75653VvrhNu84Dt7aEv3d0O8r9My5sJ9k/7Wyg7dtZx5jEAF5lkZbX/k94ukLqznn3hd/2G9unfvFc794nvaFdcfChj/DGDT/45vrkCqdn7cyy9bAUYyzMjxE2k96cPpQ6tGpCebSrU9bZqv6GdfjP9DNfr3lwPHHgviDj+Ti65ehCZcowPj28krB4mwBY5i2B23ODP+S8Fth73PuXXEV/6yGnt/Cf/Rrvk/7tFzcWT9jTHrPMoC5q+uDDwmI+8k+VQvbaAXJrJB8/c4/DdTW/66v4r7WsrbvSdB7XH/9TB/O+g9UYCqxx9uePerNyAfq9pzYrIN3BW5BnGVc+8yLA4+Obm2Bf+7tvaPz/iV9pFf3obfZj1F9/JeK8HTXqxKc7KJohe5XZ+jePDsqep8jWARZ5zYUQl57kT1LT27ffYzn/jek38zr9rE3z7uoP7t+HMO1zC+8pngQk9BFNw2BmiCuUfcuv3tGMf8bi2YcuXHVw/fOHvbtU++NKfaZd/7hBNidMdLxY+mGWzAj24ymPyWopfWBVidEVPVi+gest9CVejpL/+lpvaA5+9o2297j+M+4q46JNXtjc98eL24X+6ghun/V/dZlyyj/vwSca4C7pevniqp/uq2zrfazCHTz20CFuvABIgMKF4yN2fatZwKXf/yadVgWXMdoEa40cL3u3MXe22P7TTwetwIPHIkz9YV90/3B/c+PodbG44bHnl8Gbi5sM6toSLAJU66r4vacc95pEH5M31s7/9gPb+5/5C/RGu3lwxVQQxfc+xP5xl80CP6WOtGvJFJsfLLR1NHu5KRh8s9mXoccL9znse1B7yguveXP8tOPjIje1x9TvZG33XQdzvbCWcbH/2X0b+SGLTy2I43ReGPMT9t6qsuHlzZazy4Pb+5dMyW1DjsJ3ARZFFf4SmOgDSZpYVV73kw2I+jCE02RmosXXnxvbw1xxy3Zvr1Qq4M7ipcHnj/NO0GNGVqCSoQqIQyMsN37DlS+34xz+sHXnvl3K8nsC3vX78Lc9uH3nty9uVl2/W3DitzHfMM+ADayvUSPtAmcLKaf3hGdHN+kL0rFHHxk2t3euJ29r3PXbbdT/A+N+Bg7ZtaA95ya52mx9c++3C3EXvu+6f7iUvGDM0PcMTcgdy32HDlLxGPleRiPrLEU9vfg44OfdnkoiX8upfqER/U/WBLwmkimZUa+3QYza2s95xWPuG77zm/AeP/2nQ75/glz+uflP1O68eIsUpwoU5GYRPfs7d2sG3+mUk1xVXXrqjfeiFb2mf/OVHcR6YTpBfGjD//jvWQsZcSgEZxjQkRB/6Ua2A8VRPULUuq3Pbjg3tR160o33H3a/7GZv/EeAe3f2xO9v3P2Mnf6HSjuN5ZJKjbPZ4Ro3KZ8SUkTeuPA9g4WDcCqSQT4vIOaxiZGLABJz099Cxrp8mED96dV9yFKsDpAp3DS4Y2z/lpvgw6/B2zGnXfZh1tQTvH28gBvpOLg1gnCiSHkbElSMqlxFo20//K4/WD5d9+nrtgqf/Wrv4z2/vCGaoWcGOh9kvAE+Yq/FYvoOESNLK14M+1ksy88aqW5dDjtrA78z6um+77uH/anHLu21rj3rNnrZtd79J2v/cA9gpRUz3K8/5DNzfMOY7C4DLfFmUZWnEYI35+Vhk6NbFeoDPn9yO3h9zm7OQ4qBevzPW64+pjm+9y7b22J859ID+h5fX4SsANx+nbiACbSMDBd1OoDzf6B4dyejm0Lrh0vNu3M5/8m+3L57vb2nkVPG7UM0mvwPg3BGHXwfiWiXmP2bOpXidCuPCqPgIIs9kr2ArqH/jzz994pt2tmNOvu5fClxVOONmW9qZP3vw8odCT/cP90L3D67iiywGvH0jmmeF8Uk/cxDBGT0d0RY8VOj9Xbdn/VwA1JCm57PXqqP372xKGe/6ej+96+N3tR98wcHX6B9jee0H7g3uL28gffzo+bK+0Xx4lBDgC+TTwdeIrxcu/rM7tvPrd674lsb+UJfJg5kYH0ysZ4oR5MLgFw+HaFWBuh4sDzbEwuyFopob2k1us7n96E/uaLsPve53Flc1jjppUzvzLQe3026KN1nfQdwA3TQaYL7/sXYJ3He+oU36cPmeVz5rRTPp1QMDv06SQE0k++tnIZfvgPojrv70kSyHzytiCE6A9KDtrf3ITxzcvuch132YdbUH7z/umt5/MFp+BIOnYgFn9Rx0zL/argc+9SuPah960c+2K79UT1u17m+qXgaweJFgzFPMPMhAz9PRQ60qevGBEE5/4qe6QHzobvuAg9oDn72dP//0OnxtgH/f+ajXHdy+9c74UGfl6fM9Siy/w+S9d5BvfkbUMz9pmkowV3Hq65z1E2EI8nzUmLYALX2mh579e8JjFerzYLpw6NEb2xPfdli78W2uHT8j+FqPPAcFWf4zrbqrvLNzqt5qEKoLLeB03tSWD93XBnuv2Nw+/JpXtH95y7Ora02gWqYv5pGHU7G8IPS7AURwzTTBZcxjcBibgzXG2dfW44A2gKFyN27a2+7/tG3tzg+7ev1X2tdW4I/GD/ixXe3Oj9L/ftpvTTmL21TQ/VccFvdZ9x+xGtftQi6/cwRyB2EZqkusosx4DLesCznSgRTr2rI7eqV/HZqHLKiL/nWe9I2b+Z1Zx9/guu/8u2ZBdxD3FLb+TJtbW3AQwLODFC2gcIUU+Fq/qeDftX7gOe9uF/7ODyiA/phP+tsyaGBReoAFWEwTdhGngwd+BSrgQWCV4xjt2O3/SvsO1/1LgfXG9zx4R3vwS3a3g+Z/odRvUd6scshnro74EYC/gPVKL7moQH/Oregz1DMnbl4nev4UG5j0jiNysztta4//ucPaniOu+/v8axJ0N3XN22O9weYml0VwGuKcn6E8kGsezKsYX/rYyfy218///XeoP86aW+/vSWKsB1f+mhcQzrrgxIK73hoymGRQJCAWQBwy6484fmN7/Ot3ttNuct2/FDhQuMltt7bH/tTBbffh+B2gbh/ukd7MFMAzwqMIeTbW3v8BZqxXDpH5tJ7DuvgZUUZAqPfAUT7POtb0L7KHRPzvffTO9qAXH3zdXzldA4E7pvvoe1unfwfrm4kgWbYwtjPyR5uvBb7wj9/eLnjKb9ab7Kkc9/5TuzysmAdfVLCI1aHp50Uy9MvZZv5DS2LWNK8Netc49Zv0X2kfeQ36r7SvrTjpG7a0s956SDvuDN8L3r7xRqa7WgefDxDGPcUwI/hMA34mdPuT6Vl5DuX5H1n353OE+DhWMb9+XK5t2dbaQ15+cLvjI3Yxfh2uecAtxe2HQ1vw72DrhMmzQBK+FO8PAx+eiqJAJ191+Ozvfn97/4/9t3b55w513wpyCu7vnnmQYTk3WHPC6lqG4Xj+HHIgS61jxFhXQuhx89tvaY98xY62c8/IX4cDi0Ovt6k94c2HtG+41RbeI955ftWzgYP3FvdY9zL3P3caQJxjOFD224sEYqgDUxc+M3bJGVDMUdLGoa/x5stn1oC358iN7Qk/d1i76fdc92HWNRl6duqC2+x7vpF3GCeS9vMA5IHJm5kHtjJXFT7+9qe1j7z6J9vey/DT7itQ9dmCVi+YVcwvmMyVL6oK9GlaDxbjDMbyChEG8s0Dkr7TQ7e1+z9t+3X/BvFqiK34zrlX7mnfdf/tfEZ0/5dvtv05YVwYd7JuNm44OdIyJjFt9OI5bPR+FaQyY7N6/0pWRm0Qt3PCDfVh1on1O/LrcA0H7nG//7r3+newQW6+HTwQtHyAxu8YkYe9KnDll7e1D73kZ9onf/FxClRrTinl82CiJ45pLnXpDypY9HCpM9MjrQ4lpIcvW+ekF8ehGm6uZx7/BOt7Hnjd93xfnYGf93DPs3a1+z51l769tj8fyPqZIdMhWDt6furkOCw/AJM+qehsqM/rBaU00rMquH9KRl/OTb9na3vCWw9rhxx13V85XSvA+69nALcZp76Tq6K88bn5dvLgBHqYrjpc/tmj+W2vF/3JnZf98xS6WXrq0R2gxFwYeMxH3slyqF5bQC7N8HcduqE9+id3tJve5rrfWVxTcKt7b2+PeNXBbSv+TT5udT0Avr3j2YjFpZLJi2FWgniAyiWfqfH8ST708jWARR5sp8nTm7m0d3j4zvbglx3MH3BzHa4lyLNQh+4/3mBx5c1XAuCDMT8sfFD1ADnKr68Gl77/G9p5T/6t9sVzv2nqX6CPB1M9NA9NsvfnRfNEhr4L/P/svQegbFlRLrzunTszd3JkAjnJgIBkkBwElSAmMKEYUBQR3q8oD3nqM6CI2edT1GdWRFSQIAomsgQFBERBggwwMIEZJt+J9/71pbXW7nNGwu3BCf3t3rtqVdVXVWvt3fv0Sd2MptED9I9hDZgLtkCBxPxkPPkWO/nLrJvffvOXAtc23O7eB7Xv+/2j/Um9OqE5yzn/tELv5x+W0uWQnbqFw/btzfVfOq6rilOo9GC+lkCID5xdB7X2zc85sj3qew5fcDa49iOnfL5/6mewAC4EOGjwBeOLiBdTWafbGR+fLS745y9uH/zBl7XLP3GyunIuloTiXmRLs7iYEyiBQLgw1EVOhTZYJQZfARMUaIh/Cj5K+9euHx+lfV3Fybfc1Z72h8e0m3/BLl8bhs9/P9LhawOAH8N+Uem6z2UCtyNLKlbPDemQuA5pg2mSwBHH1Rfu3z223f0R+meJDa5bwLWBM42d962SvIvopmpQRajVXF2+eJgEtonymeDslz2xnfqTf9D2XpLv41wi+5Q4F2bAC9ZSWPJllg9x0TvCm/mF8O/z6APbdzzn0Lb7MNk3uPYC7zj1lN88ut314fr5Oc8ozjOvF51w3PwWF1DtOArjGog2Lh/HlaPfVL3hIYJY4dz4lF3t6X9ybN30Nz9yuk6jTni/ckrnDZZfgY28ctXNrHRdhbx4dDEhqJs/bezbe0D72K//XPv47/xEjUz21TenSi+sPxXJ2Ncro9SjUYrCZYFvZCtgvKVpZcMbMnz5kw9uj33a9fOjtK+rOPCgHe1bfurI9vDvPJRnmqefpxxKXUu8Rjy0LZdI9xWih4+riuoUI1ttCCrzzPmCB+uXWfizsg2u28g9Cucful7B+mKApF4OBfJKoa9fUHBTp/nTwpUXHdlO/Ynnt3Ne+U3kExOfdSzTC+u7Hse1b6kPJYCLRuziI0gjQOMOq/hE02/9yUPag75285cC11U84rsOa9/8U0e0Aw4c18eQBap1wPVic54oM3B98YrCpVQbbqhyaEx/7bj0eP0VHvqth7bv+OWj+OdkG1y30c9/6bl/8c1ecjFAxlEHXkC4yODNxebQTxuXn36z9sFnvLxd+C8PlGFOUKoacn1sc33otaUPxkx8aIyFTjMOtCoeRvjp7BksWzvq+B3tKfgo7fttvm27ruPuD9/dnvr/Vt+s2tea9XEs4PqzymtOF9SkC/36G0xecngzoG/6ySPbl3/vEeJscN1HnWfes+oCwI5rYmdOfi6UODDybargiwqiZGI/FS5+zz3bB57+1+3Sj55CHlFK55fIhbmojyYnG8FYCPBtolQG8rqxNwoLMWsw3+g2O9v3/sZh7cb5V8sNrvO4xZ0O5C+/TrplbrK41krggIsCQg5dPlQ4xFXTr7Ou1wYlTyo/lfgnfk/9nWPavR69+WXW9Qm5Pvo9rbb+5Xw4NYBEYOw2+yLi4b/Eua/56vafP/KidsUFxyHBYJQyNxDoGh9xkL0+4uzofiq6qNNdv+A5LuSKn+sX7nDfXXzletTx86uZDa4POO5GB7Tv+4Nj2m3vfZAvHFxAvg7HZcZLhzrd9hdy7cqRsfwIO/nWB7QfeP5x7VZ32bzT2vUN/TrxJYJrgz8ioKOuKNnzEheXjSQcvJHBRgMQuRVnPP/p7aO/9Gtt3+X4H/EyIDH2iY/c/fbpIN4P68D6jkk5xNLmMWJom401xt577HYAvtYe8JiD2rf95CGbj9K+HuOQw3e2J/3fo9r9v7ZeYdY1Ml8lAC4bXkOWuM7m76p03ZXMtVoOXE23f8BB7Wl/dCxv4htcH8ErhdcEr53a+o8IAF5AtdFSB0i6EeyLSEkkV7Hv8oPbR37+N9tZf/o0W8wHkLz0wY5j5GFfdZg94EMu7FR0wS+gBB4EYu3cua899mm721c+ZfNR2hvgZ6Q72tc884j21U8/nJ95BeTS0TXHQ+m6Vvr1p6ExrrUHP/7Q9p2/cnTbfdjmu6LrL3D3zEUkoV9ylTLfwOj1vapfdLWH3G/CE6447/j2nz/0F+281395jcQnILHD5GQ9T42X9ZNVktQ6YMd13vnmMIJOGhUERAJl331oa0/8mUPbfR69+bZtgyUe9LhD9e+1h9bVN19j2ErnXhuuzcX1V8EY7tzV2tf/6BHtq37giM0X7us5cv+ixKWC64NfoWuHCxcMJS4oxXapSysYFxtwyYdv1z74A3/TLv6Pu9niREDklCAXK2r3+rXrQnZ9hX6K+uZacgLA1NsxJ+ujtE+5x+bfXjfYHre//8Hte3//mHb0ib4e6/LRVaVtFbxW6xo77Kgd7Sm/eUy771fXV/ANrvfIPRH3L142tffP5KKL15IuKcWW3RLoFxuMvvNd8LaH8N9eLzvrRhw7CSnkQq7wc3OF7PUZDEz15bKCkiv1IWtXCI+yGze93QHte3/9sHbSzTc/E9vgv8aNbrOr/cAfH8vPwsIFiKsqmx66ZqnXtXbiLQ5o3//8Y9vn3WPzXdEGRl0euHvxDoTbUe38gRH0GHPT49jBvuWNOMuz/+oJ7dSffF7be/ERMgLkl6wAxlLq1ekqcsNUuHXzc5+E7PVhpzGSR9a0pde/84M3H6W9wWcGfAbWU3/7mHbnhx1UV5OuJ8h+Y60NKv4C4fufd2y7wU023xVtsETuX7kd7fi+h14EU8ZydjgSRl5kcSJ6O33CZFJ+32TrkVevrDnrhU5bpMTAdaiWzp7gs04o5qHfdFB7xBMOZp0NNvhMgevxZb9yUfub37pIVxQuNV9mD/j6Q9pj/ucR/CXZBhvMeNJNTx23ImMnb3oFOHIhlUZbvop3kRvW4toafKulW1kJ56uBris8saxfkv7QE2wW2d1WUAKpJQ7Yta99ww/ubo/89s1HaW/w2QPXzqOfenj7pmcdyV9i0VbfCH3tDx3RvuaZZdvcXDfYBrwV8dLQPQmqfu9Z49yPEKTboIJg4Lhkv3FGMq5gPq3Ux6tVcZQPemJknW64TkA7jR7UQTGuT5uRpgv4hcN3/fyh7R6bj9LeYE3Af2I95f8d025w013tu597dLv/125+mbXBp0Ddn/TiTve6Hd/7RRfu472NDkiaETpAWyGB9Nu2Gm7zDOTMK8rolBw7bekZb0GCZn0KvMGNd/JtBiE32GDdmK/fDTa4KnzXTU+ti8UDQ7/k8s2KwgG8nKab2HxTSzyjYvbu16jEiBPGTTX2JV9m+RAXvSO8iX+rOx/AP8Pa3Fw3uLqwublu8Glhun8RdZ/aqWtHF5BUHP3teOn90uJNzXEx+kbXYwph8GY6X5gepzw8ueESpShcFt2EV+rP+Qr3+NJd7Uk/v/ko7Q022OCaAt+LfL/yR8botsdXn7mx4WZW+ni1CcA/1CCvWiETz5sp9DnOY7TAsPm+CBeN2MVHkEaAxsEjvv3g9g0/uHmD7A022OCaAt7EpPr+5b8iyCvFOs43VuirmG0MxatQ2SDHjTWvWOV3WdoCaLqpJi0OtCoext6H4vAu9d/8o4e0h33T5g2yN9hgg2sS6j6VexZuV6XvhJG3L9wQEdNvaNYJ3DStlpKbIpLk5hob8xQfox4HMBYCfJsot6kPDTKBBWj6KO1D2p0fvHmD7A022OCaB97zeP/T/Yt/ppXbWG6IvNER1srebaX0m2pnMif5iYNEHCTj7Oh+KrgZ40hLj0uMg5CYH6WNf3u92edv/ntmgw02uAZi5f6HY38vgn4zK5kbLW59VOHCzlD5cDPst08HMYX5sOCoaHplswExtM3GGmPv9S1PuccB7X/86mHt2JM2fymwwQYbXFNR9y/cBOu+pTsXPtEgN9ag3+yE7oYZfN4Eh6TRAFU3TgEy+8JORTfcBZTAA+G+X3FQe+Lmo7Q32GCDazh4W/X9K3ernf2GtrixlTtDSOwwOabfn2ucG6dk0kqSWgfsurEPXo+gk0YFASWhfsX3HNwe8727N/+auMEGG1zjwe/IrUniBsubGW5g803MNz0gMowCE+EmGa4lbrwIjwSYujDRC+IzObiWvMkWDtq9rz3hpw5pD3zs5i8FNthgg2sHxn1v3P/4ClY3u9wC7aphzCACvBEWcnOFJDeSUBSHclnBPTS5OZCsXSE8tqNO2Nme+iuHtdvfZ/OXAhtssMG1B7q74Yh7o25pW39rhBse7nUVRwKlXp2uIjdMhVs3P/dSSN9yZacxkkd1UpYbf97O9r3PPbTd6PM2b5C9wQYbXPuQF5267/EG65tcAAdMuZ+WxM01N1mR/S2+9QRSw6F2uAGG1SaH+NAlazf/Dvc7oD3l/24+SnuDDTa4tqLuknU7w677Hm+wEDJY9c2voHtfBOiTrvDEJiH9oSfYLLKHMQnag772oPatP3FIO2j35Ntggw02uDZhuhfiToZbnV4uwlADuqn7RwJ4kIRwvfpMjKzTDdcJaKfRgzooxq9e3QSwc9cOfpT2l3/35qO0N9hgg2s3fLtb3Ev1Zi++t+nGWECQjf3HAbAkIHEVCBeGuPXSXWPdQ3GTtjR/FGht92GtPfE5h2w+SnuDDTa4TgC3N9zpxj0RN1gYadXu16iEbowDGJPY7TWa+DLLh7joHeYde2Jr/9+vHdZOufvm31432GCD6wh8/9O9D8B/chWGAbpvjbiZTq84cXPUjw4Ujz03XKIUhcuim/D4EQJvrhVws9sf0L73Nw5rJ24+SnuDDTa4LgH3wNpw59O9ke+mVQOaJKP3Hw1oSOimKfj+OYBQGhXDm3ONB2NHu8uDD2hP/sVD2+FHb/5SYIMNNrhuQbdLvejM/ZNv9pLXmZC8AzMyr1jlz40ysQC03HRxP5WFVsX7Jgv5xY8/sH3TjxzSDjyYgRtssMEG1znk/on7H+6fO3PDzGtN3nB5Yx03TwL3SYrabJZUBvK6sTTI2g/Y1drjnrm7PfwJm4/S3mCDDa676PdBv7CE3r9X704NKXHrpD13V9osqSAZjrT0uMQcetSO9qRfOLTd/Ys3//a6wQYbXLehF6S5++EemZ/B2sGbZh0whgVH3Tzplc0G3YwROxlrjB2+G9xkJ/9S4FZ32vylwAYbbHA9QN07+YLT90PIxW+bYNeNU9DtUvvCTkU33IAmJWi3vssB7f/bfJT2BhtscH1C3ft0c9WdEkf/kis3UDkSgFDEY1+9M/cIO+krec+HH9i+6+cObYcekVwbbLDBBtd95P6pF6C8O7ad/IFs7frFlm+2lsAcPOAbKqLApWlHe+R3HNS+/hmbj9LeYIMNrn/ID1THC1C/gsWrUN0wAd0wOZTLCu6hpsFIXQG7Dmrtm390d3vo4zZvkL3BBhtcf4G7J7bcP/VLLjuol6ffPwuQvuXKTqNlHY84Fh+lfWi784M2fymwwQYbXL+BV7F8saobpH9EQPhlLW6etfMOXIAESQyTS4c8+RY79FHat9v82+sGG2xw/UZepPpWSehHBAXdSO2zs997TWSCYWxP/dXD2jEnbv5SYIMNNthAL0SpELhV9ndh5SvZ3GRp9KAOivGr19x9C7sPDXuDDTbY4HoO3xrzGhTDegVbBg7qRirF91D8VYElDeUMc4MNNthggyUW90/pi/eDlUNe3Uqld+RG2zNssMEGG2xATPdPYd/4EcF4gepbq2+m3Y9xXuJusMEGG2ywwHz/1H3S70VA1Fg3Vd1A9TPZ/mNbsedXrpO6wQYbbHB9h26PuTHqftn/imDcfbH7xpqb6uLmysAuNthggw02CKYbY9036xWs/42gbqB08UZaGmS/qZZqCW0yb7DBBhtsEOTm6PvnTr44pQV/NVBajXmjBfSyloHdVpj1DTbYYIMNANw/fXeExCtY3nBz1+WtM3+WVeh2QESaSl24Nthggw2u9/DNtW6OvIfW3n/JRZeNPZCIrjtqRnPEBhtssMH1Hrl/1itX3R/xM1gbeMftL28lCN5whbyypdjcYTfYYIMNBnAfteo7Jf7RwHdb3FxzM51uqv2mS0jHsf8YYYMNNthgA94TeYek1L2Sr2B5q8wNc7qhypSfJwwXGNO/IGywwQYbXO/BOyJvkthx38QNFuCdNHdPOYDcUPVpBwXbN9hggw022Aq8GM1397h/8kcEwrjJ0oShb6h56UsT9ekvDTbYYIMNNijo+3rcP3F7xK5fchUkJp2RGIRmk2/I/b68wQYbbLBBYdw/cX/EPv5Mi7fd6L7JFvDz1mB++Rv/BhtssMEG45443z/Hm73opSpFVEn8/FXRefW6wQYbbLDBErmxYo/OGyzvtt77K1YERDf489dibn7+usEGG2ywHfT7qoA3WBpwqD0/b+XN1Lrus+Pm6tANNthggw0m8B5ZMvdJvYL1AS9M+48Dalu+gp1fuSrJBhtssMEGAu+ftesFqO6ffD9Yvhqtw+yQSTdV/QLMNuib2+sGG2ywwQK6f+ruiB33z528YfL+qZumbri6scYGiCD/ZN5ggw022MDAi1PcJ3GTxL1Sf0VQN8y8ctUr1BqX5A77dEeltw6K2mCDDTbYAMD9s98Zff/cCZsccMmZV6/ca4OVN1r6GNLlBhtssMEGgO6gfEHq++f0d7DjxtpfxXoDcqMFIjfYYIMNNjBW7594BUtDbbyB2hHApk031QqlAonQT5x2JcI22GCDDa7XOPNDl2+9f9aNUr/kKvAmy5utHHntmlewHb65Iub1L7rMxg022GCD6y9e87vn856IO2bun8BOvT7NTbVQd09sfOVaLvpLgZ4bdBK9+gWXtRf/yp7NK9kNNtjgegm8cv2z/312+9vnnssx7pG5f3L8P+53LjW8ktWNs+CbqW6jQly0ww8bDKuOAo7hBeF0omVqLuoX5jCArhrQXvooF043iMdAK1Negnar9vVFcWj64Sv8ksnAtDWgGYaemx6pEKkLCUPCVrDt/ElTP/lKOPpUql4tnNEQh8tIqImDLhVY1qdF49q21C+V9tL7uiRXz7tqEJ+BVMVTvyvrCsUJ04/Z5bO9tl4f1iQIYmB+yNppSmAMSz5GgEKVHz6WoUkcs4YWfg2jL4iB+cLQx/pjIA+OWfeAc4atHl23HVjUn/J3wDkmYwJUkT6t+uZ3nfHm10ZdQ5WPTmDgnFMvvb4JHvZ+kicqMNa/9ImfXnpwSbfpw1ZwLlAY6AzmzUCZmBDT9dQvQvQZ/UcEyBCdtWiTJLGHKUmfzNxJ+DwWHEL6Kt+SNe3r9Ws31fXNL7nK72Rgrh93xfXQ8CuAkqo2gBKP+AHw6RMGHwPEwhOvpRJIB98qMJkJ8FkXucyHLf3hAD0VTFvwwaQjQVSW/PjCsxj1qSNMm2YtsH5SOgEktJQnKGMYfBZF4AofSDQg3fXpd2xtsHU+1JJWl+AkGFADEGDEQZGpS389GC4LAb2vv/nQWb8G4bN+SfA1nvKwfknHSppPB1QGsBZ5NkPn/EvOtdgTNuj0a9P5Fz29KAvgpMjDnsSnn9L1E14Saq9PI0Jd33z6oYNfG2OoTwiZmGpidy/YwU8GVq5Bd9uc3KxojnpBbNijFwcTiNHBiG4ZvuKVYWqPgEzK3ksZMe71EZNcQdn6f3KRHB2DAuOpl8IE1gMEJnjSbemhFDCWkkXoi1QbLFqw0QvQF6xAOoexlWQ9R0PHXkG2FBTb511yUd8bMOqjL5qKN3JBktmTAeJIhXTUSCDBoxA6RGoC1GvLuiCA9Z3KmQlKJeh+RnBQjhhRrFTG0zVWVPTBX/RSG/xZI9qQZ3U+4FhlgPnIILCKVMht6ge9l3KovrZeH7bV+oWeYcrVEzE+dtmcgqDHbtaXSp3VK3iy0qaHk5RrlB2RNCIExboRCJNJxHWCie36oI/zD3fm31G2vobUpUbpfQbFny0Mc6x0qiVcn/pAr58k5ex9Q4c6FRhqeJDDKqaPFENnZA+VovUffMQv5m9+xCqfmPjkmi+u9RIIY6hMhJjmw1mBvT4yRLdAyE40jXGWnjrU8ErhGBoT2JHAOCMLpCcMysTPIkDHCWN9hJjPtCAwrA6MiwojHZJ0ODb1ndcDc6hSZ30+cBGl/sRZ0RHbs3ksQIEHO4JK0medamYrsL4NrF9xrG9dwUsdcDZxa5erjqlDy6R3voXjNH8hc1boNOeC1sQDpht8Sh86x7kGhk6KinQ+IHPyRkcQ2FoTOTWmK/Xt6lUQwxoIqvGUS7GKJJ9jifCph2+d9R2rfuCWLb2xjKEeQxi6YhFYWq8P3XyEUow5s35ylS399Pkjrh7hA9QDDCoW0eRkPOWUuexyKcTe5fq7/sy3IB8wf6k7Q+eEX7serEMXdNbQAHyojCsjouhCAIOE8AH2Yld60XDEz3wc1b+COWeHMpV1zAIRGC7qlwQ/axAJpBdE8pdcclkmB2KYS4srjCQE7PF1KcF6paNY+POCSNWiq6H0QSv5pE18kRZZFJRgyNgM1R/6Cpu5WZ81KzY2WgpOTTj/fJTTOvxKoHEBngxV3zq0smv9ZU2vvX7plPQWTHa0HTjYEVsnJo8yQB+RilUt6ZDoZ6z/kOIIlKLAWXrWGB4o2KVvxweipwYoWn/Xr23uA2AcpER5cQDRehIxXjrP7QofiJpIQOtfVWvv9SFX+J0rM0E1teiQzrWVV71IUw6HzlbVV2zvAwb7Z0mrXOQIVtiL8sQZHjWqqUWVXkRiZ11I9yFL+ALWx8EqYbfKedDro2Zs8bq+dYZCs42sXl/6DNYvKHaQHK4EPdOST60CkwMxrG9+dK0DzoP5JAo6V+Mc0UU+idT7+8HWg3uOU54BBMJDCVVRHhGjYdsnpxr1gtFufo0xXI0nprg4B99IP8izsFsCbFuGSMJ2mBb2FbCDBd8LioPI3LfLkPNKXuo5UnTU194RjoSGGJiPgfLSYOdc3wkK0ZJe9QvlyAWUDQ9BrHAwiov166GIOs71EwTYzDiEQRY0V+m5HrjBmCBgGuaCBxhXUF47zHXIhGGZ+bEih/rBLpszE4ysofq0zbJHwRAfjyQYdpBfetnTf8JQI1FApxbi6c+bQiRswsSeE2GQWoyVTj5VZehDoAa9fumhc5lX+L1+yJQZFEIGUogi9sqAvDWkieapfukjEjEYjXVI/c6lWT7Bekwr/GTAsJsqeNRfYkt9PQGLofF8DHYypA6Q3ENKEg58yGoAXe/LTJBfZvBpn5yIRDMIQRxjMKDPOw7mwyC3azJCdjoYw4CODMMXSucQBtVkL+xRQTjKKoAOaOwLrddSNGuEQdNWPsC4emRtVEdrET5c7MsJFvVrwEgMaIeS+h7aNvj2FXqY+axe+hxDG+1wDF/PB12qjOEPI/cFnybMszCFZp4z39XFL8QHm8Y9tJQppoPBU3x8U30nUCXlFFQXfnu4QeO44pAv/GDQSbQKBdcLvNBxnuDxtV66Q5f1o1UMq6OeN3DYj/kKBH8aBIwBAb7SmQ/wGEcIhpVNpp5B9eWDztiM5+DaZ/5AJyCZ1IztCyX9Y0xbHVAD1tSbYzl/zwZQjAEuB51Ru3QyUMt8WbXO1MrgVlkD1kXuMsCm9TcHfMb0KGlJ5Lj+Zi8YwpbEmYzCgBqbxCTRETNU8hGqRmGQnW74qKs5whJHumtH+kwmYQICIKf6iJFGxMz6GExORA5aHJI40l+ysrMHDBJFkGMLdMQEdI1e3P4Ax6mA8NkZellLYX1aZQ/UcyyTh2odzAdZ6x9I6/XdS784QMVGftnNpwtUJ5I+D5BIQyqwYS+u1h/mHsBQzUGS9Ye7VNfHhvrlSzxALWNK9dhBm+zh+0DAnVHmKcgBGzbWr03xZiBdyMQ0SGJKKOLbWLug/NZrH+Vlpb929M718xbARyR1EDskdkyMk/PYUP7ors+xjL1+6Tp/I17ZarDgRWZQ6ISKgt5dzuAxJPNAj2T4Sn25yqZxdDosCHA5iAVO6azjfmJJHYBhtUNih531HA3ANtePj9JhyUN4/XeawwQCyA5W2h5MZOE0UEODXBb4S4Ed/tp4sZtP3Xz5BabAwe5Rf5KwrfRCk0ZEd9euuvCPiNgAnUTrUwzrQ0muybeqZ9FVeMVrvuZs2xTB+Zu/qO+dFioT33WEqb75nVP2RI76VWXKBZBfpi3zn/iTa8mHfa6PcWwTPxK8Rf+lzhcxAVtxWX8KDVb5o/4M2FBsCAByYhN9/ewQRVufq4zE4Ftb4Y9gE0uwZUhYepyg+jHiLOiccv62L6YMHZQA/B5QEjpsU96eBzv9HNKAeSYOXPh7feZVH50Cf9dxnPgAjKxv3XwZxO9gaLIJquWunCu22S+9EHpPO+cXv0uY6A+pm0mDJ17sqZU1ATR/64g2H7wFaMe7aSEx4jARRpmBhL36pJYyWc2xH3nshcRmN/2p01NZQwz9GDARlWmHcAD4PWSZX1JxrN4DZeeClYw9kmlr6/VdJ6UJxipyjiGHqoJnaZVQfp2cRWwl6OuvQGHiqwYGPtFxICecSsDA4Rk6oPoIYwelqxdQsy6Li78QPq3JTyMOHtAZB/JgrIgZyq8wzdU1vUUHMW0gFuDQAx6pj5rapYdDaZ2hfQCf5oqY1fqyIUhxAMfm82i7BuXNxMiPhN9xha6VolqyoQ/R0RNsYx1GzxoDShl7ASQADudhfRl5BGymohqhsBp5Q0KT3mGVtq7jqFgP5K+e2PvEH2p5ECKVtVi3tkX9kr2+AgjlLUUhAxnMcgqYNZiREkYsn9afTnjtc/1BJHpPBfaC4PBFxMEGvBdB9PKK7OVNZbNpI7L8BecCYAM9XkjpyQuUhTkVHxlv+lCIuNwnPpx0d2gEzvb1kT98xMUvIGZRv+evY4IQ0fWuCKv5MkYeG+eTMrIPGTdFmekJv/aZPwUMwpSArgJk9O3qE+FL6XFzDmBRf6ILg48+6EbvNAiL+lv4QPnLPuIUlFCZV4gZzubUryOlfdvyCdUN+hMGBzzs28qP7nj6gapvl85dHerRpxUsE3f+6jpnFRd2YoUf1Jgecq0Utp4/2ctjKfQ4u7ern9aDPoQj9TGcjlv7F2gdCRw3Mui5ZLvNPdwY/UBBXAJLzvxt0K1WdJ8YfD2HBx/rga2jzNPIeQYfun9EoARxMuG8AyQgUmOaYWJIHUpXhGJgi4Q9jWZsCmUfGMwnx/ChfrfTYygnwBQMc237RF+p73jElLE0GwrKFzt2Zhi2JABqHHqAsWohDPW0QWf94kvOJ09gapjqELmlPgDpNbGlAy7mtWR11IKvNvYCe1+TlfpQYLeEFbFKoPEsowbKCaN0cMPnuLbeB7ayh84wcuGBkBN2GuhjUJeKR1BM4eKBOnIB6af3YT50IDZymUQIn0YMKEspqWqJsA0mS3jiVS1L94Ft+/qStCdBDPClPnTzKWmD7vplIr901pWn16KNAWUpmbqIwQOEcf5qTEjBUfUBBjIoXrhgmvmlwSNJm3QEig62+oKkSxGMdwJKhShGjkKNNQdUUe6Z7xa7nGMgO9c7wHXB5nGpICDMhxmOq72/HywSO1qVWRGSnp7Eo27uQD5vbBRUSgWi4IJSA2akUROTBXuNyIssuL6Q+EAjVq8w1s3mPKwfUnriEUBkAWQaxRl7gfWtd2n0ENevsapL0ldb9IkgGZgvt2N603bMvhV+hqnPR+ZaTrMEDia+nd2SuhN/gfBLOrJzMU7duf5WzLbEURScdebb1KWRIbkOG6HSti0f9ASusw2GNcEFGzsdY/dJW2Sh87Ou9oxrolBBuE66qWTCR1s2THmo1UEhOsZNibyrfMucHwHXnwNnfmFeFzN5BKKxd8fFtjj/3YiHBjERFaM6wzfO32r9QkwxIIZ1RvbOd3BCKRHKkYAa2Odrd0v9Gs6cBRiDvVgIqkPdYGVgA7A6DyUISVzoqiXdtaUJytlXB+70dRd9ZMCAQRfKQ8DQ9xpXbwwhrNHtG0fp6kM+VOVWfsaAH1o4AIw1oI+rEh8MtcPBGN2k5bIs0EUFIeJrONWvDb2F3/vhSKB+VfWpr9RnbDwCTL0GtlKvsj7HHBJdL8l8MMBGB3Ymh8cS42EKrw/LAZ9k5ivv6IcD2TgQVJ8qHNo1uWFztaGiBiwaQ3Ivu+pLh5NjSESQYB/yFBA74ACAfEsGZUbAVJ8jHSCxM5p1LRFbMhkolbIEFOkpSWQwyd5B6cqNwVhbSKhK7ZhI8EWgTF3KiU+dLsdaKvnQtaZAJMyoURakZMxEwWYnfVxTxQIIox8KibDCJklwwOTKI6slK1Bf1LUBIl7I1A/YO/3iW+18jTOAcFIAsgLrBjuWlUwGWca+CoZosfrFUMgiRdLf8xRcXCU0YFxCaMPA9aHG6XoB+QhJHGy16SRLwtzrux4Ay6I+ldpdX4tKNgJKAqv1Jbu7JOddG3yqX9vED2Dp9b0TqU9XPN07tFJmfsD6qFeuzEvHAdrKd5X1a0BX+u79F6LOfNgcw/rUYMLcJevInmj3Rj79iRlgaEwrfDnm+vYjRCkZayv92ALZl3xucLiGXcTMHZjXTxmB1frA8A6g5szXVoCplKwNwL5WscJXEGxWSwkP0moHOOKXVgFZg+Tk9a+UPU/WRnAskyeobLUpfL4O4CmQLyuOi/rQSvb6JRUp+7ZwrGpLdh6l7JrZEqAkNn4c05N8gw+4mgATYwH5AfKVXLLAV7AMpZG2EUSU3yo5pc8NmC2b+VkseFhUj4mfgfwcw5EEyG0eJN0T4OLCI4QxeCwXJXlZv4Bj75mDwedYRkfgOJzwKIH5QxWN0vX1qBjU55EExOViMYWAnWMeKgNCGAaDdtZQApqoImSCbLYirAysDYBTm86LfAG0Pio/M+DAGARbZZTyc64upQSqND8ZWB9Ec1m/Nmrhw82dQUTPANPE1z5I4TsBxageF47QU9P1a+vnAlxsClXegD5JKqMo5yJojActNsuKY0nkgR/1qQ8+YrghtEyw9zKx81CAw+NFfQW5dyahiSy6UUG5GQm+i6QfRpDqzAxEbAYAPTSSD2f2ipEXx1xnNNeD2emhqRzhq75sgOqrTxzElM4ERA00WRC7pIV27MobiZ0lYWGs14JH2QDEyGc7pFSlhs5YDAA7kTMmFlIGfughCaN6PUwyHC9/6Whgzs+GKwgx0DUBgcuFAXwY2xG/4MRKRv5IwGoL9DEVTCQLJm76YcjEV5xAab52DJihRMYQ6N867d1jjHpkpz6i+Bh82YWRw/VsQAzHU+SifqmDq3jmLSNYfTxFkY+0tSUXJDWSoEhurT/4OiSzjrAkmnrqs07tfCR27qu0qBN6ffpIliRcafKxpkYEx6jPkY8upLSJHByQ0gtidCjESFk2mgcfOkIZPvE1T5hkVH3x0wtAP7i0S2b9BMfCGVvolFN9YOLD3UMnfmzAci2ki0/DBAxSZELlhXXO3OvXkBZK+YDYKDhpYFwXWDvwgznehQox2IR450p9IOmnMmZOx7KpX9nIH4UUgwPjJoPCaacDfMZM9WvfOaoXrHeL4jpfuow9CRz2pUkcTS2JguaXXOV3MjH4I4H40s2rAEqq2gBKPOIHwKdPGHwMEAtPvJZKIB386IXJTIDPushlPmzpDwfoqWDagg8mHQmisuTHF57FqE8dYdo0a4H1k9IJIKGlPEEZw+CzKAJX+ECiAemuTz8IePgJBJ25JK0uwUkwoAYkSzoydemvB8NlIaD39TcfOuvXIHzWLwm+xlMe1i/pWEnz6YDKANYiz2bonH/JuRZ7wgadfm06/6KnF2UBnBR52JP49FO6fsJLQu31aUSo65tPP3Twa2MM9QkhE1NN7O4FO/jJwMo16G6bk5sVzVEviA179OJgAjE6GNEtw1e8MkztEZBJ2XspI8a9PmKSKygbYhQIpTAnBWZO6Rhhhxd7vYKdCNZt6UkpYCwli9AXqTYmhF47dUaMWIB0DmMryXpODB17BcEiKLbPoeSivjdg1EdfNBVv5IIksycDxJEK6aiRQIJHIXSI1ATUSeqXrQJY36mcmaBUgu5nBAfliBHFSmU8XWNFRR/81V7gzxrRhjyr8wHHKgPGwJJVpEJuUz/ovZRD9bX1+rCt1i/0DFOunojxscvmFAQ9drO+VOqsXsGTlTY9nKRco+yIpBEhKNaNQJhMIq4TzGGqD/o4/wjI/DvK1teQulQOCr3PoPizhfEmSadawvU17Oj146j4PmvoUCfSUMODHFYxfaQYOiN7qBSt/+AjfjF/8yNW+cTEJ9d8ca2XQBhDZSLENB/OCuz1kSG6BddruE01v+SiftdxzSkK8x2vYCML0HotKHZBzyJARwPYGGK+kpfOsDowLiqMdEjSgdjoMCuvB3RZJZ/1+cBFlPoTZ0VHbM/msQAFHuwIKkmfdaqZrcD6NrB+xbE+dOQxn/WTq+Bs4tYuVx1Th5bohc63cJzmL2TOCp3mXNCaeFAyPs4f0ofOcS57CiMXKSrS+YDMyRsdQdJ7pxgjH1ypb1evghjWQFCNp1yKVST5HEuETz1866zvWJ0juGVLbyxjqMcQhq5YBJbW60M3H6EjAk7VT66ypZ8+f8TVI3yAegeSKhs5cGI85ZS57HIpxF7NVyNw0k/nW5APkD/rUhjWOeHXrgfr0AWdNTQAHyrjyogouhDAICF8gPXtmlrpR2Dm46ieFcw5O5SprGMWiMBwUb8k+Jl3JJBetAK1x0Xukl8HDqHLg3rpBX9FQA0JQ5Qgr3QS7ZsXRKoWXQ1pIraSr9SDL9Iii4ISDBmb0fNQB3fBZm7WZ01NkjZaChM/+eejnNZZrGQnyJOh6luHVnadQFlZH7Y6hEdJb8FkR9uBgx20MYFMPY8yQB+RiJUvOiT60fpr3Tmlid+lKHCWrr7lgYJd+nZ8IHpqgKL1rw222tTHxDepc3kA0XoSMV46cmo8+EDURAKZ86I+5Aq/c2UmqKYWHdK5tvKqF2nK4dDZqvqK7X3AYP8saZWLHMEKe1GeOMOjRjW1qNKLSOysC+k+ZAlfwPo4WDF2q5wHvT5qxhav61tnKDTbyOr1pc9g/YJiB8nhStAzLfnUKjA5EMP65kfXOuA8mE+igL6wM4YSRtk5KEEFY2IiG5qbYlQLNPWCAf/RYDS5qucgqFEvGO0qiDGGq/HEFBenmpqQMfLMrlnnHLbh2w7TlrwT2MGC7wXFQWTu22XIeSUv9RBZuuior70jHAkNMTAfA+Wlwc65vhMUoiW96hfKkQsoGx4zwkGOuFi/Hspbx7l+ggCbGYcwyILmKj3XAzcYEwRMw1zwAOMKymuHuQ6ZMCwzP1bkUD/YZXNmgpE1VJ+2WfYoGDoXIMGIw9d92dN/wlBjpndqIZ7+vClEwiZM7DkRBqnFWOnkU1WGPgRq0OuXHjqXeYVP9khrmUEhZCCFKGKvDMhbQ5ponuqXPiIRg9FYh8y/c2mWT7Ae0wo/GTDspgoe9ZfYUl9PwGJo3FNsgTOu8AHWnzPUI/Vhm/4OVmBRxFUS2icnIpEKIYhjjJvEkTsO5sMgN0oBdtJYO2MY0JFh+ELpHMKgmuyFPSoIR1kF0AGNq2uWilfRrBEGTVv5AOPCh/Q28+FiX04QPoc1YCQGtEMJ30PbBt++Qg8zn9VLn2Noox2O4ev5oEuVMfxh5L7g01R9wj2FZp4z39XFL8QHm8Y9tJQppoPBU3x8U30nUCXlFFQXfnu4QeO44pAv/GDQSRw62EwOHecJDl/rpSd0UT9axbA66nkDh/2Yr0Dwp0HAGBDgK535AI9xhGBY2WTqGVRfvqwJkH4IiNpH/RmdgGRSM7bPEZ2PMW11QA1YU2+O5fw9G0AxBrgcdEbt0slALfNl1TpDwuxWWQPWRe4yMBJByAMdfMb0KGkZOg5AHGG+4sRXptDUC8zYYdPfwSYXHfKoURjsK9DHcZIXLHGku3YUyWQSJiAgqhXESCNiZn3okxORgxaHpEKVCxNDeQwSBYhjC3TEBHSNXtz+AMepgPDZGXpZS2F9WmUPFvVnD9U6mA9yLhRBGnys6176xWG76pfdfLpAFd36PEAiDanAhr24Y/17AEM1B0nWH+5SXR8b6pcv8QC1jCnVYwdtsofvAwF3RpmnIAds2Fi/NsWbgXQhE9MgDhKgi6+YEaf8Bbc2yiuG/trRO9fPWwAfkdRB7JDYMTFOzmND+aO7Pscyslo5YNf5G/HKVoMFLzKDQidUFPTucgaPIZkHeiTDV+rLVTaNo9NhQYDLQSxwSmcd9xNL6iCeYbVDYoed9WA0YJvrx0fpsOQhsv5QeSxUAC2e26I+NPhLB5Xt1sY3e2Euo08e9toQRBuNiIXfOv0CU+Bgt0JonWSBxcwqHdrkHe7a05fqC6xv6CRan2JYH0pyTb5VPYueYguv+ZqzbVME52/+or53WqhMfNcRpvrmd07ZE7k65+QCyC/TlvlP/Mm1rA91ro9xbBM/EnVX+b7kBmArLutPocFV158BG4oNAUAOtrS+fnZAoCdet14rllyGFaxtqZ9g7Es+xJwLUH0YAZwFnVPO3/bFlCc+zeD3gJLQYZvy9jzY6eeQBswzcYwsf6/vYuxJAfJ3HceZX2D+stE8+DKI3+HQGarlrpwrttkvvRB+Tzvnd4FImOgPqZtJgyde7KmVNQE0f+uINh+8BWh3NtQPx70oHnkpPFIobNiRfye5hQSmOCSb48gEkhMxYhGjhFYIyOwQQ46QZX7JUlAHWw+UnQtWMvZI1q+t16eh5KBr7Mg5hhyqCp6lVUL5dXIWsZUg68Jc4ZQMXzUw8ImOo2xc/5wVCDkoowPJDzn3AmrWZXHxF8KnNfmZGAcP6IwDeTCuoUSH8itMvbimt+ggpg3EAhx6wCP1UVO79HAorTO0D+AbvazWlw1BihuQzmPsEFxAJ3MeSfgdV+haKaolG9ZcdPdUG/pQaFh0EEqpAY8gAXA4D+vLyCNgMxXVCEXVek+U0KR3WKWt6zgq1gP5qyf2PvGHWh6ESKVk3dooy8n6JXt9BgvKW4pCBjKY5RQwazAzJWQpWn864bXP9QeR6D0V2AuCwxcRBxumWKoKnKyqDw1Gul2/fNj4Sy4gQTk5OnHQc9EBZfEFoaNkvApDjGTfJz6cdHdolEWKFzL6PKWt9XMxukzPXzJBiOh6V4TVfBkjj43zSZmydxk3RZnpgYRS+8xfBIQwJaCrABl9u/pE+FJ63JwDWNSf6MLgow+6MXcahEX9LXyg/GUfcQpKqKwrxAxnM+pz7Pr2Ke0cGKhu0J8wOOBh31Z+dHUWASUcShzqMU1fWCYeaVYCs4qrdiYFVu01pqcOitiGnwBiye9xdm9XP60HfQhH6mM4Hbf2X0C4pZD7xMig59J8/5jCjdEPlIqLAXIbvuKEbrWi+8Tg6zk8+FgPbB1lnkbOM/jSxR9xQ1u0VdA4ftXiv8qygbLHxXtv2SJhT6MZm0LZBwbzyTF8aLjb6TGUE2AKhrm2faKv1Hc8YspYmg0F5VPsiDQLtiQAahx6gLFqIQz1tEFn/eJLzidPYGqY6hC5pT4A6TWxpQMu5rVkddSCrzb2AntfE6UCXAXELmFFrBJoPMuogXLCKB3c8DmurfeBreyhM4xceCCUh/3RjAODulR86YgpYExWHaDBbBd9mXfWIToQG7lMIoRPIwaUpZRUtUTYBpMlPPGqlqX7wLZ9fUnakyAG+FIfuvmUtEF3/TKRXzrrytNr0caAspRMXcTgAcI4fzUmpOCo+gADGRQvXDDN/NLIkRw6AkUHW31B0qUIxosoqRDFyFGoMbmQtcE6+JirKJFzDGTnege4Ltg8LpXlOIytw3G1QyIniymDa0z1EVM67Ikit7b+CpY2b2yUBEhQnISaUYOiKCMjAViw14i8yAI66Uh8oBGrVxjrZnOeTIJITzwCiCyATKM4Yy+wvvUujR7i+jVWdUn6aos+ESQDlO9lHNObtmP2rfAzZH01IVnYbv2Vc4luSd2Jv0D4JR3ZuRin7lx/K2Zb4igKzjrzberSyJBch41QaduWD3qClToTBn1y2tjpGJtPG6SdnR+DWeOaEHCddFPJzh8JLEYQtTooRMe4Kcu0hW+Z8yPg+nXgzC/M589MHoFo7N1xsS3OfzfioUFMRMWoTnzagK31CzHFgBjWGdmjJTgjSoRyJKAG9vna3VK/hjNnAcZgLxaCwHcu+cK1n9o4Yv2wsaZr7+yGAqX7QL40rJLdRR8ZMLiwhPIQMPS9xlWQIYQ1un3jKF19yKdWXR8x4IcWDgBjDejjrOODoXY4GOOv7HRZFuiighDxNZzq14bewu/9cCRQd6It9amv1GeteASY5hpQKWvbUp9jDomul1QbIFumSoIoMR6m8PqwHPBJZr7yjn44kI0DgfUDJSnjNvWRqauoAYvGkNzLjpixNloH1kcETI5jnoKF4QCAfEskVAZjqs+RDgiFzmjWtURsyWTomUqgt+jgd2QwycFLbgzG2kJCpa+2hQRfBMrUpZz41OlyrKWSD11rCkTCjBplQUrGTBRsdtLHNVUs0P2IJ5Hmzic4YHLlkdWSGYbNSqdA5xG8UT9g7/SrvNXO1zgDCCcFIMFnDoE8SikQ8ULv624D4nb2i6EAA59IlvAsmjaZfSAj9YpLCG0YoFpJqHEipzSCfIQkDrbadJIlYe71XQ+AZVGfSu2ur0mTjYCSwGp9ye4uyXnXBp/q1zbxA1h6fe9E6tMVT/cOrZSZH7A+6pUr89JxgLbyXWX9GtCVvnv/hagzHzbHsD41mDB3yTqyJ9q9kU9/YgYcKqzwqYcPLX6EKCVjbaWfNkP2JZ8bHK5hF7FkB/P6KSOwWh8Y3gHUnPnaCjCVkrUB2NcqVvgKgs1qKeFBWu0AR/zSKiBrkJy8/pWy58naCI5l8gSVrTaFz9cBPAXyZcVxUR9ayV6/pCJl3xaOVW3JzqOUXTNbApTExo9jepJv8AFXE2BiLCA/QL6SSxYyvxmL+vCXAj18+mAs8BUsICNVOjGGhyQ9uh+mDBiHMSLKJmsdzYOkewJcbAAhjMFjuSjJy/oFHOOnaeJzLKMjcBxOeJTA/KGKRun6elQM6vNIAuKyaKYQ0DnmoTIghGHxIA9EHaaelWlgzg9nrw2AU5vOi3zhI8JRzE87DggUUSqjxCJ/kUCVev0C64NoLuvXRi18uLkziOgZYJr42gdp1NcYYlRXdPKOmq5fWz8X4GJT6MgL0CdJJU3XnislYzxowaF2WXEsiTzwoz71wUcMN4SWCfZeJnYeCnB4vKivIPfOJDSRRTcqKDcjwXeR9MMIUp2ZgYjNAKCHRvLh5E6jvTjmOqO5HsxOD00TX/VlA2BPnziIKZ0JiBposiB2SQvt2JU3EjtLwsJYrwWPsgGIkc92SKlKDZ2xGAB2ImdMLOQMkCt8jHt9HvCAEVYIrB8c+VfZGsgoXRMQQOmJORYihXjEZfIeqKIz+pgKWsuCDT5PIEImvuIESvMX9aGjfiLBdy7Zu8cY9chOfUTxMfiyCz0HcmK3ATEcT5GL+qV2bqHXK6OoU32DfPhq67lKUkMp7ID5TLQNX4dk1hGWRFNPfdapnY/Ezn2VFnVCr08fyZKEK0021uwjj1GfIx9dSGkTOTggpRfE6FCIkbJsNA8+dIQyfOKnfl+pid/Xv0A/uLRLZv0Ex8IZW+iUU33nCh/uHjrxYwOWayFdfBomYCD+ApUXVpzXEHr9GtJCKR8QGwUnDYzrIvxgjh8txGAT4p1r5if9VMbM6Vg29Ssb+aOQYnBg3GRQOO10gM+Yqb6PdMk0eCWlKp7zN1d8efUjAum9SRyTD80inq6SKR7ZycTgjwTiSzevAiipagPSiyZkEvj0CYOPAWLhiddyXhHwoxcmMwE+6yKX+bClPxygp4JpCz6YdCSIyuAz2L7wLEZ96gjTplkLrJ+UTgAJLeUJyhgGX/XLtsIHEg1Id336QcAjF5B5UEtaXYKTYEANSJZ0ZOrSXw+Gy0JA7+tvPnTWr0H4rF9S64/xlIf1SzpW0nw6oDKAfPIcAp3zh8l81kdP2KDTr63Xr91qIYr4rMWexKef0vUZjhgxe32YIVGzgiB7fejg18YY6hNCJjAoL2pidy/YwU8GVq5Bd9uc3KxojnpBbNijFwcTiNHBiG4ZvuKVYWqPgEzK3ksZMe71EZNcQdkQo0AohTkpMHNKxwg7vIrIPEXR/CUBMmCAvqgvv3/JJUIn02WyAZv4sZVkEXqkY68gWATF9rolkxMStbEBoz5OHk1sOLkgyVyZRCYqkqNGAgkehdAhUhNQJ6lftgpgfadyZoJSCbqfERyUI0YUi5+usaKiD/5qL/BnjWgrkROYHDCaroAxqF0ZhrHkNvWD3ks5VF9brw/bav1CzzDl6okYH7tsTkHQYzfrS6XO6hU8WWnTw0nKNeYwIlkfISjWjUCYTKI2zefRsaoP+jj/8GX+HWXr9alL5aDQ+wyKP1sUr1jq5nOtS66wR/04Kr7PGjrUiTTU8CCHVUwfKYbOyB4qRes/+IhfzN/8iFU+MfHJNV9c6yUQxlCZCDHNh7MCF+c/ugXXa7hNNb/kon7Xcc0pavX8qfUlX31br32+RsDnK1jkjUPhpUPBgaSoMNIhSQdio8M8F0HRrpLPhvjARaRt0diKjtiezWMBCjzYEVSSPutUWa2D9W1g/YpjfejIYz7rJ1fB2SYuDnVMHVqiFzrfwnGav5A5K3Sac0Fr4kHJ+Dh/SB86x7nsKQydFBXpfEDm5I2OIOm9U4yRD67Ut0vsAmJYA0E1nnIpVpHkcywRPvXwrbO+Y3WO4JYtvbGMoR5DGDpj3c+oD91mhErACqfqJ1fZ0k+fP+LqET5AvQNJlY0cODGecsosUg/hCOyx/uCkn863CB/jpS6FYZ0Tfu16sA5d0FlDA/ChKq7qO4b85CuAnxysb9fUSj8SEx9H9Wx+bUnNVNavsn5J8DPvSCC9aAVqj4vcJb8OHEKXB/XSi9aM6Wrc148u10dy6zKLT722nUrgIJrloAmDUpSYA+6JI+AznzI2Iy6QekMTen3W1CTVJCyF8KmLOx97coDFSnaCPBmqvnVoZdcJlJX1YatDeJT0FjxwtB04yCJbjTsxeRhIfUQiVr7okOhH669155QmfpeiwFm6+pYHCnbp2/GB6KkBita/NthqUx8T36TO5QFE60nEeOnIqfHgA1ETCWTOi/qQK3yuV8Fmgmpq0SGdsZ3vBMng0Nmq+ortfYRf2yxplYscwQp7UZ44w6NGNbWo0otI7KwL6T5kCV/A+jhYMXarnAe9PmrGFq/rW2coNNvMUm7o4Ruoj02xg+RwJeiZoA4+tQokj3B986NrHVSD9UkU0Bf29EgX+SRS74mIiWxobopRLdDUCwZZfwzh7zlAKUFfj5FvzGn6JZcS52B0o5PaqaYmZIw8s8t6Z9u54KNR87bkncAcC74mzYPI3LfLwMUqkJd6iCxddNTX3hGOhIYYmI+B8tJgp+vHbkRLetUvlCMXUDY8ZoSDHHGxfj2Ut45z/QQBNjMOYZAFzVV6Lk5uMCYImIaYaziMKyivHeY6ZMKwzPxYkUP9YJfNmQlG1lB9loHlFNijMO5cgAQjDs1z5icMNWZ6pxbiyToBo34iJ/acCIPUYqx08qkqQx8CNej1Sw+dy7zCJ3uktcygEDKQQhSxVwbkrSFNNE/1Sx+RiMForEPm37k0yyfMemGFnwwYdlNxRv0lwAOj19cTsBga9xQzaHRG8ub68oDfM9Qj9WnjYdRhPPhznPMxi1Sh9J1pEkfuZpFUusZhYQA7IxGUgI5VPnVwOIShmqygLJRsCpVdcM8eVwaWipfRqhEGTRPfEmBc+JDeOh8P7mV1gkX9GjASA9qhTCeKQbIlpvsKPcw+Vi99jqGNdjiGj5wCRlZlDH8YuS/4NFWfcE+hmefMd3XxC/HBpnEPLWWK6WDwFB/fVN8JVEk5BdWF3x5u0DiuOOQjv3MmVcShi4ABd9XRdQdXQhf1o1UMq6OeN6arLXwFgj8NAsaAAF/pzAd4jCMEw8omU8+g+vJlTYD0Q0DUPurP6AQkk5qxfY7ofIxpqwNqwJp6cyzn79kAijHA5aAzapfOMjiYL6vWGRJmt8oaCp9yl4GR8DEZWY7pUdIydBwQDoskb8+lDKKpF5ixKw6H3qm0CkovWhOBmTIUAe9FAE3jOTGJNbDbQEBUK4iRRsSsBmDQGEDkoMUhyVDnUn0ZEwWIYwt0xAR0jV5IzwDgdNgBhyOyUCpG9JfC+nTIHizqr/B5MB9kzh9mQhp8rOtedGrhkF31cdLEpwtU0a3PAyTSkAps2Is71r8HMFRzkGT94S7V9bGhfvkSD1DLGNI9dtCHffB9IODOKPMU5IANG+vXpngzkC5kYhrEQQJ0JMYOfcQpf8GtjfKKob929M718xbARyR1EDskdkyMk/PYUP7ors+xjKxWDth1/ka8stVgwZtk0AkVBb37ncFjSOaBHsnwlfpylU3j6HRYEOByEAuc0lnH/cSSOoh3GCV22FnP0QBsc/34KB1GN3YmIKN2DYkKoMVzk32uLx1Utoto+5gNTvijTxJYxDOIf0UgYMxD7cxDB62TLEyNs1EIjYjurp16gSfE4BPP0Em0PsWwPpTkmnyrep+g8y685rNmwqYInijzF/W900Jl4ruOMNU3v3PKnsjVOScXQH6Ztsx/4k+uZX2qU32MsStBp0UidJXvS24AtuKy/hQaLOdfQK0tgA3FhgAgB1taXz87INATtqwVSybMcZ2wpX6CsS/5EHMuQPVhBHAWdE45f9tHzSWfZvB7QEnosE15ex7si2RItVK//L2+i7EnBcjfdRwzMmBkfevmJ25L/YkOj2q5K+eKTTGzXgi/p+0KEqhAJEz0h9TNBDzxYk+trAmg+VtHtPngdSQBraWgfjjuRfHIS+GRQmHDrvpDAupl6IHmRYWlkpc/g6WtDAwJmymzQww5QtLo7C6ljFiELArAC6Y2yNgjWb+2Xp+GkoOusSPnGHKoKniWVgnlx0KpvujKo0VNfRwkw1cNDNR/d5SNa5yzAiEHZXRg1IR99AJq1mU+YUD4tCY/E+OQARAdeWSJJ1B+hakX1/QWHcS0gViAQw94pD5qapceDqV1hvYBfKOX1fqyIUhxA9Jpih2CC+hkziMJv+MKXStFtWTDmovunmpDHwoNiw5CKTXgESQADudhfRl5BGym0uuTomrDNtVHQGCVtq7jqFgP5K+e2PvEHyrqm2XJuhhAlpP1S/b6LgEobykKGchgllPArMHMlJClaP3phNc+1x9EovdUYC8IDl9EHGyYYqkqcLKqPjQY6Xb98s2RDMC6MlD2RS/RGUeF+k4mxxiSSi0vA3Dw3hOVXk66OzTKIsULGX1uNDcRHRW3qN/zl0wQIrreFWE1X8bIY+O8EMkeBuvbTVFmeiCh1D7zFwEhTAnoKkBGX9afEL6UHjfnABb1FwmAwUcfdGPuNAgL+ha+UfZRR0EJXXZlZDibUZ9j17dPaefAoByTuT9hcMDDvq386OosAko4lDjUY54/sUw80qwEZhVX7UwKrNprTE8dFLENPwHEkt/j7N6ufloP+hCO1MdwOm7tv4BwSyE3j5FBz6XYhR5ujH6gVFwMkNvwFSd0qxXdJwZfz+HBx3pg6yjzNHKewZcu/ogbGRZtFTQuLwNGtVG/duYdWO3HZEu8mxaMOMxxGMsxfEjc7fQYtSy2MQXDsFTeShddE80YDMmRUwnEp8dSDrNgSwKgxqEHGKsWwlBPG3TWL77kfPIEpoapDpFb6gOQXhNbOuBiXktWRy34amMvsPc1USrAVUDsElaeWCbQeJZRA+WEUTqo4XNcW+8DG20Cw8iFB0J50p/GDOpS8aU7BmNx8VBuu+jLvLMO0YHYyGUSIXwaMaAspaSqJcI2mCzhiVe1LN0Htu3rS9KeBDHAl/rQzaekDbrrl2m5/vT0WrSxQFlKpi5i8ABh8JEXkIKj6gMMZFC8cME080sjR3LoCBQdbPUFSZciGC+ipEIUI0ehxuRC1gbr4GOuokTOMZCd6x3gumDzuFSW4zC2DsfVDomcLKYMGJHS6yOmdEQwSkZFMxCx41zNSKyKFJSgx+2Uo0/fOzNOsrBInPhAIzUkb9+cBwWTKsrIiMgCyDSKM/YC61vv0ughrl9jVZekr7boE0EyQPlexjG9aTtm3wo/Q9ZXE5IFzp+awcGSD3RL6k78BcIv6cjOxTh15/r/NRJHUXDWzqcQ7AoyZEztGMfW1/+/Kt8TIM4JjMllTE4ax1lVffFpg7Sz82Mwa7AFXCc0ee/8kcDCssbU6qAQHeMe/CQYPB57HgDXr+Oukt+ZPALR2LvjYluc/27EQ4OYiIpRnfi0AcxtdE5MMYDLOiN7tARnRIlQjgTUxj5fu1uu3xrOnAUYgx08iMGXL1z7qY0j5oiNPYOLDYFF7fUL9AdUM0YgpHmF8VcEdnTA0PcaF4EhhDW6feMoXYXlS7PzoiEVfeEAMNaAPjYVHwy1w8EY3aTlsizQRQUh4ms41a8NvYXf++FIoO5EW+pTX6nPWvEIMM01oFLWtqU+xxwSXS+pNkC27FUgITwuscrrQ/vUR+Yr76IfE9IbwPqBkjh5D66Dqg0VNWDRGJJ72RGTtUldSkSQIB94gAWRngnERHL94Y1/qs+RDgiFzmjWtURsyfB7nhLojcPawe/IYJKDl9wY+NzWDomdvtoWshyct3XWLWypj50ux1rSaT6k1hSIhBk1yoKUjJko2Oykj2uqWKD7ezKLjAEOmFx5ZLVkhmGbQilh4xG8UT9Q72LTI7XzNc4AwkkBSPNlwhyp9JwQ8ULv627Dsr5rFMKhsF+m3pTstfPvYPu8GOwgGKHGWb6EASyMkMTBVptOsiTMfdGYW4ClN15+RshIRRMgGwElgdX6kt1dEjlZv3yqX9vED2AZC6edIDEnIp7uHVopMz9gfdRjGlSHf45QPHxXXV8CfRCRM2Y+EyiG9anJpJ0B7Il2b+QvYgYcSqzyqYcPLX6EKCVjbaWftgm9PnT6a0OQa9hFbGUD8/ql0tb6wPAOoObM11aAqZSsDcC+VrHCVxBsVksJD9JqBzjil1YBWYPk5PWvlD1P1kZwLJMnqGy1KXzlOoBCvqw4LupDK9nrl1Sk7NvCsaot2XmUsmtmE9x2YuPHMT3JN/iAqwkwMRaQHyBfySULmd+cYVEf/lKgh08fjPYDuidNQCwQcmHct5QHO/9VVrEyKraOMMIOP20DcLEwQhiDx3JRkpdNF3DsU+Vg8DmW0RE4Dic8SmD+UDWAqDiy9Sgz6vPIGKQaizUAnWMeXJ+HeJAHog5Tz8o0MOeHs9cGwKkNfsSp1+5KFPPTjgMCRbQfR7HIXyRQpV6/wPrIQbJ6QXZq4cPNnUFEzwATc/RB7YM06msMMaorOnlHTdevrZ8LcLEplHl7HvokqaTp2nOlZIwHLTjULiuOJZEHftSnPviI4YbQMsHey8TOQwEOjxf1FSSektBEFt2ooNyMBN9F0g8jSHVmBiI2A4AeGsmHkzuN9uKY64zmejA7PTRNfNWXDYA9feIgpnQmIGqgyYLYJS20Y1feLk2hylivBY+yAYjheYodUqpSQ+cYA8BO5IyJhZwBcoWPca/PAx4wau1Z3yRKqeQQGKcYdPo1J6Fk8cD1Z3KRQQkjkyaBi87oYypoLQs2+DyBCJn4ihMozV/Uh476iQQ/vdDePQQZrhedY0TxMfiyCz0HcmK3ATEcT5GL+qV2bqHXK6OoU32DfPhq67lK9giUs9xaH5r4OoSnIyxz9OgHltr5SOzcV2lRJ/T69JEsSbjSZNtSHzvqc+SjCyltIgcHpPSi8shSiJESDg5wMPBEECfm8DHsKzXx+/oX6AeXdklwe33z6YwtdMqpvnOJL3cPnfixAcu1kB5+d1HiIP4ClRdWnNcQ0j9KhrplzT0cazGui/CDOX60EINNiHeumZ/0kIoLczqWTf3KdpX1GRfDJGGDw0UW9X2kS6YFX6rXCyNzxZeXdqmIlLIAbIkvGX4VhaVusGYT0jlXFpGMKj7IllCZyDxIPOIHwKdPGHwMEAtPvJZKIB386IXJTPT6yGU+bOkPB+ipYNqCDyYdCaIy+Ay2LzyLUZ86wrRp1gLrJ6UTQEIj07nHwMEB65dthQ8kOuj16QcBj8v2iNEAAHcISURBVFxA5kEtaXUJToIBNSBZ0pGpS389NOcB6H39zYfO+jUIn/VLav0xnvKwfknHSppPB8AA8slzCHTOH6apFnvCBp1+baxfD9KZCIgiPuuzJ/FFgHR9hiNGTOzyCr2++awPHXxGIxb6hE7Oobyoid29YAc/GRADV3fbnNysaI56QWzYoxcHE4jRwYhuGb7ilWFqj4BMyt5LGTHu9RGTXEHZEKNAKIU5KTBzSseoh/qo3KJo/pIAGc6xrN/ZUSVTN7ZFReRCnlIrDiF1g4Uoi6rTmxy04yjBYU4CJFKkUZ2wnDya2HBSQZK5MonwRXLUSCDBoxA6RGoC7KU21S9bBbC+UzkzQakE3c8IDsoRI4rFT1dmH/rgr/YCf9aIthI5gckBo+kKGIPalWEYS25TP+i9lEP1tfX6sK3WL/QMU66eiPGxy+YUBD12s75U6qxewZOVNj2cpFxjDiOS9RGCYt0IhKkjqebz6FjVB32cf/gy/46ysT5iqMssw6jWUfzZonjFUjefa11yhT3qx1HxfdbQoU6koYYHOaxi+kgxdEb2UCla/8FHfF//EnMvwCqfmPhaOwWLa70EwhgqEyGm+XBW4OL8R7fgeg23qeaXXNTvOq45YfX8qfUlP3OmXvt8jWw9/z7YLO7g9/oyMZdewcKSxIsiKNrV0t0QH3rCYFs0tqIjtmfzWIACD3YElaTPOlVNIWB9G1i/4lgfOvKYz/rJVXC2iYvD1Cct0Qudb+E4zV/InBU650KmscggxMf5Q/rQOb2XkIZOiop0PiBz8kZHkPTeKcbIB1fq2yV2ATGsgaAaT7kUq0jyOZYIn3r41lnfsTpHcMuW3ljGUI8hDJ2x7mfMH7rNCJVQLHTUn2LTT58/4urBnkEsMFcHkiobOXBiPOWUWaQewhHYY/3BST+dbxE+xktdCsM6J/za9WAduqCzhgbgQ1Vc1XcM+clXAD85WN+uqZV+JCY+jurZ/NqSmqmsX2X9kuBn3pFAetEK1B4XuUt+HTiELg/qpRetGdPVuK8fXa6P5NZlFp86YhGOIanh6qC4wZd5qevPtNKBi1A34kKe3pDDAE0AhpFYTcIy8QHGha6jo6QyuORcv/YMVd86tLLrBMrK+rChPtylk09vwQNHOy8OslAqgWM9DwVSH5GIlS86JPphT+wlfQx+l6LAWXp6gQcKdunb8YHoqQGK1r822GpTH+aXZFyhc3mQj3oSsZ505NR48IGoiQQy50V9yBU+16tgM0E1teiQztjOh05NGRxKvZBatLmXRf3aZon+lE95BCuutZi/edSophZVehGJnXUh3Ycs4Qu9fpkZY7fKedDro2Zs8bq+dYZCs80s5sa48w3Ux6bYQVJ96SMT1MGnVoHkEa5vfnStw1SfRAF9qbfRI9L1tSjRExET2WAs7MkDG+qZn/XHEP6eA5QS9PUY+cacCjD1obmEddR3MeaxLZH6JReCLKfU4BAJ1mRK7p2iygk7XPHPiIU5wqccTZjMPfEz2H+BvNRDZOlwqb72VcTCFBiYj4Hy0mCn68duREt61S+UIxdQNjxmhIMccbF+PZS3jnP9BAE2Mw5hkIVev5CLk5vzdkxD1veAcQXldX1zHTJhWGZ+rMqr2vE7M8HIGqrPMrCcAnNe6ehcgAQjDs1z5icMNWZ6pxbiyToBvX6PnNhzIgz6WJUA8qkqQx8CNej1S3cpLfMKn+yR1jKDQshAClHEXhmQt4Y00TzVLz2RgHhjHTL/zqVZPmHWCwisgov6dcSwm4oz6i8BHhi9vi+Avi48roBGZyRvri/PmGXJeqQ+rTyMOowHf45zPuaRKkDPmMGOY7wdZU++UmQzMNw5rnIgS26SByns5eTCZKHCwFF2IbU0rgzg91qMVo0waJr4lkAmQD6kt87Hg3tZnWBRvwaMxIB2KNOJYpBsiem+Qg+zj9VLn2Noox2O4SOngJFVGcMfRu5Zo+6rMTNNoZxnyZnv6lv4isS4h5YyxXQweIqPb6rvBKqknILqwm8PN2gcVxzykd85E1/EoYuAAXfF6bqDK6GL+tEqhtVRzxvT1Za1IWAeDVgWWAME+ErHkA6PcYRgWNlkinB9+bImQPohIGof9Wd0ApJJzdg+R3Q+xrTVATVgTb05VvMXB1CMAS4HnVG7dJbBAQGdo3WGhNmtsobCp9xlYCR8TEaWY3qUtAwdR0Sf6/dcywwO4a44HHqnlAhKL1oTgZkyFMFjJISUU5zat6tvjfVrwB8RkEvgwpSmBmjqQGT8WagEMNS5WB6HGiQKEMcW6KMzmc0HSM8AKIPyyzgiC6ViRH8prE+H7MGi/gqfB/NB5vxhJqTBx7rupS+n7aqPkyY+XSOJ9BgokUhDKrDZPta/BzBUc5Bk/eFGB93O+uVLPEAtY0j32EEf9sH3gYA7o8xTkAM2bKxfm+LNQLqQiWkQBwnQkRg79BGn/AW3Nsorhv7a0TvXz1sAXycOc+dTYsfEODmPDeWP7vocy8hq5YBd52/EK1sNFrxJBp1QUdC73xk8hmQe6JEMX6kvV9k0jk6HBQEuB7HAKZ113E8sqYN4h1Fih531HA3A1uujN/soHUY3diYgo/YJFUCL57a1vnRQ2S6i7WM2OM1LL5HAIp5B3juQX4bOK5EQ8GNm/dJ3POWeZ+9DrgXCSBEDCXhyoBc7JxFYLChEkk78hYPVp4VKR6sIpeSivvVef+olIG3i46A46XB8yvoT4EYYqIv6ZZt7CXrZwHzakqxzpuiYVgAzogD2zbkoeMv6F7abUq+yTf1Djmjt5/7pZI/3D895zJntw++8wn2OMlt62uLoHRZsWzFB75HmhC63grMmnQ6/44DOhxGAXUYOPRiSqvTQen1FmA4Nfp2f+dx0vR4zf4HYlEy6+dFhFn9YA9VyTxXwX9enWQmiz1gt5ECMlB82hYS/GsmaDtxyzXb7yLUEjE5OdQ40v0yISGjcZnUJx/z8/1TPHxB/+NU3aTf9gt02fObg2xUCaSoNo1iKA9CzILFHagLwQxGfctA1duQcQw5VBc/SKqH8WgT4RFeecSEzUCgZvmpg4AWNo2w4X/2kQchBGR0YNWEfvYCadUEfM8KnNfmZGIcMgOjII0s8waI+9cxZW3QQ0wZiAQ494JH6qKk9+ppQ6dDTgHSaYofgAo5exPE6JK7QtVI0V9mw5qKXDbI2rgP9YdFBKKUGPIIEwOE8rC8jj4DNVHp9UlRt2Kb6CAis0tZ1HBUbI/3VE3uf+ENFfbMsWRcDyHKyfslePyUKyluKQgYymOUUMGswMyVkKVr/GkPWJp/rDyLReyqwFwRP/EGAnGKpKnCyqj40GOl2/fLNkQzAujJQ9kUv0RlHpd3ybgfv180V6P9okEXKxaELZ7Qa5Caio+LiZY/l7xkShIiud0VYzZcx8tg4L0Syh8H69vNYZnogodQ+8xcBIcRfgq4CZPRl/QnhS+lxcw5gUX+RABh89EE35k6DsKBv4RtlH3UUlNBlV0aGs3kutL+ovOP84TgXiu56vayeMIDOXR3qsaWtZeKRZiUwq7hqZ1Jg1V5jeuqgiG34CSCW/B5n93b103owhqWlvkb9uLhRBAi3FPw86AWquhZxWd8yGP1AmfiQ2/AVJ3SrFcUNvp7Dg4/1wNZR5mnkPLFAagd/xI0MSjs8fUzTqDbq1845Daz2YzLlA7/taOufPfiPBnMDOGDct9Jhz0JlDIZkaeYrgfj0WMphFmxJANQ49ABj1UIY6mmDzvrFl5xPnsDUMNUhckt9AFKJYF0ALua1ZHXUgq829gJ7XxOlAlwFxC5h5YllAo27RMaohnLCKB3U8DmurfdBPvQC4xSDYGZwnvSnMYO6VDzICFgTKqVLEz01jBhQuj47TYRtMFnCE2/mSll8SGxYCyDnRvUlaU+CGOBL/ehEbNBdv0zL9aen16KN/LKUTF3E4AHC4CMvIAVHxhMMZFC8cDHzxMe490GbdHDjq2OXQNaHJgZJKkQxchRqTC5kbbAOPuYqSuQcA9m53gGuCzaPS2U5DmPrcFztkMjJYsqAESmq75jSEcEoOGFPHvhQ37EzEqsiBSVohx61o93jKw+XbT+gP9NydjWE0bRxYmqOKmBltIrIApvVeLkX4IvepdFDXL/Gqi5JX23RJ4JkgPK9jGN603bMPvN7hNOxvpqQLHD+1AwOTJjQLak78ReY+MmbCIxTd67/X6PiKmSEOWvnUwh2BRl+yhKfBXpuy0VxGsdZZX0cykAbpJ2dH4NZgy3gOqHJe+ePBBaWNY6mEB3jHvwkGDweex4A16/jrpLfmTwC0di742JbnP9uxEODmIiKUZ34tAHMbXROTDGAyzoje7QEZ0SJUI4E1MY+X7tbrt8azpwlEIMdPIjBZ18FjeynNo6YIzb2DC42BBa11y/QH1DNGIGQO9p9v/GoduBu3x73A3w3LaavxCqsRtLsvGjpsXMAGGtAH2cdHwy1w8EYf2Wny7JAFxWEiK/hVL829BZ+74cjgboTbalPfaU+a8kTwDTXgEpZ25b6HHNIdL2k2gDZkgqskBAel1jl9aF96iPzlXfRjwnpDWD9QEmcHDGoa4lMXUWNkmtGeiZYzJLF4I1f9cdIB4RCV4uYtyViS4bf85TgdYxh7eB3ZLCQQ1duDHxua4fETl9tC1mOrLt6g3Wb+tjpcqwlneZD8pxyEAkzapQFKRkzUbDZSR/XVLFA9/dkFhkDHDD5IBYUwgyhLUIpYeMR/Y76gXoXmx6pna9xBoCTApDmy+RzUkhOiHih93W3YVk/NQaHwn6ZelPtgd96FOX+gu8Hm9oorJMsCXNftDRSYBsews+IbhRfhtp7fl0cweBLwonFYP3yqX5tPcCEAixj4bQTJOZExNO9Qytl5gesj3pMg+rwzxGKh++q60ugDyJyxsxnAsWwPjWZtDOAPdHujXz7FTPgUGKVL8z17UfIImY9WF0/YV4/1y94Suw1rOEdQM8zX1sBplKyNsDK0gidD2ftXgPSoJYSHqTVDlQLP+s/bGjD9cENWS7DsUyeoLLVpvD5OkDmAvmy4rioD61kr19y5m8Lx6q2ZPjwuSrlIkOFgJIa8eOYnuQbfMCZBZhSy36AfCWXLPT5TxkW9eEvBXr49MFoP6B70gTGlgwZJsbsaLd70CHtxFsdJON+wp/JpeTzoqBJ+Nh0QaXdrAbieY8xGboTmSXKbP5QNYCoILL1AIs2bHzUPhZrADrHPLg+D/Gkfh3AL0EVIRPm/HD22gA4tcGPOPXaXYliftpxQKCI9uMoFvmLBKrU6xdYHzlIVi/ITi18uBNn9Aww0dcHtXfSVF9jiFF9TUBeS5V3/dpzpWSMBy041C4rjiXTX/Ez3/ARww2hZYK9l4mdhwIcHmutObA/a8IkNMFKNzflZuTETz+MINWdMRCxGQD00Eg+nNxptBfHXGcwKzdUeGRKfemKhadiyp4+cRBTOhMQNTCfZEtaaMeuvF2aQpWxXgseZQMQgx66HVKqUkPnGAPATuSMiYWcAXKFj3GvzwMeMGrtWd8kSqnkEBizhnX6NSfgQU/Y/19uBfoll5NTq4a4gJyNmnVbjhMoeUiHGDBDiYyB4juX7MMDkOF60TlGFB+DL7vQcyAndhsQw/EUuahfaucWer0yijrVN8iHr7aeq2SPQDnLrfWhia9DeDrCMkePfmCpnY/Ezn2VFnVCr08fyZKEK0221fprxbRWrIJCi0p4IpR5akBjzBMmGbUW4vf1L9APLu2SWT/BsXDGNuiFqb5zia+whKqO+DN9nIuhh99dlDiIv0D1BSvOawjpHy2HuqyTQxeFcV2EH8zxo4WZiUMdva4z3yYtH5QeJgePZVO/sl1lfcbFMEnY4HCRRX0f6ZJpwZfq9cLIXPHlpV0qIqUsAFvi97WjTtzZ7vSlh8GxFugjY9xBmtGE3Awapk+gnX4MEAtPvJbzioAfvTCZiV4fucyHjRzGiJ8Kpi34YNLBII9hMJ/B9EmllBj1qSNM23wyWD8pnQASGpnOPQYODli/bCt8INEBq1es/CDgkQvIPKglrS7BSTCgBiRLOjJ16a8Hw2VZP+ZarIKZ2EapJybrOwS61h80xUJyTbBBp18bz389SGciIIr4rA8nJHNaN188xIiJXV6h1y/Z60MHn9GIhT6hk3MoL2pin3oBPxkQA1d325zcrGiOekFs2KMXBxPK4QEQ3TJ8BSrD1B4BmZSqL4lxr4+Y5ArKhhgFQinMSYGZUzpGPdRH5RZlrg+Q4RzL+p0dVTJ1Y1tU3NEe8C1HtQN2zXn2D/wlF8AFY/M4eTSx4fQBybIrkwhfJEeNBBI8CqFDqKbGWAhsql/GCmD97h95KJWg+xnRgy1RLH7IGs85FvWpa6A+EIP521YiJzA5YDRdAWNQuzJQJwFya/2g91IO6Ihc1K9tS/1CzzDl6okYH7tsTkHQYzfrS10fUGyRNPPXkW26bx4dq/mDPq4/KJl/R9m4hgiiLrMMo1rHCl/xiqVuPte65Ap71I+j4vuqQYc6kYYaHuSwiukjxdAZ2UOlcD6LOVR1EUmdewEYSn3iTHytnYLFtV4CYYMviGk+nBXY6yNDdAuu13Cban7JRf2uj3O+ev7U+pKfOVOvfb5GrpJvs7iDv2PHvnb/x6/vxwPATjSBQr2xucnSUd8jNuF+ClDgwY6gkvRZp5rpC1oE67WhjtilQzN/cWIKzjZxcZj6DCeY+BT2sT416azP0CWfa9IDQR98Sh86p/cS0tBFqXHJ8AFoI290BEnvnWK8wk8asQuIAR8O+KZcilUk+RxLhE89/HXBuTgP9zPmD91mlJVQLPRy9NiSWY8+f8TVgz2DWGCuDiRVNnLgxNh8Zggfo4RwBPZYf3DST+dbhI/xUpfCsM4Jv3Y9WIcu6KyhAfhQFVf1HUN+8hXATw7Wt2tqpR+JiY+jeja/tqRmKuus79SL+iXBz7wjgfSiFag9LnKX/DpwCF0ezDe9aM2YrsZ9/ehyfSS3LrP41BGLcAw7XzoOihv8Oz3i8HbMDXfBuTb4z7TUQSYpm/rI5AhPYj46SiqDS3aCPBlqQaxDK7suIFlZHzbUhxuy7D2bB452Xhyik6SdsebLSV1cSMTKFx0S/bAn9jL6EEegFAXO0qf6tGKXvh0fiJ4agNa/NthqUx/mlxxxksxqH3U6SmM96cip8eABURMJMHZtUF2tbepDl4+VSnf7BOdcBtoqtq9D+LXNEuuTCTikYMW1FvM3jxrV1KJKLyKxsy6k+5AlfGFZvxS7Vc6DXh81Y4vX9a0zFJptZjE3xp1voD42xQ6S6ksfmaAOPrUKJI9wffOjb6lPogC7fIkBSXbGleiJiIlsMJY854HNvWCQ9ceQ+blLMBa+HiPfmFMBpj40l7CO+i724Ces50+zZuxEHTSHOprsErGwHfsVp0kTInNP/Az2XyAv9RBZOlyqr30VsTAFBuZjoLw02On6sRvRkl71C+XQSR0bHjPCQY64WL8eylvHuX6CAJsZhzDIQq9fYH2MvXcHMA1Z34O8H6/yur65DpkwLJ1fSqzKm/qyrQVsDhiVOD+2a1vprM9tINcLEE/WCYjME2rR+JwIgz5WJYB8qsrQh0ANevnSk5rLPPMLZI+0lhkUQgZSiCL2yoC8NaSJ5ql+6YkExBvrkPl3Ls3yCbNeQGAV7PVLT1sxgTPqLwEeGL2+T1Rfl9V6AE3OSN5Uv8D6nVeyHqlPKw+jDuPBn+Ocj3mkCrPOYMcx3s6yY3yDmx/YbvegQ2VbI/gjAgBHLNhoWlLjar3GWVBHu1HbaJr4lkBfEPAhvXU+HtzL6gSL+jVgJAa0Q5kvlBzML3P3FXqYfaxe+hxDG+1wDB85BYysyhj+MHLPGnVfjZlpCuU8S858V9/CVyTG4FHtSnoUGDzFxzfVN1+VlFNQ3Z5/HWByJMR5ooE15nVY1I9WMegdu/oUh0+uuUGYe4LZToeTl44hHR7jCMGwsskUofolWb/0lEw/xGTbiu5EMqkZ2+eIzseYtjqgBqypN8dq/uIAijHA5aAzapfOMjggoHO0zpAwu1XWUPiUuwyMhI8cshzTo6Rl6DgiOos4b8+1zIAQmLErDgc//2tjpgpKL1oTgZkyFMFAQkgZxKl9qv+gbztqkWsduPzSvfozLQBHNKySaEJGeQUtiC19BQy6xAdIzwAog/LLOCILpWJEfymqr+RTFP3DMnmo1sF8JOAJgHkCfKzrXrS0cMiu+jhpU/0pCfUYKJFIQyqw2U4+1MQXNNS41x/uUl1/4iceoJoxpHvsUEDtU30dCLgzyjwFOeZa+w8kR76RE/k5cmujvGLoZ1/qn+shBsH+QhzmzqfEjolxch4byh/d9TmWkdXKATvrT/HKVoMFb5JBJ1QU9O53Bo8h2SJ0CYev1JerbBpHp8OCAJeDWOCUzjLuJ5bUQbzDKLHDznqOBmDr9dGbfZQOoxs7E5BR+4QKYIzntrW+dFDZLvj2MRuc5qWXSGARzyDvHcgvQ+eVOODgHe0+j1v/jwfe+uIL/Y8GBZ40AzaYxxoN36reG2Xwitd8nBDlgX9EbLloDFhgpwWDme86wlTf/M4JvzBT5l4A8su0Zf4Tf8aiPtWpPsbYlYBWYGJs4fOimAFbcVl/JhrL+RemOgOw1Y5QCFMgBltaX7/hWBOQt5KmvtuJHqh+iuMs6Jxy/rbPU575NIPfA0pCh23K2/NgXyRDqpX65e/1XYw9KUD+ruOYkQEj61s3P3Gr549tGvColrtyLtU0337phfB72il/eomkCf6QupmAJ17sqcX6E7/riDYfvI4koLUU1hT6nDRSfbsh7Oau+kMCWouhB+xFCkvOeSelc3hkrn3tnl95RDv82ANoXyde/Vvn6s1e1JMnrZlRssmgd+zuHUMOVQXP0iqh/JoQfKIrT05achHlCl92DBTXHcgJJw7ONTxDB0ZN2EcvoFKHn8kGwqc1+ZkYhwyA6MjjIe0Di/rUM2dt0UFMG4gFOPSAR+qIteQuPRxK6wDmGmiuitlSf01Q/dSs/NagqBZVrrl6cU+1pY/RMx2EUmrA47xYzjPq6QjYTCX14dbsxRuSXuodVmnrOo6KjZH+6om9T/yhor5ZlqyLAWQ5Wb/kor6hvKUoZCCDWU4BXSsbzL1+KVr/GkPWJp/rd6Iw98ReEDzxBwFyiu0FyDKqVplAG27XL98cyQCsKySDFRt0nXFU+AgW9adYhD7wavjl1kfffUl7/5v25M+0BPWQy6uklEI5ut4VwUGx9q8QyGPjvBDJHgbr258oeupAfu0zXw5LmhkAhWO6CpDRl/UnhO/KiZtzAIv6iwTA4KMPuccsgQV9C98o+6jjLI5ddmVkOJtRn2PXt09p58CgHJN5cUHvJ3Tu6lCP5fkr9InZHrESl1XsdtO6spq3xvTUQRE6bj1/tq/Md7XOlvqFtB6MYWmpr1E/bruuCLcU/DzoBaq6FnFZ3zIY/UCZ+JATv4dNWs9qRXUGX8/hUR/rga0D5awSDIsFUvtq/ehKOzx9TNOoNurXzjkNrPZj8iQLc33MSQrDb3LHg9ut7nEILevEq3/rPLawkyffE4ABxTWh3Omxw0qPYq2iWYxDDzAmlw9MTht0LjZpkPPJE5gapjpEwqqFRULFU6a+LB0Y9/olWR216NN4ro9Qpi+4Cohd9vpMoHGXyBjVUE4YpYMaPse19T7Ih15gnGLEzUF2gmMGdal4kBEAE7JCwUO57aIv8846RF8nKiUPkFvqR7oP9aiI9MTeLWknCZoN8GmxFNcXKDborl+m5frT02vRRn5ZSqYuYvAAYfCRF5CCI+MBFWJQvHAxM/PTxXHvo8bRwY2vjl0CWR+aGCSpEMXIUagxuZC1yRo+5ipKZGJQA7JzvQNcF2wel8qUHMbWkThJ5GQxZcCIFNV3TOmIYBScsJsPY84LxxMSqyIFJehx4jPB0l4bQq+OV6+XXLi3vfFP6gZbpfr7wbI/NqDxci/QYX1hK/Sh+FosGfuFwQk5MDL8oIajjGOQrKCFKX32me9RT4cxL2g8Jn7iCA5MmNAt5i3rT5j4isAFKGCcunP9/xoVVyFbwjqfQpCpI0PG1I5xbH39V/PO6Aks1wCmrEOWsaeOwUXHNSHgOqHJe+ePBBaWNY6mEB3jHvwkGDweex4A16/jygzPVn5n8ghEY4zjYtv2/JcpXSeOqBjEDZ82gOtidE5MMaR+1ZwzCArOiBKhHAmozfruGXJL/zWcOUsgBnt4g8++ChrBTqWPAcwRG3tGbWzOM68f/QHVjCuGYeGVNtdnTkBy9xE7270ecyQt68SbXnB+u/RCz/cpdzsLK6rGUBULXFs/oRaI0clfwn13fk5QXxDbmTO2wiJmxiq/w/V7LRZL+g7FhJ9gaLbZdNX14VOemb/Q6WKQVBqFzgqtLMff5IB2w887sJ14iwPa4cfsbLsP39l21Je28868sva9lJ/4yJXt4++/goy5ak/kesMrCRNcMWVMCbM5mVPObT/H5gGHHLGj/fxbb6jBfuKnv/KM9uF3Xs70QHrJus/rf+DuHe3oEw9oR52ws+29srULPrG3nX/Wle3Si8M2EN8nZ7nAMjdrymF9zLtfDxP+K1+ZXC9Zd7Qb3OyAdsItDuTfUKL33YftbAcdVty9rV160b7qf2/75MeubGd+6PJ25gcvb+ecdoVy9yylcVCjuW9LwqKXXQXishaT3Hb+24QqAt7ErNQv7DqotZNufRDnecItD2yH1TV8cM314EN3tCsuq3nWzWRPvWo7+8NX1Dwva6e///J20Tl1IgvJkjX9bOoDOTcLrPAFj83vXudkDdse9O1Htcf93InwrhU/ep8PtY++6xLqO55690+wEx1Surdl0NsFgFAs0gxNAAuxyvbEzE8FIHEcJ2mcHTDADr8tQ+3IyUl48sxPGvU8TmBycMSkU9aepyu1A+Nk9UONUx8pPv/+B7c7PfTg9vn3O5g3j08HZ9cT8B1/d2ntl7QPvPUytVN2lif2tXt82SHtoEPw13V26lCocY+7KiBgB5/0736dL4CJv/vwusG+bT032OfUDfbUusHOyPoce6MD2l2+9JB2l4cf0k6+9YF1Y/c3UivADeoD/3xpe+ffX9Le9fd72jkfrS9APj9af/cOgekzv/TYuqQYHMRy9hoyhraMDdLNP/qkne2ujzisnXLf3e3W9zi4bjSf2W+ezzvjiva+N13a3vP6Pe1tf3VRu+hc9DOgngTWpfS1GkOHvDM4f+tzhhD79Oqg2BENqL7ib3KHg9tdHnlou819Dmm3uMvBn/G7+3/8Py5r73vjnvauv7u4vfvvL6obseu7ZK+fFsqneZYBvpK9G/a1gjkZAH5tmlOYhvmzFaYfe9PN2o1ud7At68EH3rynPfuhH/ao6j3lbrrBpnza41EmNvPEXziinXTLbf5P1zEmLfWrwN69+9rPP/7ctueCKdAq1xfKtKhcSyhefHg4nsAYG+/wwIPaV33//n+eDnD5pa39zNd/ol3B+xEK4EbqWqNFqgce2NqDH39Yu//XHdqOveH+/dnHx+tVwJ8/+/z2njfUldkL7WjPevUJ7ZiT9i/3u151Sfv17zwHM1Fqz4WvYNd0g8Ur2FPfeVmlzhezHe2OD9ndHvGUI9rN7/TZXdTve/Ml7YU/dV479R11UnwtbMU4R9OIWj9l5dzuVRKQqNmFLwQP+bYj263vdTB568CVl+9r//baPe1vn3tee+8/1nzUmfKXunpuiDEBD6CWPq+F+TjMLkb3MN2IxLBeDnwn8eBvO6rd7xvruV6vWNeFi8+/sr31JRe2V/yfc9tZ9UoedRct1z6fI2BxbuSid9t1IWI0ij+HyaMRUuMLx9P/+ia0rhO/9cSPtzc9//zSvP78EQExdcyOaswItXa/rz64fc0PruemBfzZT1/QXvuCumtlIacLQ0g/qj/ioEsFZM4TRvp3/9rRfOW4DrzpxXvaH/1QLRjXAhb0CV0yrXz+/Q5qX/PMI+vbxvW+WQRuhn/2k+e3s/HqrfCsV5+4thss1kprpulcXa9g8e3zY3/k6HbXh+//vyLiiffPL7u4vejZ57VzP34lZoBp8PzP54OnagJ4uTl2nVQxFk9eGdrtH7i7ffnTj243veN6X+Ws4t9ft6e95Kc/2f7z7bjRFtADWi3pNkdfK+BcoMzzN29GuRw36QXwD6gXBg/4pqPaw7/36Ppua73X74wrr9jX/vGPz28v+9lzeO7Q53z+0MsAOvTNHwEzMJQ7h4INevj8ljatCyIAmL/jt09a+89fLzz7yvb9p7y/XX5Jrq99/siYXtoyzQForva3vPwS/pxlXbj3V+pPI3r9vgIeZ6Uoa6dPKqUEW83XPejH1s3ntvdZ31ff1/7Jxa5fydmKKkcec+LO9u2/eHR78m8cu/abK3DHB+9uT/+z49pNbr++OQHoHzPQ+nuK1NYD5EYNvGr9kb85aS03VwD93uPRh7VnvOTEduPP38VzryloAlCxsz7MkNUHeJwz9No0f+mMoS7c+p4Ht+9/4YntKX944tV+cwVud/9D2jNefsP25N87sd3otnW3ywQiqteO6JY5fwrUbGCCew5NSs0fuoz3/foj2rPedNP29T99/NV6cwXwPqv3f/xR7Sf/+ebtsT9xXDv8WLwVSjXhOfS5EGqefUqV7JOS0MzCQy7kKbXiGGJpE/cjjj+g3e3RR8C7Vrzhj85rV/Cbq6rmuv39YFk5rcSWidd+2Z7W3vIyf4VdA258yq52k9sd0Eux9qKXAhuVqtbydFBPesJoLH1fu/dXHdJ27kzU/uHUf728fbh2Fa1CK/VvffcD2/966fHtLl+8W8arCYcfc0D7H79/bLvVXddzk+2rU1Pq578G0dYB1LjjQw5p3/Grx13lz1j3B0edcED7vhec2E65t9aE0/AEMBPU7/PMdWzZHZj/IDHHo77vqPa0Pz+x3foeV+853Q5f8MWHtme+4kbtft+gJz/bZXt9Jn0uAM+dz5/mYb0EwgZfEFPHQ444oD25voB88y+f0I67Sd3UP4c48OAd7WFPOqb9yGtv2m5+t5w/PX/nm+x4tgly1cHm5ZxLci3wxZOmRS6Aa1Lyft90ZNt10NK3v0D91/zOJ7vONqtgXfkoBENJNmad6Jcf8ZoX7BF5Tbhv3QyF5cKOXizsQ+1Uhw6OQof+hV+xvifG6+rVq6arfua53+HBB7cn/+ax7ZDD13/z2A6o8z2/fWw77Citxf4gs/CyEryY13hu71CvvJ/4a8et/UKegRv3k3/vBL7q03UgYC65UnidWPbzZ9GvuRrjLzue9Ns3aI+qb5MX1+LnGFivb/q549s3/PRxbSdfUGZWBfTvOeCoPtUr5+xQroV1PTcUr/nvayfd+sD2g6+4YfuCh63vo1E+Gxx98q72Ay+7SbtvfUHJmut8WUfXaBlDqGNSPCgOk9PzX+alDorp4tfgAd+y3jfVBv7tHy5uZ3wAPxJzfTbAv4OFhhYg0GzJeNVPH37iI3vbe964/M3w/uCuX4rfTqq+aqB+KdhdWEINQMcO6IYgX/Tb3+/g/f75ZHDxeXvbW/96j5Zkqg/c48t2t+/4paP5lfhzCfz1AP+CYD+Rrj0tgiomuyY88qlHXa031wDn4Am/cnw7sGqhGuaBHSNKXuyxLPvJE/iEW+5q//OlJ7U71SvIawoe+M1Htu/7s5P57azPzuL8UKt5cQ4Entg0cY/OdSgF8VgLvEp+Rr1KXucvsfYHOH/f8isntq97zvHtgAM0vzGnAkx9KL9gPZPl/HXOYUvkWAfoO9rtv+hQ/rnZuvGq3zpX9dFA6pfUsxVW72xwBey/gBOFV7HrAl6V3fVL6hUnarOy67OeixaiMYxyxOmJpO0+X72+V69v/Is97XL85UAVSjuoea+vOKQ9/tnr/dyezzW8jP289oW9luLkzzuwfdX/8quSmks/M7hOPDU+0Tzz8QVzRzvhFnVzffFJzHFNw63vtbv9z5fdkH93SqBvPonHpDBXDG0pTPNfwd0efWh78h+cdLX8yGZ/8ZBvP7o98XdOmiey1DkpGTR/O3FeswBZF2NlyLgHV51145zTLm/vePkFy4I4TyVqpX06IHzCgLm3TAB36H9//eXt7NP0R8TrwH3wyy4WZQNogbX6RVSIGh/6gD7HHFVf6W//gPX8QgJ5X/eCi91SvirWE/lWu9rX/vCRrH9dQF++68B8Hvj4w+tV2S6eG0wL5zDXCcCxLjSd18LuI1r77t894TP+e9bPJfBq6zt/68R6dVezwmQ4DyA3Ws3RU1rOX6YatHbTOx3UvuX/nED/NRV3/bLD21f80HEaaGpGDTC2QXOoPfOnFRg6XGOq+kJ73I0PbHf8kvX/WOR1v3tu5a9iVXDU1/qPL2XotYycRwFO9h+UAaS9tfPPq9aEW975wHbizf1tEOqjJnv1jW0CfPOrkD6dMt3rK3av7VXlv7/hMv44hKXYkP6b5dt+/qh20O711Pjvh+ZFeI5dXguB6+UhTzjC14Wvn9IzJdh47dRD/ta+47k3aCfd6pr3ynUVp9znEP6WH5PRdPDcyA10zBESO+fnGOCoEw/gK9d1/Hjp6sYjn3Zsu+dXH87zw/Y9NwFzlSES/oRgvtHBZ4gNSHf/bzlqbb8AD/CnZ6/9PbzvgHrr9bH+NRh/RcAZqZEgk+RXjN7ojvaml1zSLrskqfYf9+Evu6b6SF19pRe3Rsy9AOy/TMqxHuCXW1wdA+W/+hlH8t9drzvwok7zvLbjC7/qcL6vJy90XD++gHWzEXjjLfk1//uY9vkPWN81c3Xj/t94ZH0bne+e+mwWpw+eeLFj3rt2t/bkPzy5HX3S1fsnWOsEfiZ7s7vUd6O+RCfF87eF5zL3CcxWdq5J7QjNOuAXhvgTsXXj7X95QTvvdP2HYa9PD66/usHCAGtutLOcT54mogldfP7e9s9/tb5Xsfd4VL365LdAqCNATuXZD5sv49wLJnHbLzyoHX/j9Xybd87Hrmz/+tpLF7XxTwT3/9przi9A9h+eHQQWkFciBzRfW4H/RLr3Yw7jtQHkWiYy5bLhHwge/G3rf5OPqxuP/bHj2smft4unijMsZfX06bkhH+b66Kcf225+56v/b3nXCfxb7hN/5+T6jtSGgs6lJtrPa0nOFapPMHxcD2wOA+7yqMPrlfz6v8jgTbVRMD1BoCdI7DvdTW+0f4UoabWTgVy86/wxwRHH7mxf8OC6COY+vAPL+hNorifVGl+9vv5PL2779maWwiO/Z/1/lPzfi76yCzEp11rc9n71ks3T2+5Gu7O+S/7KZx7j0bULOw/Y0b7imcf2+a2eNs0zk8d7PuxqD3nCte8LCXCDmx3YHvSEbX5xifuSFE+7exBWiFdx2HGzfdDV8Mut0993WXvPa/b0/rj6bgcS+0441dgAxjxZfICsTV8V9BXitP+4or3/rev7k617f9X4CwC00+ujHrYqSntt7IV97GiH1qv+O33Rer5C452B3vgi/a0vNuCULzyw3eyO16UfDRhYX5zIPldfGddy3Oru+NYSF46ulUyNLxxKv8dXHNZufLtrxp8ofTa485cexjlOp4/zxNnTsxQ2GPe1L/uBYz7jN2m5JuGRTzumHYTfSWGiuVYxt0LmDAmT5t/DZLf/pM87qN32/uv/DvQ1v41fbqk+gPoA69uu1bcnRs7Hxkg0Gj2E167xT7ZOqW/z8W5FALLzCYEHZAG9STM42Nfu9ehD2q4DF57PGm//20vaBWfvVX1X+5LvXN/7L1yzUPPjhTHOKs79tR34h4Gb3KFuoDUpnkdPDtcP/uf+y75//a9kPtf46h8+TucMz1VaBD1/9cLj5FMObPf+umv3d15HHL+rPfyp9YodwMVZ89J8V+9EAu5RDONIMTheHa9eL79kb/vH552rWm4Ctd1mQfX5oYcc0wGtFB6XG8Jx8ugridh3/MOl7dwz1/MnW/jtHv5ka64BlXK7+hy3dp+vXuMvt55/cVUSkPvmdzqw3eae166fX316qMn5pGMTcE6tXstxC7xbV00L55CXDPaa2wO+8fB2/E2uPb/suSrg72Pv+LBDOS2dP313lxcjwFc+87i1/8b8vwMPe/IxfM8CXJz9+c/ZTufXum5pNjAK7xBW94ivW/+PSd7ywgvahZ/c67quz+We67d2wL1u+PQf5bic/cbF4djs7mBC7HXAny3d5p7r+ZYLv6h6zfPwMw00q8qjvmUJ+NDrLe9yYHvYt63n79pOe+/l7aW/fKGrqM6jnnJ4fTt59fx44IKzr2xve8Ul7U0vurj2Pe0tL724/cebL2tnfPCKduhRO66WT7kMzvzQle2fqh7mmlUG8J9XX/JdV8/P7PZeua998G2X8a35Pvyuy+rivJJvLnJ1/MPGh//10vYfb8S7bug8Bt/8C8e1I45b/7rirQf//XWXtNc/74L2xj+9oL3hTy5o76nxR//tUr4x9dXxJip457N/+ouLeP5yBnkDqgnj3cu+8eduwOfJunHxeVe2t770oprr+e0NNd83//kFfN/XT3zo8nbkCQfUtbve9cU1iffR/eA/6Xc+Y646t/OeLzZAVuU+X39ku8dXrf+a/oOnnN7O+/gVrAuw/sr9k/an3AWfaDCctFcEm02/kFArC0/ihCOO3dF+/BXHre3b9Od+97nt396AN5tWHTbM1Zx02lv7xp88kj8iWAee/2PntTf86fiRB+r85KtO+LTfLPvTxekfqBv5L17AN5HmVLycEPMK3ui2u9qXf9+R/I33uvGuV+1pz/0OvV1hR6l8P9h/uZEN68Mb//zC9uLnnNfO/4T/thiHupYOrlP3pU8+sn3xk45c66ut1/7hBe2Pn4n5Bfv4bmT/6xXreSvGAD+z/4ffPq/99f85nzcegDe1mt78/MF/i33V/zq23eUR6/sjd9zUf+ALTm0XnnPl8nlR9R/2pKPaY37Uf7C/Jpx/5hXtJT99Tn1bfH67wu977pK8bnNz+/wHHdIe++PHtxvffn3f+Z36L5e0Zz0Ib2LtSlXqqupDB7IeP/Sam7Wb32W9z6FT33FJ+4n7fogVcVj0ombUTz34oYdohjdP6xyjVT5qIwtJeC8mIvEzy7e9cn3vsoVfdvX6xnzRppdDjty5tnexwtsw/tNf6itk5o932l/3zfXvf/fC9qwv+wQ/sYD/+VHAecGe2XJc9U97zxXt1554Tvvd7/tku/xSWK8O4ImJelSvFrzk585tf/ADn+RHwBBTnUsvbu3FP3tee94PzjfD/cfhx+FbSg8od7S7PnK9v+TAx7/81MM/1l74E5/kzTXXa66fANYz//OK9utPOLP95hPP5M/u1oED6gXNnfBfSTx/43kB/a6PWu9/K73ntRe3H7rXh9vr/uD8duX0E0FXVH2MSv7bqy5uP/6AD7e/+VW9s9Q6cLM7727H8a1Al88DTRl3hdwv1EvW4+Z33b32myvw6v+HufUz7nocjPrw1oPvB6vFEQVxsCEItp4AKkeWVhD72j9Z3y+77vjAg/lnW1XVFtTSgsHEvgp3f8TBa/uvqre8ZE+7zJ//xDWoWrdb43vKAn/6E+e1Fz3nfH6rTHh9Ma15FtC1/prrP//lnvaL33jWWv+xQ0A+rSvrY7ie5ex492v2tFf8qv9Hm+ePkyqPddSv7R9fcFF759/V3XZN4I9XkB6g3Mf/hloX8ObnP/2oj7XT/v1yrh+A69UrqXV0fZXX4K0vu6j98tefzlef6wA+uqbXr5TQDz5sR92Q1vfq8Z2vvKj90mM/1i65QD9vzL0gz0PO2T3MvfzZD3+i/cWzPsHxOnDK/Q51fZVjeeqo6frsBYruX/3PvNaIPedf2d78p+czP9DroxdZVB+GevCXXAAMuqn55so4PdHlh6mn0KGc8J/6r1e0D797PX+yha/M93x0XTilo556QinfZAs43ucxa/zl1gvwtoSaC5JDv91913eRvuZ5F3HnjDgFzYMz0/RUX6rmWpLrX9uH3nF5+6MfXN8rgl4fBXlwG2lgTXhpvTpdwOcvUGkV/bv/VzfiNSHv4pVq+FOlm33Ber5g4ruJ3/iOM9t5Z+ClHK6ZsWj9DFpwutTHvPGZXH/6v8/2aP+Ajz0Z9dXLre65vn8ZP/M/L2+//V1ntCv1YRqLaxdS16zqU689z1Hgr3/h3Pa2l13o0f7hlPsewvrzJcTqWXL3wntU6YcctbPd8zHr/ysKfCIDX4yxzFTfG9uzEWvBn3yNxmD2IpkIkFRAQkoNpsXc116zxlexeJ/YNI5iqZP6N7n9rnbjU9bzy6f/eMul7ePvr2/xWKPyux7+gmAd+OTpV/KVK8D+OQWs+LSutWvN6aTOCA15bv755Xvav/ztuta4slduThllIShdcA34+Psu1xfdFCqZ8wfIjAakv+/Nl/KjNtYHz6aS37CuFXzhXgde/bvntw+/E5+ThqXTFj3L52l5OM0JE6391b97QfvQv+z/j9XwjwR5o5qsJT6scF14wTPP4udp+fTVjrl4PqWjpuY97gWIyZrgDPzR087kh1fuL25yR/ztr65btaA6qcT66NH6fR931NXy3guv4o8HCn3+HEyd+Fx4mfgz2DjhwAS4SIiBLLtjcRVNQrFO2d72ikv5ZwvrwAk339VufbeDFn0ALt/uu8ZXr699/sWsAXD+tR1yZGuHHrmek/NX//eCdoV/hpo6QFStnqD1x0Wkc5Jzk/m/7Bcu6Pr+wWe8UiFd9FwH6wBusJpc5XTPc36tBeZqveQ5H/NLpbXAtSo5rqd14LI9e9srf/Vcj9g9N7XPBeQ8+imitJGqeyr85c+v5zsS/AIt1wjkibdYzwuDD739kvauv8FzA7k1C50/z6EEZsW6jFF9gGthXPCJK/VmKPuJE251EOsQFHh+uL51+kuB7UHftv4fD/zH6y9uH3+PvrhmAXT+XZ+2stQuFZ/JBaeN88IEsXBOHjBBDTRfJb3i8n3tDS9c36vYvLcrSxVQCupBh+xod3v4en5wfd5ZV7Z3/v2lY/4udvyN1/OExG+Z8abdAtZZmtZa4LxYe8zVq00wsoY4T/ik2Y+s5UcxLsS8qtFLrwln/CdulpiUxqkEcJ2p8pLU3EviF0drhRd0XTfY974B/4iCc6W86t5lsnuO2wKBvhn9699f3P/yYH9wg7qh5uxBYrwOvOVFFyrrNB3k1/kqI6Yic18P9jHFR3/zn+3/j38OPnRnO/JEfIZX6qkXHNTPOC+n3P+QdtJt1v/fenj1ynu466SBXn+afK6N/q9TuPtzkx3xBIckIwY6DFCcOMM6vP7PLhm/xNlP3Plhu/m3fvmqxfq1371urrsPW8+rS7zvwN7+y+2xHXa0au4v3v/Pl7VLL/KS1VplbVWFJqPGZeAuDzdoHFcc1hr+d/3D+t4DYlHf2rpw5gfxhaCyqv0CjqrCdYAdDchE8Ul80ui6wNxKfujR6/lrkHe/Cl8sNRusGM8JR4VSVC4WxQFc5/RjDt7v4t9fu/8vSPB5bQHy9jfn3k+8u74AjOn4+V8bZ1Xz6K9avcYAr6IMRSDwZ1b4u+/9xeFH7/KqolLW30VQ2r08+NvX/14T+DO1t70U30FipKr9/OOANYHiHnhtF3Q2SudTuoywK96BPAoixTJ5qO5r555erwhftZ4/2cJfCNzjkfqTrQDqfR6znlev/AjhP6sLfDENrcHBa/rZzem8ySz7zwh1xrUpB9e/Np0qXEAwm1GxGJ/+wfW8ykPWUV415rXeX+y5ELlqn3Jyfh5Csj7HMuKcrA1YXBSpB36zvg6c/oHxs1euFUrQUkApDmJxfWm9n1igncHrY//Aubkkyq3jxQfmduYHL2OPyY05cM61d32SwCKeQd4LZ3rt9gcH1wsuJOz1S3F6Kunlxc/6RPvf9/pQ+5F7/mf7kXvVfs8PDsn9qvR5L/s9rJd81gM+xO9Ie31WxnnkQBbUdw+5f/b3g+Xd14AF9m7hxRF1xIGVhNQLr3n+On9MsPxZ6w1vs6vd/I7reen/znoleN5Ze7EstgiY3oFr+j3B+ZUf6bNkEFYL0rL+cfDJ641rHb7D+t+Trgmqn64i14GRN9cWjovrp1Stf2yTb3+AOTEt8u2rL9br+YKJtc/5Adit1Kn1aQ48fxUQSRP80s8/c/9/Z5HPhUtVvGXj/uLic/e2K+rer7kOCaD/WQ9yjikqYHFZlbKO6/bAQ1Blqo8Ci3UV8C5Xp/37pe1j77msfezfan/P5ZL/jr10Sumn/VvF0eeY2k+jLHvFnPZuxZ79EbywqYqLORdSX6OOPK/5Qw0uWhkWIeVnTO2yY6C4JO1OFIWtxPv++fL28fev51XWTW53YO34IX6h8q/3fQf0rlk6ZZk/JP4Ux0H7ielc1EplzTAV3DyzZLX19Z/OQ/mgD0ifc37WYF1lRG31op7Wi9E/p8KitRLTHDl/mkfsfgPrieTOedma/rh/x87kxaCnFzKY5RTQtbLBjDnv3Dn8ny34TyjppeQ6/hJjB78eYaZTLjat61PFIIa/64yjwkewjmvrcn7DibxKvH19CcYMt3hsDOufWF+HmVeNIBhVMmGCBogLnzkRbP5882V47f2XXLEBKkoeZfwCHJY0Y2B/CYxe8/z1/dE4bqqoj49sueej1vPjAXybjf/7XwDT8Twv2zPP97MHPrsfUFoumhHdC+Zy/YThgIfDZj7+33u/4bxOPOpnvDao0CIvTbancLDG+iqjOpdetJ68R93ggL50wXhOQak6MUBS95NP1gLs0o64wf7/8u3Si6YvHlX+knn8WQLvJ6BP6V1+8eNsxoQJRRgMy3i271vLdXvphXinO+d1H6v9jLKlRF9Zf+l1XihqZD+ux6SD5A77PH8egZJl5tj+OY6H2qcfEQiQNNUhElZNpHSPKd0cTRPe8vJL2p4L1vOq4e6P2M1vg+76JYfUiV/Pt3r4SBguZm2Q/QlQB0wJn9iwDvDd51mHqQnWqoGknnyqrwj2VOOilaSJCP9Gt1nPb8QX9dljKqwJ7B1z05ry+uGcUIse1kRYehmz3E9wTpalrOO39cDJtzmQ+TwBSo5VreD+WbdskLXJqmOff7nx97n7i4vwp5FIZnC8BuC38Oweuavh+VqdgRjW99QzucRxvgfs4Huy7i8uPPeKUZ9yPFcWoGkff+F3s7se3O78yCP4hi+3uZ//5bZ6ZF/9+hcyBaaE3Xngma/VIjIo/FXQJLJ/yRXABicr1QGSFz7sdmhowDZMqYWX8vjcrnUAHzF8ly/ZvbYfD+CPnt/8ku1+Tlyz8Pw/8dH1PCFvddeD2mH+opC1WSC2voCIq8O0xpOLuOND1vVjEmVe+401cFpfPr5+gNRL/RmJ2V+MWeFJcNaH1vMjqzs8RO9n0HtebRdz5PlLfT0xBQVntKvurafcb//PJf7bamTdV3Pd/1+cAXd4qD56J1/45hvJmFMwzZFh4ZVW8pb32L3f77KF5+15p+uLR3JnTTuqR/wZJ97i8Bl/c9P2i/956/bDr7l5+54/uVH7zt+/YXv6X9+sPedfb9We/a5btq9/zgnt+LrZzjOZTl9Bs8xcx20YNmHLzRVD7Obj0W+wDKUjX3HLkophJWG6gFsWgibH4McEWxr4LPGl33lYu/Xd1/PLLbypC15dY+HYn1uce73onL1r+e8TfMTHPb9c/5WWtUldymkBqWvhI4jRVWs3u8OudsN6FbXfmPrJhQM5191vIG3tmDvnz6FqdIn6cFpfznz/oKzKu47f1gO3uffuduyN8KGKNgC975J6ZhIKwUyxCQmFvMujDlvLb/zx2/6BHe2MNfy2HvjCx+KN5n1+as+NBsCMOMJ8OCnrtGYsHvj3WcMbf5+Fc+hayNn7gcll7/f4o9uz33nL9rU/fUL7vHsfepXv0HaDmx/UHvrkY9uz3n7L9nU/e0I7+FA8J3P6VAMSWo6sxyCIGk/numNhqth6sIVudxUIWRfeAcYwaOHthct19kf3tn97/XpO9gl8J531AG+qnZscmke/q4uFmX3k39bzqudLn3QE/553BuuziutzK8jk9Rdm5pf/wJo+FbOSjvM3trnufsONY2nnOQCqhWKlef2x9QXYb/gGUEDuj7/38rX8CRj+3fbh/yP/IeR8mKCUvqZYSM1Hc12dPz4X7JHfu/9/q/nJj13RLvrkmBfqf/Td63nO3fC2B7e7fcURXD8g12uQ5w/n7wkqBgP4YN/Rjrvpge0+j9v/6/bD71p+R9zXusrgkyqe8JsntW/51ZM+ow82xFusPvRJx7Zn/N3N2rE3xodJ6rxpappUpKtJqXn1+gVFFLImjgH4e0yG8uB0PMRTy0ZRB5BKqJEl5LYVYWVY5y+71oEPvv2y9tF6srF/tOq5bLdY73nDev6U4IhjD2jf8ONHuWadGG/9xKE+NreAvtIDjDSXfMDjDmu3vc96fsmHpOPCSX0a14dKp95TQzUhsxb0YI6cJ6PXBD1JsONw6Z697dR3rOd83u8bjmi3vR/+js+LxSKStHBemRsMlrXDBf0R33d0u+Ep+/8d2X/8I37UNdWvAu9/8yVr+3vir/3J49vhx49X2blmWJKTsc5y45rm/DHRHfv4EdzreK/o975e/7ZLsL5UfLF66p/duN376z/7m/hNv2B3+59/e7N2+HH6+SxS83qsOXhq1Ed9Wjt6TJpiAnD3NX7oIffO9TiGkovEpcYDKBzFh85xbXgFexb/fuyagdc+X+8AL2BeVidgDjj8O94Rf024+6MObV/2/x3B3KP+tI6we4AYngPAxjs8eHd77A+t/zPd2Qvn61IuuxZUPk/JdZQ8NmC5FrNnf6HrkRkha/Def1zP7wTwY59vf+6J7cRb6Uc1nBVPrPrP9Q/YRKm4xvelfdTT1vOfRu95Pf9uadQvecmF6/ticvRJu9qTfu/k/o8avt2sgA3UjpiSmX/183U/dYN2uweu53143/s6/VklUaXUUWtfUzVu/5D9f//b4+uV9nc/70aVeNy/Uif3v8wL6NcrWsLuYZ+/I/h+sN1LkXEFIc6LlhByISVYL8WiY8vJeN0a32Vrf3DBOXvb21+JN7rWXCCpel4AVRzKeOo7L1vbX0IAD//uI9u3/vzR/IwggPVLjpPn+kCaKuNDvvWw9l2/ftzaP1oF1bGxfj3Ui3xrQSVETqo1D9TRmk866nvW0NeJSq+MkDV4+8vX993UEccf0P7ny07mz2Rz/lRMs4EJQ/QAQML+4G8/sj3xt05cy6c34FXqO/76IhVLutKhvu2l63mLQODz7n1Ie/rLb9yOuWG9ultMSkLFewN84F2snvAbJ7Yv+q71fCH58Dsu4UfSENOa4peED/1ufyjiGnDK/Q9t9/3Go7mOvB714PXTp+j59+s1doC67n8h9/eDJTGDyFwpAKRPIMAUFcdQhFFXMIrDj+g3vnjP2v6udH/wxhde3K68XN1nDkCmCqV3CX3vjq1/K7ufuMeXHdp+7O9PbA/4+sP4204UzJphEA2n9/Pvf3B7xotPaI955tF81XS1YK5PXeq60LvGdUQBuZxLn/XVUNtlCzv4OWCnv3995xNvE/h9LzypfeuvHN9ucHP9OV4mgXXs9Uv/vC/c3Z7+lzdsX1ffcq/ro3He/Q8X6//7UQwPytqr8ptfeEHbuxf6eoBvoX/izTdrX/b0Y/XXAJ7Ccs776kXAvvaFX3tke9Y/3ax94des73Ow3vSnertPlp2W76t/7AbW1odHP/N4zgPg9co1LZQYdz/Day91RUds8Xd8z53PrHUaryr6DKDblkLmM6LbJ53S/Nn2dT9yZLvfY9f3X1ifKXCx/e+HndXO+djyz684D6l9TpgzUfpdvvSQ9u2/tP43jgDwHzj/8eZL20f+7XL+GyHe0vDIG+xsN7jZge32Dzj4av3Qw3f9w572a0/4hM4PVsDTxi/jfuGdN3bU/uHXn3hme4e/Y8h1EOAaQd1I1d/RvuHZx7T7P27/f+P8wbde0p7z6NN1Tnud1r7o249oX/Nj6/2squAj7760vff1l7RzT7+i7Tlvbzu8XuUef9Nd/NMuvvpbM/7v4z7W3vk3/u7Q1y3XmoYd7cl/dFK705eu96NjALxyfu/r97RT36654v/z8aOEk085qN3hiw5ru4/Y/7+MmIF/pHjGHT/Itz3kSQRqkreuL1rP+Jub2bBe/OKXf6T9699e2K/bfv2ivm8PS31efxnD2/E9dzoDXhoJBAMwWZ1zddg4JwVyG+ZFzSKtnXzrXe2ZL7p6LuxPB+961SXt15/8SXaJ6aGnTHPL5LqjZrBjX/vhvzqhnXiL9T9B/juRG6wWpHZLfOjh+m6wZ7V/eeUer7mKqIyul1wnFF7/xz372LXdYH+mbrB9arwOd/C/AX/8dTfmb4yvzXj/W2p+j/xoaeMGoOt2rOuNbntQ+5HX3mRtr5j/u/CXP3t2e/GP+1oFfFIf8+M3aF/6/63vxwMz/uHXz2nPe9oZqnVV6D43ZOh+WPA5qS83UhTo06MIHIhoDKPsT4/y6aRmw2MGOB973xXtff+03m+3PxO89o/11mu9f3/71KcJB3c+OmD6299a30eZXNOgW14hC7NuVN6k5vXm1dUN1/W5/t7XjlQU8F3DS392nR+989+DF/5Y3XA8MV2+mWXJesCGNzp50wuu3dfuhWdf2V7xS9MHYnqamO/tv2i9H2I54+Z3PUTX5iqm+gRD8kUte8FUjPR63oHY8USAZ07SVfv40pd2OwpoiJueSd3HceE1dZP778AnPnJF+7fX40213T9gZfSPce18LH1vfskl7Zx1vk/pNQU1zeX814zKnetEQ71yJRa2qwepl/wcVzNv+vML22n9XemvfXjHKy9qH3jzJbWGevU6rlhA6w0z9pc++xy9Gcy1FC//ubP5YYs1Gz4yUcz42Buv4R9urgJHnay/iQVYMkuIQelccepTDI9Y/5JlzrWtGyzjaJVeHgTGHMgtQy5gDWSHjXbz6QKpgPeJxedTfa6Bj4QJ2Ir7oXSP6F6CAbWPhdp7xb72t/9vfb+VvcbAUxYyWBj3D7h+aj2z3LhWeO3Ug6tue/zrBq/fKTnru58X/9S181Us3sz+RT9xdl9bP8OylH1+uHSxn33a5e3Vvz0+4ubahLM/fHl71W9OvWOymF9t+FDLfBbZ1QG850m/f/FocIAFhsDAMbZr/eHX/QNm/R0soWACprLH4lpEbjyBEuLBg22yTzR+csDrXvC5/ZMtfPV+018sXzln4Tr6/GdwARBM8brnX8RfSF3XwJXg/LMmK2uzP+DyIZ++EOOJAeTCk45jRusFZ4VauA5Z0/Vrw0eE48MLr2348x89m/+VhqnoTGF+VAjYsKawYcdcX/xT57RT37G+T8H4XODyS/e23/jWj/FjqHwiJaHWhl+0reuTU7YDfjTB+1qgxRamXgBdX9B4B+ROLuyl60NuclYgaghATnmUiBL28aQBlTr9iFARIHyOy/+PL7y4Xc53Bf/c4K1/tadddK76ZuMQXS9rJHfpDpMMp8Tvfv85a/tQx2sKODtdHX2u64O/mgdWdfFFx9H1Y1wXKvmivsEbbT1e8CNnt39/3TXjb7Q/Hbzhj89vf/fc8zSvvlZ5/tFMJc9T+LDhTyR/9Rs/zt/4X1vw+99zRvvgW/xPFIbmzJny5sq/KriacO7Ha61Qbq6fa6nE3EturvTXYHi065dcVCUYX4CMPl+osRE0D/7qBb3Kv/CT+9rbXvG5+2qKtyUE1Oai89HcbK4+s2AWBNo/78x97Q+fce3/BckCK+fLK7U25Avu4vqZ17swhqWttXxVZzFf/Ebq4Tuq3/yOM9f2RjBXJ973pj38+Gs1n1XN6ctoGvORrbVPnnZF3WQ/1i5f0xuPX534q184u73pBfjuQvMgamJRNTP8Eu/q+47yA2+umzuKbFt/YS5gJD+uM/nUI3b+iECBAxjyosSDpNr8zMDdG2PaywaJ0DxxIJgOdksWRECpr/nji2C92oHP5P/QO8c78Li93s8sOVfoDuKcqOChRcP+r6++tP3d71xH/qoAc+Y58fx5Ar0AawJXEQtZaXP+udSEFB5jXGv5nFfl1iXvUlBL4n1/f/XxZ6zt/WKvDpx16uXtud/88fq2GOuHFdV8MA+dPs0TOqbFqdnGjYGtnfr2y9rvPfVMja+hePvLL2h/4b+QQO9djpn1+bzzFVff70X+pfqoQqrP9aqCfH6MfmDXNY2e6GKHAGLgh5m/5OqOKZBkPJI4zoDmFVuhW8zrjZn/4X+9on3oXVf/q4bX5kbe61MIbi3IkDG1Yxzb4olZeNFPn9/+/nevA7/0yvnpM8TU50Xaf3AdnXy+fmRL1YHFOVoDMLN+/qa59cplOuMDl7fnPOpjlNc0fOCf8Peup7ULz65Xnl4c9V6z8iQyBvjE5qjGFcCNgbohvOXPL2jPffzH+X4F1zS8+nfObb/+jae1fW6Nc5gkT9ZkfdtLLlzbm9rM+Ph/XNreX98xcIHxyEIv1l9u9RTUGtdRXeKgXhefCgRSngiQUClrQ/js05hDYtZVG2TLXlZBr/mjq/dV7MXn7W3//HL/fI191M7y7iMSM+uqXgVgyBDIQtYha4N5v/DZ57WX/Pzn/pck53/iyvU+OTh5z9RzWyeQvpdgatXKdcQxdS7umqsjO84daizKq2RQg9Pff0V79sNPa+/6u/+ePyXcDq/7g/Pazz36o/zZqdodz7esn6Y2dJ6/EcQ4zX+c27e//KL2Uw/7yMr7yP73Af8J9gdPPb390f84o115JXrkRCQxO/ev+UNiuI8fQvj6WqN14y9+9Czd5FlXtais1M/5kAbp61chCKJ/8X8eIOplb5F8B+53cCO2FIO7R9jGY3grfOBtr7x0LZ+TflV444subvngQvVfu1oz5v7tR0iZMOL8IQtchwwMrMwrf+OC9rwf+uTV+tvMGRd+8sr2y9901tregCYXCSfnNciarA1JDTB1BiUX9WVbZ/XcUHh+67E1ty1ucM8F+9r//abT21/98n/vnzXhN+fP+4Ez2x8+7RPtynpRzeuPnjEDtMznKnVdn9B5/mrAJzuN8MED9uB//L2XtWc9+MPtX//uc/PjuqvCeWdc0X72kR9ur/29ulFqAnUoha3C4P41hQ6F7msv/alP8Df+68K7/ubC9tYX48cDNfC6ZfVnoKe+/rJQ0laKToM8+jvYwmxENIJ5UlCMQicNcUkOcGwd2WOnQ0T7cZT3yrqI3vDnV89vcNHb615Qr0RYvrpmcQ7YX/RMVRNQXO+9wCiRKTlnzN8bZvqGP724/dzXndU+vKY3Ob4q4GeF/+fxn6hvX9b3m2Cda82dO+Y0L8A6kNRQZsCIYqntmHWWxznSw/lrH/ODwQM1KFmPl/z0J9svfPXH+e+2n2u8q254P/XFH22v+T39DJCdQbrF9I+xrkXpUBhdNoTgyGuXXAQI/dlZJnxB+T9f87H2B/XK8ZyPfm5/PIJXrf/wm59sP3afD7UPvMnrzDarP7fIGXlyEnr+yaMwvLp/7uNPW8uLnDPef1n7jW8+TQMkx9qpKdUvnfVL572AFu04Msb9MYyGfXo3LRJolK4ECgZ64toySRBGhGE+E8186DDxIPvr/3TP1fIzlPe84TJ9BhPL1CESWPQlCcts5ZjzL5vn2k9sORfrUvuH/uXy9pyvPKs9/0c+2S46d/0/2/rXV+1pP/3lZ7SP4CaO5taK6UmK2aw9f4HLhcM2yWtdZcVxrOvaUCl7+YLmCYxaNPHEyoZzj/dZfc4jP9Z+9fGn801crm689w2od1r7la/7ePvIu/Bfh2pUHdUVV8rofcAdM17XpXTxO5sSwPM3YHQN8aOI/3W3D7U/+cGz2vlnXb1/yoUb4ev/8Lz2zLt8sD3/+8/kmxyhq8Xkpv77DHKdzHH2v+fVF7Xf/NbT9usvJD7yrkvazz3i1LYHz98t9UtDfZhw8HUCSa1M3UxdfHl34P1gIUSKjm0+GSTA6QSxQRPT4AAH7INfwWVa8vFfXe/8+/VfvHhTbdVCHRSEFQc21+vTXw/NeQB6FpSxllqjLL5s0BKLj6L5sYed0f7hdy9cy6fSnv3R+ur8xLPar3372e2sU69QHVZcEzgPzQtrAJ1TXDfYMg5aP9ZFQcjaeV0RDFwfkA4logec95C9Poc6y2yv5DteeXF71hed1n7ziWfwF0792lkDcLN596subr/4mI+1n/+K09oH3qJ/f2V9hbhtXHPuqaSuRUmADM9B7KCzo0oymYSwo15Rtvb3v35u+8E7f6i98MfOWvvPZ/Hvrm/4o/PaD9/zP9vvfffp7ZyP4NNhy4Gdvc9943pUg2oR8/ecsdeBuieA2H964YXtZ774w5/x55Ehxz/+8Xnt2Q/+UL2KHy/KtI6VXyVUv+qo/sr6Y0CedQ7yXK3YJ9/xjH2ajwl2iuNAuVQkBWAAR1mlw0OndcJkomyuA9zq7ge27/399b3L1ic/fmX74Yee2fbxW4a5l4AGybJbI7KIXYdHYbBoTE161mtgZDvwoH3tLg8/tH3BFx3Sbnufgz/tjxs/78wr2zv+dk97+ysubu9782X8W02VH/3c7n4Ht4N247zAjkMBZRftqJdh1ljYV68c9rb/fPvy/Rmg7z50R/ueP/gU77GZVEp8lXjxz5xbNw3VWKDzV9e/tS9+0pHtTl/8ab6Jx39R/2Pvvaw973+ezbltqR+s1q997iXrAkd8x95kV7vrow5rt73fIe1W99zdDj3y0zuvAV4hvq++JX7Pa/e0t77sQv6x/Nb6y+cfPHM/1GmdBjhAh1aBq8/lgDwMnWCuk+c1CkG/+Z0Pbnd99BHtNvc9pN38Lrv576mfCfAt9/veuKe985UX1n4R347TZQUqaWabXtRMOTSD+JJB9OGB5YBdrT3oCce0h37Pse2EW171R/LgRxR4O8KX/uRZ7dR6HgCqr1yqP/KqWAE21rQp9RFqnSq90nd8zxecUfmUkJJmxE82ywVqyHqzzhjx5Rn8UmwRov/MP57wad+APhVe+kvnt1f+hn9w7156/aoIE+urHfaMRtLLiB06JfIkEDDP0xqmnpQD6Tv2tZNvfWA7+Va72om33MXPasenicJ1Xn2LhG+Tzj19bzvnY1e0U991GWuJPtW3DFQL6UdfyJcQ+SejJdzw4Zi8IC9C6ae19Kuqr7rzuswxyUUwqQwwKf/gk0yIj1CANEjHMcpJU0v8KcYk8hC6UKIXwmdfMChmS324HUcqjXggaF876dYH1RP5wHaDW+zih+3h00kPxifF1jcwl1y8t1164d76on8FP1r7zA9cPn2kNhOrAGBdcwJGLwmDRE15p/4Lo8fJ71hPzdQMgEl3kV5/0uHCm8OfdMpBdf1irgfxvYrxMTIHH7qTNyu8Z+ue+q7tE6fWPP/zsnb6e/Eex+PHDYvyQBJzYjDgkDlhHD19lESM+aTZL/MUQ621k297YLvdAw9rR9+ozs0Ju9gj/kPr9Pdd1t79dxfpTWRYq+BeUkumqb4KMjuACFOI6IiFV37x6hXs6fuSFEga2BSkBLLBPyTRs3vclRHFEGpL3OZeB7Wn/s563tMRJ/qHHnLm9C90U7dzAzalzQwDLRJsOmGR3Vb+LPy2iL0v3FSs6/H1UYfyViWHiKHYRU/DOeQqui8KsCQwzcS3WKZOT7Qt16QHBUkwoxeZdObchm6+almWkRf5pKsnYRkLyyrihVr6lvrJ0M09RB7NGVisv5H16OsCV1JSRpkhW5+bY7Kuc3T6oF47U0Yzn3lqC3+BbUwdTD6qKc8Sc0h0yBhYv1SEzOvSESfQAzkqzE7xx0hY0GuQ+kqTeXuc+osmt0F3hSn0+lOR1AIS3SXiMX/HjPUXcWdOSjY8ZoAIJCnASdQDtiSStzIkCLCZcQiDLIAP/YGPW997Or79b/bUzXWva6gzIVW1CIDbJxDJfmCLceKrU1jALx3zcCDOATGIxvb1Exc+TIhEjTlDzzt55idPr092YSYveil9Hs58qsrQh0ANRvmqaAevt5lfIJsJpt0xwqwXyPM6ElN9mGien2CpKIg3+Jl/uDLLty0QwCeDY0pX/bnOXH8JxIHR6/tE9XWBhDonoCsGx4EvlZ7ej/k9Gua4Csjf4xdxCur1g1lnsOPmxGVXPu8TVoaM6/WLz5QTX3Yh52YBu8MXvJ7ZA5wnqwHcvA4T5waSj/M3tqmOEIlVPh3ZCyZzZBMAFS71S1Nhpb7tqd+/N8eCcOMMnAT2fhENEmeJMMQMI/ceH1+NmWkKRcyxJ+9sd3wQPv54PXgd3m+2CmAOKJb+YVH9uiDcANuqPRFkgYvdHmzQOa5A5CN/kJBSSGIgQXRCxwmAow7wQWAIC+2AqlKrGNRiPW9MV1uPgoAZCUIMXEPJS/dQRwWzRdgnvoXql9R8q6Id6YdY2CZw0J1dZ33WwnhwWL+AMW11QI1en5uQfsAHGMcYA1wM0rDjAJbBAb7OER8S5rAW85eJqRgJHzlkOaZHScNBCTASui6n4qb6GBPqBYBLcRypfm3MVEHpRWsiMFOGIhg1EJEjcWpfrY+8Vlm/O3A9isc05KzMv8TcizoOSsewh0LB7mwc1qF2hzi3EXoZ2LIz9BgfaHUPWlu7pGpQuuKgTzE8lodFxKc9+aBask+EJYaY6puPoW6wZOlJTRLjRGWgQTVjSiXrgM32NNrjCxpqfL+vPXRtH+Z32nsvbx942+WuhX2qPzXI9ro+L44cnH9tWipdQNgIpAt5FXFAUq9grh/0QVK+glvr9c2nv3b0jl3Vl/w+XEgP6K8diVMfY0P5o7s+xzKyWjlE9/wdz/VA3IJXwpKA3gkVBb37NZYbuRUCJEThy/pBzsdCR0paCuBi0DmuL60OGseSOiCGAokd9qx/AFuvP/koHUY39gpGTHcEFcAYz63Xp4Tb/gLbhSfj2lnfvPQSCSziU364C8gvQ+eVSAhs0VkfAxtGzak+YuAESuk5CzhHw1kQqUwyzrFKq95i1Tn2oLClPiOhccAD/SZp/e0KHOdkdXCM7ayPQXF1ju2EKXF1kI6B+EGvbz54O5UQ7jo4XnG5AJZI4wTVCg4wxp5CxpwHfHw20n0fs74fD+hPszwgULt2TzItQ4wwaVqoQo/RkwdbFon8hI0EwjRPwcG0Kzh8iDkXsDxRqK4nn9Z/4huLXnCY+XBih22y9zzYF8mQaqV++VU/sepDcbJJg45jRgaMrG+9FNUf/JnDNg14Ukt09aKa5tsvvWA+0xJdkVET6YWW9ZHfagGeeEmDv7b0ASx0RJsPXkfZFGIrawqsXz5ZVuqXkW7zVX/IEqoPHcM5L5xSRv3unuLM4ZG5cH5kgcSentgLZG295oqe4LkXgOeIyWpPIqg0yoSRrnMZILErFOteR6SxhHc5Z9gVnbxB7MTsYjLrBdanf6oPLuzQYZsorO+B/BpAnxL0+v3vYFmIXgcXelIcQCiFPB4ygHfo3VVihvIr7G4P390OP2Y9fzmA/83/p5desqxfoMygkIUAsqhwY85YtMw/fSIc+oB0mmY7F9DJwGec+8CBobAbMJWda1E7aovunmrLeRg900Ewrwc8ggTIwTyjno6AzVSgk0Wpar0nSOZE3OAnFW1dx5GZCjLSX3z2PvGH6voqQbarwUk+Oyq5qG8obykKEah7MMuJ37WywYyaUNAHdoZC1hbfPNdg7om9IHjiDwJkdvgdgLxTDOtDswlxTMOoxBXMV0+yL3qJDpk+htt+159iVQuhssGn9UAcTQIHy/Pa8xRGTgnGDLd4rLZN/SooG6SjSiZM0EB9ORa2Cu7PXzQeIGTij5p4QFcvorg+8nSP9g7klyi7oiKxsX5tSxJ/RJB0IC+9rF1Y2GNcwH43oaIDottT4oGPW9/HCb/5JXvapRdP9VnG9d3EXF+IXg6ooWeMAx4O28JfOjofSqIYgkM9Vtd1C9/Yuv6K63ako2l7PsZxK0LHqzp/K+xPXb+Q1oMxLC31NerBY12XYNZuHxd5xvziE7uxmobhPdHEh/QOvqw4wsaBaIAVlbGzePriN+qrG/sBlLNKzHxK76nvA0VhUa/Qx3yMaqN+7ZjThJGtsKW+kfoA5iTF0x5xcz+sXSpGOX/Qez33sdpP3FSiz/VLk+764NuPOknH2thhn+ePIxSAbY3zM8fx0OPm+gtzASPX73HqMbvylqYHQcn6ECv1pzXhjwhg7xOrnWGwW8JJEgxMkijJbgIQRi6M0rlQptzsjrvaTW+/vg8sw9sSzgsAqD4UPLRodvV+JHVyqDuinzA8mEQIvxshlYg1RoRtMFnCw/nTpH7+y/osrhimhp0k2wDI1I/OHLExqIfl/KkWPZa2mZ+egPSBwMGnq5AYHGxUIY5jh8uZYenjWaYncGUDG1zkgb7kK0iSY8fIUQAPDktZRcoYbrfKGrBln7nUYa9gxGVcKoM5jK0jcVN8XxeNYZZJMdBRG3ts3BiI2HGtzEBMGUUElEB2qvAxgezmw89QbKZPYd0OCS822cSnEzYFLUGT7OFrN581MGfPCZwCIgCmhH3iq77sTtD5q6BJ5BGPicHsfLDrmlYdoNfHBjt08+d1mfn0y9QhG4z5JdcEmQtuSJlN2gLZFKkFwAFjLAjASRTIL3Wdr17f95ZL2+kfuMKVUAOH1BfSx3/R/giucfoMJpeQdYGHxlQAl0e6aIO0s9ef+TxmLOgEFmCufQs/8VOeaL4kqMc9+L2BhcxI0IUVwLc4f4ZMSybAGMaNnrbjw9n9lkTFIC5syOh9XQqdM6UkUr9qzhkEBWdEiVCOBNTGlp4ht/Rfw5kjxIIY7OENPvsqaAQ7lT4GVJ3eOuAY/vJGQv8CGVcMw8SlNtdnzkIkVEuA80cYR4pJpOrbk5wqNoAYm3p9SzlWrBUfL0B67UqvmDB4XqjBJsxrQmCoMkqCR3p1bLgyz3zdv0JHACT4kKjVuT6QHeNQBNftN9i5V7pgYEUebHUQbTUu0XmlTBETHSdNF+3hx+5od/2S3QpYA/DpCKzPwqjh+pEF1S8TbIiprUtEOZA68hQsiOQhkAgGJqRBPML1ORxfbEJBuOpaMnbwIZ2yJJzSlc/IYCGHrjkBmCNsCsHOurUtZDmwA+qNHUiCZzsVukasAJ+d5k8eybIjZKy/KZDY7KQPQYBF9yNEBiJ8ggNmVRFDIcxgfYR2CRuP6pv1oRjqXQZmtm8uuSAkKYAg82XyOSkkJ0Psha5170GMY2ztOTcAOL2fHo9Db0r2iZ81liuyuyRnfkluDtLayAdb7wem0Lj+pdAFw1S/jIv66If6Cp2aJP0+8tpyMOsreInZhFhSxYdzUZ/jeCCnNaVE74qVD/3KyfqITgIZrRgY1u5fchkO4jET2HYio1m6HQNLomGSi0c67/fYQz/j/2m+KvD/9v/ukpEfJaoGs0cW4Hd7HfNi0c+tINNirVaoxjR/RiiK9aGWEt7wDqDmzM9GUwXTZ9Jq70TnlxMBDJJN4SXNo1tqh2qJr/VxfS8AL6iJT9CVQclFfdl0IQLT/Jm7MPFxXNSHVlI2+cyiHao8M2yBX0rPid46v2sDoKjG8GMn333MfGBRX8HS7QfCp8999flPGRb14S8Feq9fm+YNHzxgDz6g2FJCho0xGCjPzGdPBiNGiGwlw9cRjk9RHzCfkjYmssH8xBgKzfxpmmxYfzJtl1xUL1KvX3AK1Wei2pN4eDvQU68vi2iwlcI05ktqTfq8zCc4VOyiSdH8doUykehQVYGn+3FMIjUiHfs4tQEaYBMkV/wB+/i3r+vCG/7s4rYX/+7MGqi1Uh87jJbYubDe+omDD5tCOa+ehz5JKpw0lMHPGA9ZlEBWHEsiD/yoj9A6jAvHGwPwqA0uURmvQwEOj3VSawCfgsRLXpip4IFNuRk58dVbIlwfcQxELKzydcDIXhzgGFXGMfPEWLmhqqIsuShVXxKAXX3CqFg8sJtSgMED8yBp6Qfl7dJ86Jx/bTIziDYATJ6n2CGlqj50jlmoYCdypkEXogdy5hcwVg3pUBhdNoRo/WEEFwGCvAWYWMM6QzQnAT5zIbtVfpjdIncEqE7qe1x7r1+izw+IardkGXtIuJAQ0zmvHZq8gsqIL18ZykgzA823PqPHpD8mAFdxCh989KUa2nFkjPkMo8F26+KXjl2hMDu2EBtg+/JnsAkmYURz2Zljtpe0ebaCj12LqRjw7/TQ3e3oEw9Q0H4C7yP7erypdmFLfeyoXzInNBLTGhfh4IDkEMZwDYAYKeHgAAcDTwRxYu7zp0lG1Rc/KeHq6xo7QsxfAM7Ywidyk5A++KIkVHV6VMdyLaT3+oPsg/gLVBFZcTQfW/EX9Tk5YWiznutlqg+UiVYHxrxk4lDHmS9rTJSKi00OHsumfmVb1C9wXeBiHA1CJGxwsIi44SukMsi1BfIrXus/8d3PfI7KYy1cADbs4qNQ+IyhnM/TgEog61QfG/pJffCtM68hC6CaHamPjAwSnxFznCsm3iWocwyvHsv61s0uo3cMqU/16wiwvn29UMn4u7nkon6OcMJXW3oZ7BU4B4CYxUfGiIMDdgUR6WAi0wZzqaQZSKoJIU4xaOxBa/zl1rv+4ZJ23hl6Lz+0tawPmxaUPVhqQbL4skHLgsHc89hGYyRt4NhGqQUfPOWARV7Fsj56wgYd/pLYWL8eiExZZZmQ+pDYSYBULkUjRkzsDKUduuuXXOjmM2bSlUCqJA42IvHUC/snFINRd9vMmo6Qnl4QK37sRA+W0CHwAORCr8+h63voENWBpJ5esA0+Y/pcBhjFQI0XSQFw4isdag/1UblF6fXNJ8N1+/wB+3t9DWR3LgGc8Eri4WIMoUxN0+Wug2PNH+uv8wNARieshq/ezSMqS+ozVnxEkFIH6nKO+rbziPow6KFYOTGQoKcQO0Ads4BiMjTUZ07rloApBFvhwPVzZP2ylwgvcjv0+rWPDz0EAQMWieLA2KoIVR4UFaAga5YPOqfphbrhbXa1W9/9qt+f8TPFa/G+AwXWdxPzhFUf7WpRA3bPhyScg9dPGYySXlQCMvP3kWGOlU6VORGBaJvo08U0oWy9PnWpHBRWoll/huIV2+tXCGai+oZ5/WKe0Gddgr3AbdMoF2XJZ5ibXu2FkSt8HhdzwDUjDjD3AjB0uI3BJzf1GWi9BKJW+SodfskKHPUn3SJnm4BthT/qr+j0Q5v4BdQfNnEyZ+q1z9dIj42gHH5xB7/Xp0T8iAVYfzKxukLJwcaaV8XvhwA1o0HRgPUrjnz7AeTuKeFCzYmv+hjIKH4P2NIPfXGv6moAo54T/GSgp2wMnXT5xVe0A5BnS33LQq9fIZiHMtUrWDgxFtlBU2I1QJaSANBlJdjYxIfOIgiqfZ2vXs/44BXtvW+6lKkzX+nLC0uTBHTRYJxFSG/hA1zMzA8O64xlYGl77YceM0IhKOWfe0Fg+uk2xNUDdvClywOkF0anEMadT4r40BPCgfjpBRxEQYpfu1yqA4CTBqhbZbiDV/jQOr+gOUeXX3Gujx0BCSqAkxyUdk2t9CMx8XFUz4O/qG+d9Z1a5y8OnZfMOxKgXmFcQySKi0mX/Dp0XR7MN71gzUY/PAcrfM3buWgWnzpiHU4VSazjoLjBl3mpg4IojFmfCp3kpxLrlx01514AjTDGQToVx0FHJoervnUI+qCXMXYoiOv1uyY+FaP3059/BQUiOQesaZLqS6cIH/Wpyc76cFmHwnAkNb/7SiYnoUDBMWTPemGnKoFco1TjLp25nZhuIyp8sScxbbVBx5tp3+NRhyhgDeD7DhRYstpKpwDrV+1ef+ojfsragHJ3UIUfRuzW58UOv2dIqPXUFB36sAGpa4b6gquGDiGosn6kggZ/ylAutgUpIVptlOwjlsEHFvWh2D330uuX7PMvIY0sQ9cBQhlOC6TqYzzWT+BagQfdfJDAJyiTCergUzM/MYv61j9lffoSIz90qkztRASzDLWgWMUwD2zuBRh9YNeRgL0E61bQoj49Bkx9aC5hPfULzGNbIhf1HSfn1Kt1+kvhnCb0oemCYnWQI/Po9S1VA34YgxoglD7Xp60syJFchd7Pgl+AmT7lYh6Ma9dcICHEX9A9gM+h5JfGrdef+lggyUQETTWhIKeN+ldZJpBjkctm5kpYAQUTlkllX6CG9/6qQ/iO6OvAZXv2tje96GL2Meq7H9h6+VEvnfbF5zxsS9ggGnO/8ZFIrc+zTIhEjTlDzzt5WN96r092YSYveil9Hs58qj6Nc1gNRvmqaAd62rY+E0y7Y4RZL5A3X3BTfZhonuqXnkhAvMHP/MOVWb5tgYD5gi9d9ec6c/0lEAdGr+8T1dcFEuqcgK4YHAe+VHp6P+b3aJjjKiB/j1/EKajXD2adwY6bE5dd+bxPWI4U1+uXd1G/dtmFnJsF7A5f8HpmD3CerAZw8zpMHEvkfGD2g7FNdYRIrPLpyF4wmSObAKhwqV+aCiv1be/1U2vGwjb4fEwu6DuefIfTKy+s85Rk0vWnBLM3oB0LSf+I6I2W6Tb3OLgdcbx8OMLckSIx9oDt659/zt72vjeNDzZDKCk9FgOyqY4nMAJG7KdEDxr89DIngMaclgHrFVgfFHxrQ7Xm4t6IOcEMju0EH/VhWglGGS4fpG2A6Do3UsXZrn74xJw+yam6/iJ4ClnhcwjOav0aL3phDEPJ7an6YfCpLeprLjrHsQkKiU98cBlpftYiUjZn6gfxmdBzme3qq7MKQycFSh1Uc5tI8FfXJBGiCOZvAYuwgMaTHpd08RehtS/ql4H1EzDDfJFoMWxfNFuo+NmyoJsv1rz+0/pMPXQOFCCuhWMOKJS9Wzy/7elXUR9HJ7jKNQFg56J63FEZ7drx5NvXDTbZkggewGN7ladsOSlsibSp0XqsPrEWgI1NWcaGRKpQmOwJxVBW6WWc64yFgn/YFUzjSLAKxlUAJFE64zVedff2//9CzgUJbuSGoUnuf+jw4cOmxs4GGjXZIEC2NGNXaqtibyd/7wT88fwE9dPumwsR3AEg+1Q/ZfKopv5P71/Onzo1SVp+UON0Tq7ni9BUuCtTVbto4dE8//1+dLb4QwdsbuPJT3TVvdZ+ZEC89plLzDlUOrngpo5gcm2lUSNMimLiRwPWHj9SIBtxrn3mwR/zL9Ls9luSTpN+50+u/lYB8/bHNdE68H3/s7xBi49G0TqU751a2bO0i+ijOfbBPQsZPAKVFp93ZGnqaNsMkvTNAXjBPZdi/K935lfxGkSf/QXc73x6zqU+KocfzX/EFPDu7Nu6BqFmYdLfQ3j2jJr7SouPH9T/oeGYTzMHQHgyZzt/NX5QPfT1V/YaGJ/zU4xYvMX1q5q88HzriJo/nJ4//J35OQvL9VPkhjv89uH+NKPVz/ype36158tHQV0Z+SyacwCp+S/3/OdvDtY+NJXOst1n8cz4U3c+iF9thU1MMqBRFPWY6NV0QKVV2ajP1XOAT446fnyL4SwJq5mG5k/NzM/8IVWGi4bU51Di+eRsb1+plcikHls+uni0qhffjxkid8+ksxDn2pk/ecX3LEDfkZrN3UakIk2x8+/cBJHbUt77rLRJBN9nhnehfYvywi2pWfKB5qt+5uOFJy83N9D8bMx7Q65F5LB3/sU5P9r3/mOH6/zJ/d9gpaQhLyzbCZkt6EEUm/fl+nqch9jjqG02WpW/mTevR7GbQV8E0KxYNH023zMhsu7BuajL06jNBp6Tc7CInj0BiPIMOGbbnjOpRtW5oYLgMd5oxQQ6X7HzvILQSsjlUvS0PrfPoUz5Iqm4zVnVaWBS9fgjEF6a+ZEQlEag+TATP/MDvRNoSwzl2dx4/JsNB81MWM7BLSkRTiUyerB5uGdSHfHxPwOxN/UI2lfIfLJQfn4qVzeIX30i/pylObHneOXUM/9oJSWNmJrfBzpRhjb8riamsH0Gr6eD4ivbp2l/mT8DzRGjmliZ4Y3PFS3ciPfPLwcvkBz/m8mH3GexJfPpsxXfC/o7DG9VI5fmz/U1PXzmK7fWf/oyX3HWtCHP/5OLLSEvLLZC3lZu4YKmFnrDGq3tP8ZuP/R7YQnCnW80nwJpxvYL08Insj/838L6SaqShGU+77mKH3/wq+tbXJ52ouJ/g43RtWyF10/fWgcf9zT+v/MHffTibSfr/CLi916/UNflM38HzPTJuT7zEwvJt9HxE3PjN8sKpw3HTZKwfQie3T+8onItGJdUuH7F3J2v7evwmTfYvT5v2ps/N8908LoN/pgfdD7Y+fNciV3veTR7UvF5UPKdl3P8nqdlofmdvx0yH3/qzGk7zc79eX5WEqBjve/n6rSs7s7/0AN2mb86n7G3+07mj6Co+QrCzu9DFNKFm9Cq/4I21Ocv8/WfCDpfmIiwZpmG08yh3ISX++I2jo49UEiuOtBeoo3Wr0J7uWbxnFfVLNmI/nKUR6EzzV5eNTG2e0miG2nGU4SDSqSi5xfl8/zjfA23Rq3hZQoHFIeM34Lc4iRSpKQvfXLPUiXxcXh7JtBzUHx+lQbVsIT0IO3LU6J3n6/7G3f+eM3hxksf8q/fIkfto3FhgI9Colmbuqeco2oGXO/rVQ4/YnTdTyqxtuUW1R1930v2BFPmyJnNXU6XhGjfb+UCzZA2Ajcwr5SaGpiPn7qkXKaubHkiTbnMRayY30qohSjz9fuOXzN45jwTngEKoJbwiVQ8/+0p3t/qhSgWPtXzYNDqYp9/054Ddj4XPHn8971cv+rcNQ+W88Y1btHwPAvv36S46aUWs7BHxa3/BavCrBAs7CP3QwzcROmLHww5Es2/WL+C8ePvVpqMKddzPP8xl9sG6NIgOCUj51FFZCfg1aqSOGKKO//6tXZv+NUOoOf+w1/H6dPsfS2v/Px7gE/szsiXHVD72/dn6usE0sj/zvTxF0NtPVEYDbq6ic33vQzWc1oKnT8zbwfD4r4PBaTaGczm6pmJf5x/ttdjlEHDXd/z61wD7+CV7B54uqqzsNafP8iB6h90PxrJ7FV256vnoJE0Eej5kWlnTZWen0p7etgD21A7P9GFH3Z6tgoYofkiralD34syOOO+E4Gtx7gJn5412npNX7///qodARE/kVnrzSJ3yZcYnfu/5ideaP4sV6N/TUvIAc42Br40/2j7QnzY7GNoDXyGSzO3mqOZpHHML2UGjPeKA/qiUQ1NOM1HFaFyioMEoX0EGkGooQj7hMzX1l8WSy1vbqK0z09My4kUnbtfkA2+JCyb+5kA7xbOEm7NnesTp9BeOpPYN5+K6iQ2UF6PCsrR3/mqOA6P5Pv+U+NKUTVEIEH1ufiIqi/RYKOuHhJYsh28S6I4UoKrPrfmRwN8dhN/zM/Ij6FNAaLj14yk5SSJgdzvfUXSSTt3vxuAZ8+zepY9lPnj7zt2KVG5So7XP1EXhbn9blyD2/NA1SZqksbjh/zM5zzKj319jqpn1W8rYs23+ItLoZXVfoqf+dq3QjzvVJGzW+sa53VR81G3gckkAVvdaObW80KcOLxKkmX+ASr9e7B5M7EZUC5pdVGZLz0kmqn/vqxIhV+/ET9Z60jcUlrFgftnE2h+Gqqua5AZaS38WI3x7HwprNJ80knqe9UHZl5/L1Ej7rtR/dcM1j9FBBKZs3xifCo7XXiW/X4/mZ8XQLx+QaVuJn7mm5OPdCNlOg+On/Uzn2yiOdficpyPKxdlrCO2J2e7/ioKjuwZr84tf85x/eAz32LnqYP6VSMOeC7jdfjMnw178p0/l3yqUcH9/MDaSWqGk4aN+1y/zhRIceyAWL9XVdf/1/kgfkVxahQi/moCS/v8og7H+5czvONn+ph2/iAtPF+N5m7jV11wpp1vxja4SdQmfke/k32u+AVtrf0c0jZplZyan9Gz/H4yX7UXuf+j3YhLFjTQISjMwqXGXGk+6dMF2wNKtd1MMaa530N5T/jM507fzsAzma794qhxWaoR20c1RyXv0Ot3wXUzbmCWdSJ9qDMf6fFrdi5b56Jkq/ReBhSy9/PPxg2Vi2pfaCV81F29pTx+n62KzEcnIVpY1xaQOksE0Xgya5+TvXuT7vHn6vfXd0ME8D4npLV8uGMZQGQTH1HMLu67MX5yPf9cpiUSB3DqeypPdOr55Npr0CBFevaAGaQK8foH7D3DOYnUwyHx+4fEi8BwdQClGckl8TMZ1OIlLus6dI6oG4HndH72c697wj4faJqy45Ar6dmJhPOdz03mqiFN/K4NofnaKJc/+cVqej41wGud5c/PuTzDN6s08UsmInxyn39y9pZmS31QDpTXhzoz7df8baVFitpVSk3/mtYtQroBzNz6uEqb+yPI8whNaaxFxCyNQMUqjY+cnJv5E/uFNlr3/JvBZ4NGDw1KKlLQhiXgD4I9pff5RZl8Xwy5KOlVxwsPhyT+DzCVq1/oXxLOn9+WSj1nVYvvu3C+8585i/0fzBCzrPFzjf8zvw992oKX9/cyWeeDocRGWPrrZKHx8ZstpWhdORe0DufzmvvMH+i9UEJnwmiE7Px47e8bnejSH3DdequPP+dpFzCVZPUCOM9TPH5pFO/39OARdD3zuTjPmX/fTWEGeOai8+WDsF+Kq1PnQfQZoZxLVX++85PHPWRutsrP/FmB5qe2gya2vvREzZ/b1awUqc1V13P/ID0oX+0wA9b6JBDKErFqvmr//td/ASiB9McPXXYkAAAAAElFTkSuQmCC;" vertex="1" parent="1">
                    <mxGeometry x="294" y="239.99999999999994" width="44" height="52.19" as="geometry"/>
                </mxCell>
            </root>
        </mxGraphModel>
    </diagram>
</mxfile>